{
copyright = "Copyright (c) 2012-2015, Omnibus-Type (www.omnibus-type.com omnibus.type@gmail.com)";
customParameters = (
{
name = licenseURL;
value = "http://scripts.sil.org/OFL";
},
{
name = description;
value = "Archivo Narrow was designed to be used simultaneously in print and digital platforms. The technical and aesthetic characteristics of the font are both crafted for high performance typography.";
},
{
name = trademark;
value = Archivo;
},
{
name = license;
value = "This Font Software is licensed under the SIL Open Font License, Version 1.1. This license is available with a FAQ at: http://scripts.sil.org/OFL";
},
{
name = openTypeOS2VendorID;
value = OMNI;
},
{
name = fsType;
value = (
);
},
{
name = "Family Alignment Zones";
value = (
"{686, 12}",
"{526, 12}",
"{0, -12}",
);
}
);
date = "2015-02-05 02:37:04 +0000";
designer = "Hector Gatti";
familyName = "Archivo Narrow";
fontMaster = (
{
alignmentZones = (
"{723, 8}",
"{686, 12}",
"{526, 12}",
"{0, -12}",
"{-182, 10}"
);
ascender = 723;
capHeight = 686;
customParameters = (
{
name = typoAscender;
value = "957";
},
{
name = typoDescender;
value = "-303";
},
{
name = typoLineGap;
value = "0";
},
{
name = winAscent;
value = "957";
},
{
name = winDescent;
value = "303";
},
{
name = hheaAscender;
value = "957";
},
{
name = hheaDescender;
value = "-303";
},
{
name = hheaLineGap;
value = "0";
}
);
descender = "-182";
horizontalStems = (
110,
101,
114
);
id = UUID0;
italicAngle = 8;
verticalStems = (
123,
129
);
xHeight = 526;
}
);
glyphs = (
{
glyphname = A;
lastChange = "2015-02-05 02:37:04 +0000";
layers = (
{
anchors = (
{
name = ogonek;
position = "{558, 0}";
},
{
name = top;
position = "{359, 686}";
}
);
layerId = UUID0;
name = "Regular Italic";
paths = (
{
closed = 1;
nodes = (
"288 686 LINE",
"-26 0 LINE",
"102 0 LINE",
"161 135 LINE",
"406 135 LINE",
"428 0 LINE",
"558 0 LINE",
"435 686 LINE"
);
},
{
closed = 1;
nodes = (
"387 249 LINE",
"212 249 LINE",
"295 437 LINE SMOOTH",
"317 486 OFFCURVE",
"341 570 OFFCURVE",
"341 570 CURVE",
"345 570 LINE",
"345 570 OFFCURVE",
"349 489 OFFCURVE",
"357 437 CURVE SMOOTH"
);
}
);
width = 592;
}
);
unicode = 0041;
},
{
glyphname = Aacute;
lastChange = "2015-02-05 02:37:04 +0000";
layers = (
{
layerId = UUID0;
name = "Regular Italic";
paths = (
{
closed = 1;
nodes = (
"288 686 LINE",
"-26 0 LINE",
"102 0 LINE",
"161 135 LINE",
"406 135 LINE",
"428 0 LINE",
"558 0 LINE",
"435 686 LINE"
);
},
{
closed = 1;
nodes = (
"387 249 LINE",
"212 249 LINE",
"295 437 LINE SMOOTH",
"317 486 OFFCURVE",
"341 570 OFFCURVE",
"341 570 CURVE",
"345 570 LINE",
"345 570 OFFCURVE",
"349 489 OFFCURVE",
"357 437 CURVE SMOOTH"
);
},
{
closed = 1;
nodes = (
"392 883 LINE",
"306 751 LINE",
"405 751 LINE",
"513 880 LINE",
"512 883 LINE"
);
}
);
width = 592;
}
);
unicode = 00C1;
},
{
glyphname = Abreve;
lastChange = "2015-02-05 02:37:04 +0000";
layers = (
{
layerId = UUID0;
name = "Regular Italic";
paths = (
{
closed = 1;
nodes = (
"288 686 LINE",
"-26 0 LINE",
"102 0 LINE",
"161 135 LINE",
"406 135 LINE",
"428 0 LINE",
"558 0 LINE",
"435 686 LINE"
);
},
{
closed = 1;
nodes = (
"387 249 LINE",
"212 249 LINE",
"295 437 LINE SMOOTH",
"317 486 OFFCURVE",
"341 570 OFFCURVE",
"341 570 CURVE",
"345 570 LINE",
"345 570 OFFCURVE",
"349 489 OFFCURVE",
"357 437 CURVE SMOOTH"
);
},
{
closed = 1;
nodes = (
"457 776 OFFCURVE",
"514 833 OFFCURVE",
"521 883 CURVE",
"447 883 LINE",
"443 869 OFFCURVE",
"416 850 OFFCURVE",
"382 850 CURVE SMOOTH",
"349 850 OFFCURVE",
"329 869 OFFCURVE",
"328 883 CURVE",
"254 883 LINE",
"253 879 OFFCURVE",
"253 876 OFFCURVE",
"253 872 CURVE SMOOTH",
"253 825 OFFCURVE",
"298 776 OFFCURVE",
"377 776 CURVE SMOOTH"
);
}
);
width = 592;
}
);
unicode = 0102;
},
{
glyphname = Acircumflex;
lastChange = "2015-02-05 02:37:04 +0000";
layers = (
{
layerId = UUID0;
name = "Regular Italic";
paths = (
{
closed = 1;
nodes = (
"288 686 LINE",
"-26 0 LINE",
"102 0 LINE",
"161 135 LINE",
"406 135 LINE",
"428 0 LINE",
"558 0 LINE",
"435 686 LINE"
);
},
{
closed = 1;
nodes = (
"387 249 LINE",
"212 249 LINE",
"295 437 LINE SMOOTH",
"317 486 OFFCURVE",
"341 570 OFFCURVE",
"341 570 CURVE",
"345 570 LINE",
"345 570 OFFCURVE",
"349 489 OFFCURVE",
"357 437 CURVE SMOOTH"
);
},
{
closed = 1;
nodes = (
"338 883 LINE",
"234 748 LINE",
"327 748 LINE",
"378 817 LINE",
"412 748 LINE",
"502 748 LINE",
"436 883 LINE"
);
}
);
width = 592;
}
);
unicode = 00C2;
},
{
glyphname = Adieresis;
lastChange = "2015-02-05 02:37:04 +0000";
layers = (
{
layerId = UUID0;
name = "Regular Italic";
paths = (
{
closed = 1;
nodes = (
"288 686 LINE",
"-26 0 LINE",
"102 0 LINE",
"161 135 LINE",
"406 135 LINE",
"428 0 LINE",
"558 0 LINE",
"435 686 LINE"
);
},
{
closed = 1;
nodes = (
"387 249 LINE",
"212 249 LINE",
"295 437 LINE SMOOTH",
"317 486 OFFCURVE",
"341 570 OFFCURVE",
"341 570 CURVE",
"345 570 LINE",
"345 570 OFFCURVE",
"349 489 OFFCURVE",
"357 437 CURVE SMOOTH"
);
},
{
closed = 1;
nodes = (
"425 883 LINE",
"410 774 LINE",
"510 774 LINE",
"525 883 LINE"
);
},
{
closed = 1;
nodes = (
"250 883 LINE",
"236 774 LINE",
"335 774 LINE",
"350 883 LINE"
);
}
);
width = 592;
}
);
unicode = 00C4;
},
{
glyphname = Agrave;
lastChange = "2015-02-05 02:37:04 +0000";
layers = (
{
layerId = UUID0;
name = "Regular Italic";
paths = (
{
closed = 1;
nodes = (
"288 686 LINE",
"-26 0 LINE",
"102 0 LINE",
"161 135 LINE",
"406 135 LINE",
"428 0 LINE",
"558 0 LINE",
"435 686 LINE"
);
},
{
closed = 1;
nodes = (
"387 249 LINE",
"212 249 LINE",
"295 437 LINE SMOOTH",
"317 486 OFFCURVE",
"341 570 OFFCURVE",
"341 570 CURVE",
"345 570 LINE",
"345 570 OFFCURVE",
"349 489 OFFCURVE",
"357 437 CURVE SMOOTH"
);
},
{
closed = 1;
nodes = (
"249 880 LINE",
"339 751 LINE",
"438 751 LINE",
"371 883 LINE",
"251 883 LINE"
);
}
);
width = 592;
}
);
unicode = 00C0;
},
{
glyphname = Amacron;
lastChange = "2015-02-05 02:37:04 +0000";
layers = (
{
layerId = UUID0;
name = "Regular Italic";
paths = (
{
closed = 1;
nodes = (
"288 686 LINE",
"-26 0 LINE",
"102 0 LINE",
"161 135 LINE",
"406 135 LINE",
"428 0 LINE",
"558 0 LINE",
"435 686 LINE"
);
},
{
closed = 1;
nodes = (
"387 249 LINE",
"212 249 LINE",
"295 437 LINE SMOOTH",
"317 486 OFFCURVE",
"341 570 OFFCURVE",
"341 570 CURVE",
"345 570 LINE",
"345 570 OFFCURVE",
"349 489 OFFCURVE",
"357 437 CURVE SMOOTH"
);
},
{
closed = 1;
nodes = (
"254 846 LINE",
"241 759 LINE",
"496 759 LINE",
"509 846 LINE"
);
}
);
width = 592;
}
);
unicode = 0100;
},
{
glyphname = Aogonek;
lastChange = "2015-02-05 02:37:04 +0000";
layers = (
{
layerId = UUID0;
name = "Regular Italic";
paths = (
{
closed = 1;
nodes = (
"415 -172 OFFCURVE",
"460 -190 OFFCURVE",
"502 -190 CURVE SMOOTH",
"524 -190 OFFCURVE",
"546 -185 OFFCURVE",
"570 -176 CURVE",
"578 -121 LINE",
"556 -121 LINE SMOOTH",
"528 -121 OFFCURVE",
"517 -103 OFFCURVE",
"517 -81 CURVE SMOOTH",
"517 -49 OFFCURVE",
"542 -16 OFFCURVE",
"558 0 CURVE",
"435 686 LINE",
"288 686 LINE",
"-26 0 LINE",
"102 0 LINE",
"161 135 LINE",
"406 135 LINE",
"428 0 LINE",
"473 0 LINE",
"442 -26 OFFCURVE",
"415 -60 OFFCURVE",
"415 -113 CURVE SMOOTH"
);
},
{
closed = 1;
nodes = (
"387 249 LINE",
"212 249 LINE",
"295 437 LINE SMOOTH",
"317 486 OFFCURVE",
"341 570 OFFCURVE",
"341 570 CURVE",
"345 570 LINE",
"345 570 OFFCURVE",
"349 489 OFFCURVE",
"357 437 CURVE"
);
}
);
width = 592;
}
);
unicode = 0104;
},
{
glyphname = Aring;
lastChange = "2015-02-05 02:37:04 +0000";
layers = (
{
layerId = UUID0;
name = "Regular Italic";
paths = (
{
closed = 1;
nodes = (
"288 686 LINE",
"-26 0 LINE",
"102 0 LINE",
"161 135 LINE",
"406 135 LINE",
"428 0 LINE",
"558 0 LINE",
"435 686 LINE"
);
},
{
closed = 1;
nodes = (
"387 249 LINE",
"212 249 LINE",
"295 437 LINE SMOOTH",
"317 486 OFFCURVE",
"341 570 OFFCURVE",
"341 570 CURVE",
"345 570 LINE",
"345 570 OFFCURVE",
"349 489 OFFCURVE",
"357 437 CURVE SMOOTH"
);
},
{
closed = 1;
nodes = (
"431 721 OFFCURVE",
"474 764 OFFCURVE",
"474 817 CURVE SMOOTH",
"474 869 OFFCURVE",
"432 913 OFFCURVE",
"378 913 CURVE SMOOTH",
"325 913 OFFCURVE",
"282 870 OFFCURVE",
"282 817 CURVE SMOOTH",
"282 763 OFFCURVE",
"326 721 OFFCURVE",
"378 721 CURVE SMOOTH"
);
},
{
closed = 1;
nodes = (
"352 771 OFFCURVE",
"332 791 OFFCURVE",
"332 817 CURVE SMOOTH",
"332 843 OFFCURVE",
"352 863 OFFCURVE",
"378 863 CURVE SMOOTH",
"403 863 OFFCURVE",
"424 843 OFFCURVE",
"424 817 CURVE SMOOTH",
"424 791 OFFCURVE",
"403 771 OFFCURVE",
"378 771 CURVE SMOOTH"
);
}
);
width = 592;
}
);
unicode = 00C5;
},
{
glyphname = Aringacute;
lastChange = "2015-02-05 02:37:04 +0000";
layers = (
{
layerId = UUID0;
name = "Regular Italic";
paths = (
{
closed = 1;
nodes = (
"407 957 LINE",
"336 848 LINE",
"435 848 LINE",
"528 954 LINE",
"527 957 LINE"
);
},
{
closed = 1;
nodes = (
"342 682 OFFCURVE",
"322 701 OFFCURVE",
"322 727 CURVE SMOOTH",
"322 752 OFFCURVE",
"342 772 OFFCURVE",
"369 772 CURVE SMOOTH",
"394 772 OFFCURVE",
"415 752 OFFCURVE",
"415 727 CURVE SMOOTH",
"415 701 OFFCURVE",
"394 682 OFFCURVE",
"369 682 CURVE SMOOTH"
);
},
{
closed = 1;
nodes = (
"387 249 LINE",
"212 249 LINE",
"295 437 LINE SMOOTH",
"317 486 OFFCURVE",
"341 570 OFFCURVE",
"341 570 CURVE",
"345 570 LINE",
"345 570 OFFCURVE",
"349 489 OFFCURVE",
"357 437 CURVE"
);
},
{
closed = 1;
nodes = (
"464 777 OFFCURVE",
"422 820 OFFCURVE",
"369 820 CURVE SMOOTH",
"315 820 OFFCURVE",
"272 778 OFFCURVE",
"272 727 CURVE SMOOTH",
"272 709 OFFCURVE",
"277 694 OFFCURVE",
"285 680 CURVE",
"-26 0 LINE",
"102 0 LINE",
"161 135 LINE",
"406 135 LINE",
"428 0 LINE",
"558 0 LINE",
"439 664 LINE",
"455 680 OFFCURVE",
"464 703 OFFCURVE",
"464 727 CURVE SMOOTH"
);
}
);
width = 592;
}
);
unicode = 01FA;
},
{
glyphname = Atilde;
lastChange = "2015-02-05 02:37:04 +0000";
layers = (
{
layerId = UUID0;
name = "Regular Italic";
paths = (
{
closed = 1;
nodes = (
"288 686 LINE",
"-26 0 LINE",
"102 0 LINE",
"161 135 LINE",
"406 135 LINE",
"428 0 LINE",
"558 0 LINE",
"435 686 LINE"
);
},
{
closed = 1;
nodes = (
"387 249 LINE",
"212 249 LINE",
"295 437 LINE SMOOTH",
"317 486 OFFCURVE",
"341 570 OFFCURVE",
"341 570 CURVE",
"345 570 LINE",
"345 570 OFFCURVE",
"349 489 OFFCURVE",
"357 437 CURVE SMOOTH"
);
},
{
closed = 1;
nodes = (
"273 761 LINE",
"281 788 OFFCURVE",
"296 798 OFFCURVE",
"317 798 CURVE SMOOTH",
"361 798 OFFCURVE",
"395 761 OFFCURVE",
"442 761 CURVE SMOOTH",
"513 761 OFFCURVE",
"557 828 OFFCURVE",
"557 883 CURVE",
"492 883 LINE",
"484 855 OFFCURVE",
"469 846 OFFCURVE",
"448 846 CURVE SMOOTH",
"404 846 OFFCURVE",
"370 883 OFFCURVE",
"322 883 CURVE SMOOTH",
"252 883 OFFCURVE",
"209 814 OFFCURVE",
"209 761 CURVE"
);
}
);
width = 592;
}
);
unicode = 00C3;
},
{
color = (31,255,0,1);
glyphname = AE;
lastChange = "2015-02-05 02:37:04 +0000";
layers = (
{
anchors = (
{
name = top;
position = "{424, 686}";
}
);
background = {
paths = (
{
closed = 1;
nodes = (
"303 686 LINE",
"-52 0 LINE",
"78 0 LINE",
"145 135 LINE",
"385 135 LINE",
"397 0 LINE",
"765 0 LINE",
"748 114 LINE",
"514 114 LINE",
"496 294 LINE",
"743 294 LINE",
"759 408 LINE",
"485 408 LINE",
"468 572 LINE",
"806 572 LINE",
"837 686 LINE"
);
},
{
closed = 1;
nodes = (
"374 249 LINE",
"201 249 LINE",
"295 437 LINE SMOOTH",
"319 485 OFFCURVE",
"341 570 OFFCURVE",
"341 570 CURVE",
"345 570 LINE"
);
}
);
};
layerId = UUID0;
name = "Regular Italic";
paths = (
{
closed = 1;
nodes = (
"295 437 LINE",
"319 485 OFFCURVE",
"341 570 OFFCURVE",
"341 570 CURVE",
"345 570 LINE",
"374 249 LINE",
"201 249 LINE"
);
},
{
closed = 1;
nodes = (
"741 0 LINE",
"757 114 LINE",
"514 114 LINE",
"496 294 LINE",
"733 294 LINE",
"749 408 LINE",
"485 408 LINE",
"468 572 LINE",
"815 572 LINE",
"831 686 LINE",
"303 686 LINE",
"-52 0 LINE",
"78 0 LINE",
"145 135 LINE",
"385 135 LINE",
"397 0 LINE"
);
}
);
width = 820;
}
);
unicode = 00C6;
},
{
color = (31,255,0,1);
glyphname = AEacute;
lastChange = "2015-02-05 02:37:04 +0000";
layers = (
{
background = {
paths = (
{
closed = 1;
nodes = (
"303 686 LINE",
"-52 0 LINE",
"78 0 LINE",
"145 135 LINE",
"385 135 LINE",
"397 0 LINE",
"765 0 LINE",
"748 114 LINE",
"514 114 LINE",
"496 294 LINE",
"743 294 LINE",
"759 408 LINE",
"485 408 LINE",
"468 572 LINE",
"806 572 LINE",
"837 686 LINE"
);
},
{
closed = 1;
nodes = (
"374 249 LINE",
"201 249 LINE",
"295 437 LINE SMOOTH",
"319 485 OFFCURVE",
"341 570 OFFCURVE",
"341 570 CURVE",
"345 570 LINE"
);
}
);
};
layerId = UUID0;
name = "Regular Italic";
paths = (
{
closed = 1;
nodes = (
"457 883 LINE",
"371 751 LINE",
"470 751 LINE",
"578 880 LINE",
"577 883 LINE"
);
},
{
closed = 1;
nodes = (
"295 437 LINE SMOOTH",
"319 485 OFFCURVE",
"341 570 OFFCURVE",
"341 570 CURVE",
"345 570 LINE",
"374 249 LINE",
"201 249 LINE"
);
},
{
closed = 1;
nodes = (
"741 0 LINE",
"757 114 LINE",
"514 114 LINE",
"496 294 LINE",
"733 294 LINE",
"749 408 LINE",
"485 408 LINE",
"468 572 LINE",
"815 572 LINE",
"831 686 LINE",
"303 686 LINE",
"-52 0 LINE",
"78 0 LINE",
"145 135 LINE",
"385 135 LINE",
"397 0 LINE"
);
}
);
width = 820;
}
);
unicode = 01FC;
},
{
color = (31,255,0,1);
glyphname = B;
lastChange = "2015-02-05 02:37:04 +0000";
layers = (
{
background = {
paths = (
{
closed = 1;
nodes = (
"114 686 LINE",
"18 0 LINE",
"327 0 LINE SMOOTH",
"440 0 OFFCURVE",
"551 77 OFFCURVE",
"551 204 CURVE SMOOTH",
"551 281 OFFCURVE",
"510 336 OFFCURVE",
"453 356 CURVE",
"454 360 LINE",
"520 382 OFFCURVE",
"581 446 OFFCURVE",
"581 534 CURVE SMOOTH",
"581 625 OFFCURVE",
"512 686 OFFCURVE",
"409 686 CURVE SMOOTH"
);
},
{
closed = 1;
nodes = (
"202 408 LINE",
"225 572 LINE",
"377 572 LINE",
"421 572 OFFCURVE",
"448 549 OFFCURVE",
"448 503 CURVE SMOOTH",
"448 453 OFFCURVE",
"410 408 OFFCURVE",
"345 408 CURVE SMOOTH"
);
},
{
closed = 1;
nodes = (
"160 114 LINE",
"186 295 LINE",
"337 295 LINE",
"395 295 OFFCURVE",
"422 262 OFFCURVE",
"422 218 CURVE SMOOTH",
"422 150 OFFCURVE",
"377 114 OFFCURVE",
"321 114 CURVE SMOOTH"
);
}
);
};
layerId = UUID0;
name = "Regular Italic";
paths = (
{
closed = 1;
nodes = (
"28 0 LINE",
"327 0 LINE SMOOTH",
"440 0 OFFCURVE",
"551 77 OFFCURVE",
"551 204 CURVE SMOOTH",
"551 281 OFFCURVE",
"510 336 OFFCURVE",
"453 356 CURVE",
"454 360 LINE",
"520 382 OFFCURVE",
"581 446 OFFCURVE",
"581 534 CURVE SMOOTH",
"581 625 OFFCURVE",
"512 686 OFFCURVE",
"409 686 CURVE SMOOTH",
"124 686 LINE"
);
},
{
closed = 1;
nodes = (
"337 295 LINE",
"395 295 OFFCURVE",
"422 262 OFFCURVE",
"422 218 CURVE SMOOTH",
"422 150 OFFCURVE",
"377 114 OFFCURVE",
"321 114 CURVE SMOOTH",
"170 114 LINE",
"196 295 LINE"
);
},
{
closed = 1;
nodes = (
"377 572 LINE",
"421 572 OFFCURVE",
"448 549 OFFCURVE",
"448 503 CURVE SMOOTH",
"448 453 OFFCURVE",
"410 408 OFFCURVE",
"345 408 CURVE SMOOTH",
"212 408 LINE",
"235 572 LINE"
);
}
);
width = 592;
}
);
unicode = 0042;
},
{
glyphname = C;
lastChange = "2015-02-05 02:37:04 +0000";
layers = (
{
anchors = (
{
name = bottom;
position = "{269, 0}";
},
{
name = top;
position = "{364, 686}";
}
);
layerId = UUID0;
name = "Regular Italic";
paths = (
{
closed = 1;
nodes = (
"45 72 OFFCURVE",
"133 -12 OFFCURVE",
"284 -12 CURVE SMOOTH",
"447 -12 OFFCURVE",
"535 111 OFFCURVE",
"566 254 CURVE",
"441 254 LINE",
"423 170 OFFCURVE",
"377 98 OFFCURVE",
"287 98 CURVE SMOOTH",
"210 98 OFFCURVE",
"174 156 OFFCURVE",
"174 255 CURVE SMOOTH",
"174 383 OFFCURVE",
"207 588 OFFCURVE",
"353 588 CURVE SMOOTH",
"419 588 OFFCURVE",
"459 538 OFFCURVE",
"459 449 CURVE SMOOTH",
"459 431 LINE",
"589 431 LINE",
"589 444 LINE SMOOTH",
"589 614 OFFCURVE",
"497 698 OFFCURVE",
"353 698 CURVE SMOOTH",
"126 698 OFFCURVE",
"45 461 OFFCURVE",
"45 250 CURVE SMOOTH"
);
}
);
width = 592;
}
);
unicode = 0043;
},
{
glyphname = Cacute;
lastChange = "2015-02-05 02:37:04 +0000";
layers = (
{
layerId = UUID0;
name = "Regular Italic";
paths = (
{
closed = 1;
nodes = (
"45 72 OFFCURVE",
"133 -12 OFFCURVE",
"284 -12 CURVE SMOOTH",
"447 -12 OFFCURVE",
"535 111 OFFCURVE",
"566 254 CURVE",
"441 254 LINE",
"423 170 OFFCURVE",
"377 98 OFFCURVE",
"287 98 CURVE SMOOTH",
"210 98 OFFCURVE",
"174 156 OFFCURVE",
"174 255 CURVE SMOOTH",
"174 383 OFFCURVE",
"207 588 OFFCURVE",
"353 588 CURVE SMOOTH",
"419 588 OFFCURVE",
"459 538 OFFCURVE",
"459 449 CURVE SMOOTH",
"459 431 LINE",
"589 431 LINE",
"589 444 LINE SMOOTH",
"589 614 OFFCURVE",
"497 698 OFFCURVE",
"353 698 CURVE SMOOTH",
"126 698 OFFCURVE",
"45 461 OFFCURVE",
"45 250 CURVE SMOOTH"
);
},
{
closed = 1;
nodes = (
"396 883 LINE",
"310 751 LINE",
"409 751 LINE",
"517 880 LINE",
"516 883 LINE"
);
}
);
width = 592;
}
);
unicode = 0106;
},
{
glyphname = Ccaron;
lastChange = "2015-02-05 02:37:04 +0000";
layers = (
{
layerId = UUID0;
name = "Regular Italic";
paths = (
{
closed = 1;
nodes = (
"45 72 OFFCURVE",
"133 -12 OFFCURVE",
"284 -12 CURVE SMOOTH",
"447 -12 OFFCURVE",
"535 111 OFFCURVE",
"566 254 CURVE",
"441 254 LINE",
"423 170 OFFCURVE",
"377 98 OFFCURVE",
"287 98 CURVE SMOOTH",
"210 98 OFFCURVE",
"174 156 OFFCURVE",
"174 255 CURVE SMOOTH",
"174 383 OFFCURVE",
"207 588 OFFCURVE",
"353 588 CURVE SMOOTH",
"419 588 OFFCURVE",
"459 538 OFFCURVE",
"459 449 CURVE SMOOTH",
"459 431 LINE",
"589 431 LINE",
"589 444 LINE SMOOTH",
"589 614 OFFCURVE",
"497 698 OFFCURVE",
"353 698 CURVE SMOOTH",
"126 698 OFFCURVE",
"45 461 OFFCURVE",
"45 250 CURVE SMOOTH"
);
},
{
closed = 1;
nodes = (
"256 883 LINE",
"323 748 LINE",
"421 748 LINE",
"525 883 LINE",
"431 883 LINE",
"381 814 LINE",
"346 883 LINE"
);
}
);
width = 592;
}
);
unicode = 010C;
},
{
glyphname = Ccedilla;
lastChange = "2015-02-05 02:37:04 +0000";
layers = (
{
layerId = UUID0;
name = "Regular Italic";
paths = (
{
closed = 1;
nodes = (
"45 94 OFFCURVE",
"112 10 OFFCURVE",
"229 -8 CURVE",
"212 -77 LINE",
"245 -77 LINE SMOOTH",
"267 -77 OFFCURVE",
"276 -83 OFFCURVE",
"276 -95 CURVE SMOOTH",
"276 -119 OFFCURVE",
"260 -125 OFFCURVE",
"236 -125 CURVE SMOOTH",
"165 -125 LINE",
"158 -174 LINE",
"181 -179 OFFCURVE",
"213 -182 OFFCURVE",
"241 -182 CURVE SMOOTH",
"296 -182 OFFCURVE",
"362 -166 OFFCURVE",
"362 -90 CURVE SMOOTH",
"362 -52 OFFCURVE",
"330 -36 OFFCURVE",
"292 -33 CURVE",
"297 -12 LINE",
"451 -5 OFFCURVE",
"536 115 OFFCURVE",
"566 254 CURVE",
"441 254 LINE",
"423 170 OFFCURVE",
"377 98 OFFCURVE",
"287 98 CURVE SMOOTH",
"210 98 OFFCURVE",
"174 156 OFFCURVE",
"174 255 CURVE SMOOTH",
"174 383 OFFCURVE",
"207 588 OFFCURVE",
"353 588 CURVE SMOOTH",
"419 588 OFFCURVE",
"459 538 OFFCURVE",
"459 449 CURVE SMOOTH",
"459 431 LINE",
"589 431 LINE",
"589 444 LINE SMOOTH",
"589 614 OFFCURVE",
"497 698 OFFCURVE",
"353 698 CURVE SMOOTH",
"126 698 OFFCURVE",
"45 461 OFFCURVE",
"45 250 CURVE SMOOTH"
);
}
);
width = 592;
}
);
unicode = 00C7;
},
{
glyphname = Ccircumflex;
lastChange = "2015-02-05 02:37:04 +0000";
layers = (
{
layerId = UUID0;
name = "Regular Italic";
paths = (
{
closed = 1;
nodes = (
"45 72 OFFCURVE",
"133 -12 OFFCURVE",
"284 -12 CURVE SMOOTH",
"447 -12 OFFCURVE",
"535 111 OFFCURVE",
"566 254 CURVE",
"441 254 LINE",
"423 170 OFFCURVE",
"377 98 OFFCURVE",
"287 98 CURVE SMOOTH",
"210 98 OFFCURVE",
"174 156 OFFCURVE",
"174 255 CURVE SMOOTH",
"174 383 OFFCURVE",
"207 588 OFFCURVE",
"353 588 CURVE SMOOTH",
"419 588 OFFCURVE",
"459 538 OFFCURVE",
"459 449 CURVE SMOOTH",
"459 431 LINE",
"589 431 LINE",
"589 444 LINE SMOOTH",
"589 614 OFFCURVE",
"497 698 OFFCURVE",
"353 698 CURVE SMOOTH",
"126 698 OFFCURVE",
"45 461 OFFCURVE",
"45 250 CURVE SMOOTH"
);
},
{
closed = 1;
nodes = (
"342 883 LINE",
"238 748 LINE",
"331 748 LINE",
"382 817 LINE",
"416 748 LINE",
"506 748 LINE",
"440 883 LINE"
);
}
);
width = 592;
}
);
unicode = 0108;
},
{
glyphname = Cdotaccent;
lastChange = "2015-02-05 02:37:04 +0000";
layers = (
{
layerId = UUID0;
name = "Regular Italic";
paths = (
{
closed = 1;
nodes = (
"45 72 OFFCURVE",
"133 -12 OFFCURVE",
"284 -12 CURVE SMOOTH",
"447 -12 OFFCURVE",
"535 111 OFFCURVE",
"566 254 CURVE",
"441 254 LINE",
"423 170 OFFCURVE",
"377 98 OFFCURVE",
"287 98 CURVE SMOOTH",
"210 98 OFFCURVE",
"174 156 OFFCURVE",
"174 255 CURVE SMOOTH",
"174 383 OFFCURVE",
"207 588 OFFCURVE",
"353 588 CURVE SMOOTH",
"419 588 OFFCURVE",
"459 538 OFFCURVE",
"459 449 CURVE SMOOTH",
"459 431 LINE",
"589 431 LINE",
"589 444 LINE SMOOTH",
"589 614 OFFCURVE",
"497 698 OFFCURVE",
"353 698 CURVE SMOOTH",
"126 698 OFFCURVE",
"45 461 OFFCURVE",
"45 250 CURVE SMOOTH"
);
},
{
closed = 1;
nodes = (
"339 883 LINE",
"322 768 LINE",
"429 768 LINE",
"446 883 LINE"
);
}
);
width = 592;
}
);
unicode = 010A;
},
{
color = (31,255,0,1);
glyphname = D;
lastChange = "2015-02-05 02:37:04 +0000";
layers = (
{
anchors = (
{
name = center;
position = "{311, 343}";
},
{
name = top;
position = "{358, 686}";
}
);
background = {
paths = (
{
closed = 1;
nodes = (
"114 686 LINE",
"18 0 LINE",
"264 0 LINE",
"491 0 OFFCURVE",
"576 240 OFFCURVE",
"576 426 CURVE SMOOTH",
"576 599 OFFCURVE",
"487 686 OFFCURVE",
"335 686 CURVE SMOOTH"
);
},
{
closed = 1;
nodes = (
"161 114 LINE",
"225 572 LINE",
"317 572 LINE",
"398 572 OFFCURVE",
"447 520 OFFCURVE",
"447 417 CURVE SMOOTH",
"447 297 OFFCURVE",
"406 114 OFFCURVE",
"253 114 CURVE SMOOTH"
);
}
);
};
layerId = UUID0;
name = "Regular Italic";
paths = (
{
closed = 1;
nodes = (
"264 0 LINE",
"491 0 OFFCURVE",
"576 240 OFFCURVE",
"576 426 CURVE SMOOTH",
"576 599 OFFCURVE",
"487 686 OFFCURVE",
"335 686 CURVE SMOOTH",
"124 686 LINE",
"28 0 LINE"
);
},
{
closed = 1;
nodes = (
"317 572 LINE",
"398 572 OFFCURVE",
"447 520 OFFCURVE",
"447 417 CURVE SMOOTH",
"447 297 OFFCURVE",
"406 114 OFFCURVE",
"253 114 CURVE SMOOTH",
"171 114 LINE",
"235 572 LINE"
);
}
);
width = 592;
}
);
unicode = 0044;
},
{
color = (31,255,0,1);
glyphname = Eth;
lastChange = "2015-02-05 02:37:04 +0000";
layers = (
{
background = {
paths = (
{
closed = 1;
nodes = (
"61 312 LINE",
"18 0 LINE",
"264 0 LINE SMOOTH",
"491 0 OFFCURVE",
"576 240 OFFCURVE",
"576 426 CURVE SMOOTH",
"576 599 OFFCURVE",
"487 686 OFFCURVE",
"335 686 CURVE SMOOTH",
"114 686 LINE",
"73 397 LINE",
"24 397 LINE",
"13 312 LINE"
);
},
{
closed = 1;
nodes = (
"161 114 LINE",
"188 312 LINE",
"312 312 LINE",
"324 397 LINE",
"200 397 LINE",
"225 572 LINE",
"317 572 LINE SMOOTH",
"398 572 OFFCURVE",
"447 520 OFFCURVE",
"447 417 CURVE SMOOTH",
"447 297 OFFCURVE",
"406 114 OFFCURVE",
"253 114 CURVE SMOOTH"
);
}
);
};
layerId = UUID0;
name = "Regular Italic";
paths = (
{
closed = 1;
nodes = (
"264 0 LINE",
"491 0 OFFCURVE",
"576 240 OFFCURVE",
"576 426 CURVE SMOOTH",
"576 599 OFFCURVE",
"487 686 OFFCURVE",
"335 686 CURVE SMOOTH",
"124 686 LINE",
"83 397 LINE",
"34 397 LINE",
"23 312 LINE",
"71 312 LINE",
"28 0 LINE"
);
},
{
closed = 1;
nodes = (
"317 572 LINE",
"398 572 OFFCURVE",
"447 520 OFFCURVE",
"447 417 CURVE SMOOTH",
"447 297 OFFCURVE",
"406 114 OFFCURVE",
"253 114 CURVE SMOOTH",
"171 114 LINE",
"198 312 LINE",
"322 312 LINE",
"334 397 LINE",
"210 397 LINE",
"235 572 LINE"
);
}
);
width = 592;
}
);
unicode = 00D0;
},
{
color = (31,255,0,1);
glyphname = Dcaron;
lastChange = "2015-02-05 02:37:04 +0000";
layers = (
{
background = {
paths = (
{
closed = 1;
nodes = (
"114 686 LINE",
"18 0 LINE",
"264 0 LINE SMOOTH",
"491 0 OFFCURVE",
"576 240 OFFCURVE",
"576 426 CURVE SMOOTH",
"576 599 OFFCURVE",
"487 686 OFFCURVE",
"335 686 CURVE SMOOTH"
);
},
{
closed = 1;
nodes = (
"161 114 LINE",
"225 572 LINE",
"317 572 LINE SMOOTH",
"398 572 OFFCURVE",
"447 520 OFFCURVE",
"447 417 CURVE SMOOTH",
"447 297 OFFCURVE",
"406 114 OFFCURVE",
"253 114 CURVE SMOOTH"
);
}
);
};
layerId = UUID0;
name = "Regular Italic";
paths = (
{
closed = 1;
nodes = (
"251 883 LINE",
"318 748 LINE",
"416 748 LINE",
"520 883 LINE",
"426 883 LINE",
"376 814 LINE",
"341 883 LINE"
);
},
{
closed = 1;
nodes = (
"264 0 LINE SMOOTH",
"491 0 OFFCURVE",
"576 240 OFFCURVE",
"576 426 CURVE SMOOTH",
"576 599 OFFCURVE",
"487 686 OFFCURVE",
"335 686 CURVE SMOOTH",
"124 686 LINE",
"28 0 LINE"
);
},
{
closed = 1;
nodes = (
"317 572 LINE SMOOTH",
"398 572 OFFCURVE",
"447 520 OFFCURVE",
"447 417 CURVE SMOOTH",
"447 297 OFFCURVE",
"406 114 OFFCURVE",
"253 114 CURVE SMOOTH",
"171 114 LINE",
"235 572 LINE"
);
}
);
width = 592;
}
);
unicode = 010E;
},
{
color = (31,255,0,1);
glyphname = Dcroat;
lastChange = "2015-02-05 02:37:04 +0000";
layers = (
{
background = {
paths = (
{
closed = 1;
nodes = (
"61 312 LINE",
"18 0 LINE",
"264 0 LINE SMOOTH",
"491 0 OFFCURVE",
"576 240 OFFCURVE",
"576 426 CURVE SMOOTH",
"576 599 OFFCURVE",
"487 686 OFFCURVE",
"335 686 CURVE SMOOTH",
"114 686 LINE",
"73 397 LINE",
"24 397 LINE",
"13 312 LINE"
);
},
{
closed = 1;
nodes = (
"161 114 LINE",
"188 312 LINE",
"312 312 LINE",
"324 397 LINE",
"200 397 LINE",
"225 572 LINE",
"317 572 LINE SMOOTH",
"398 572 OFFCURVE",
"447 520 OFFCURVE",
"447 417 CURVE SMOOTH",
"447 297 OFFCURVE",
"406 114 OFFCURVE",
"253 114 CURVE SMOOTH"
);
}
);
};
layerId = UUID0;
name = "Regular Italic";
paths = (
{
closed = 1;
nodes = (
"264 0 LINE SMOOTH",
"491 0 OFFCURVE",
"576 240 OFFCURVE",
"576 426 CURVE SMOOTH",
"576 599 OFFCURVE",
"487 686 OFFCURVE",
"335 686 CURVE SMOOTH",
"124 686 LINE",
"83 397 LINE",
"34 397 LINE",
"23 312 LINE",
"71 312 LINE",
"28 0 LINE"
);
},
{
closed = 1;
nodes = (
"317 572 LINE SMOOTH",
"398 572 OFFCURVE",
"447 520 OFFCURVE",
"447 417 CURVE SMOOTH",
"447 297 OFFCURVE",
"406 114 OFFCURVE",
"253 114 CURVE SMOOTH",
"171 114 LINE",
"198 312 LINE",
"322 312 LINE",
"334 397 LINE",
"210 397 LINE",
"235 572 LINE"
);
}
);
width = 592;
}
);
unicode = 0110;
},
{
color = (31,255,0,1);
glyphname = E;
lastChange = "2015-02-05 02:37:04 +0000";
layers = (
{
anchors = (
{
name = bottom;
position = "{248, 0}";
},
{
name = ogonek;
position = "{493, 0}";
},
{
name = top;
position = "{344, 686}";
}
);
background = {
paths = (
{
closed = 1;
nodes = (
"114 686 LINE",
"18 0 LINE",
"493 0 LINE",
"476 114 LINE",
"160 114 LINE",
"186 294 LINE",
"471 294 LINE",
"487 408 LINE",
"202 408 LINE",
"225 572 LINE",
"534 572 LINE",
"565 686 LINE"
);
}
);
};
layerId = UUID0;
name = "Regular Italic";
paths = (
{
closed = 1;
nodes = (
"466 0 LINE",
"482 114 LINE",
"170 114 LINE",
"196 294 LINE",
"458 294 LINE",
"474 408 LINE",
"212 408 LINE",
"235 572 LINE",
"540 572 LINE",
"556 686 LINE",
"124 686 LINE",
"28 0 LINE"
);
}
);
width = 547;
}
);
unicode = 0045;
},
{
color = (31,255,0,1);
glyphname = Eacute;
lastChange = "2015-02-05 02:37:04 +0000";
layers = (
{
background = {
paths = (
{
closed = 1;
nodes = (
"114 686 LINE",
"18 0 LINE",
"493 0 LINE",
"476 114 LINE",
"160 114 LINE",
"186 294 LINE",
"471 294 LINE",
"487 408 LINE",
"202 408 LINE",
"225 572 LINE",
"534 572 LINE",
"565 686 LINE"
);
}
);
};
layerId = UUID0;
name = "Regular Italic";
paths = (
{
closed = 1;
nodes = (
"377 883 LINE",
"291 751 LINE",
"390 751 LINE",
"498 880 LINE",
"497 883 LINE"
);
},
{
closed = 1;
nodes = (
"466 0 LINE",
"482 114 LINE",
"170 114 LINE",
"196 294 LINE",
"458 294 LINE",
"474 408 LINE",
"212 408 LINE",
"235 572 LINE",
"540 572 LINE",
"556 686 LINE",
"124 686 LINE",
"28 0 LINE"
);
}
);
width = 547;
}
);
unicode = 00C9;
},
{
color = (31,255,0,1);
glyphname = Ebreve;
lastChange = "2015-02-05 02:37:04 +0000";
layers = (
{
background = {
paths = (
{
closed = 1;
nodes = (
"114 686 LINE",
"18 0 LINE",
"493 0 LINE",
"476 114 LINE",
"160 114 LINE",
"186 294 LINE",
"471 294 LINE",
"487 408 LINE",
"202 408 LINE",
"225 572 LINE",
"534 572 LINE",
"565 686 LINE"
);
}
);
};
layerId = UUID0;
name = "Regular Italic";
paths = (
{
closed = 1;
nodes = (
"442 776 OFFCURVE",
"499 833 OFFCURVE",
"506 883 CURVE",
"432 883 LINE",
"428 869 OFFCURVE",
"401 850 OFFCURVE",
"367 850 CURVE SMOOTH",
"334 850 OFFCURVE",
"314 869 OFFCURVE",
"313 883 CURVE",
"239 883 LINE",
"238 879 OFFCURVE",
"238 876 OFFCURVE",
"238 872 CURVE SMOOTH",
"238 825 OFFCURVE",
"283 776 OFFCURVE",
"362 776 CURVE SMOOTH"
);
},
{
closed = 1;
nodes = (
"466 0 LINE",
"482 114 LINE",
"170 114 LINE",
"196 294 LINE",
"458 294 LINE",
"474 408 LINE",
"212 408 LINE",
"235 572 LINE",
"540 572 LINE",
"556 686 LINE",
"124 686 LINE",
"28 0 LINE"
);
}
);
width = 547;
}
);
unicode = 0114;
},
{
color = (31,255,0,1);
glyphname = Ecaron;
lastChange = "2015-02-05 02:37:04 +0000";
layers = (
{
background = {
paths = (
{
closed = 1;
nodes = (
"114 686 LINE",
"18 0 LINE",
"493 0 LINE",
"476 114 LINE",
"160 114 LINE",
"186 294 LINE",
"471 294 LINE",
"487 408 LINE",
"202 408 LINE",
"225 572 LINE",
"534 572 LINE",
"565 686 LINE"
);
}
);
};
layerId = UUID0;
name = "Regular Italic";
paths = (
{
closed = 1;
nodes = (
"237 883 LINE",
"304 748 LINE",
"402 748 LINE",
"506 883 LINE",
"412 883 LINE",
"362 814 LINE",
"327 883 LINE"
);
},
{
closed = 1;
nodes = (
"466 0 LINE",
"482 114 LINE",
"170 114 LINE",
"196 294 LINE",
"458 294 LINE",
"474 408 LINE",
"212 408 LINE",
"235 572 LINE",
"540 572 LINE",
"556 686 LINE",
"124 686 LINE",
"28 0 LINE"
);
}
);
width = 547;
}
);
unicode = 011A;
},
{
color = (31,255,0,1);
glyphname = Ecircumflex;
lastChange = "2015-02-05 02:37:04 +0000";
layers = (
{
background = {
paths = (
{
closed = 1;
nodes = (
"114 686 LINE",
"18 0 LINE",
"493 0 LINE",
"476 114 LINE",
"160 114 LINE",
"186 294 LINE",
"471 294 LINE",
"487 408 LINE",
"202 408 LINE",
"225 572 LINE",
"534 572 LINE",
"565 686 LINE"
);
}
);
};
layerId = UUID0;
name = "Regular Italic";
paths = (
{
closed = 1;
nodes = (
"323 883 LINE",
"219 748 LINE",
"312 748 LINE",
"363 817 LINE",
"397 748 LINE",
"487 748 LINE",
"421 883 LINE"
);
},
{
closed = 1;
nodes = (
"466 0 LINE",
"482 114 LINE",
"170 114 LINE",
"196 294 LINE",
"458 294 LINE",
"474 408 LINE",
"212 408 LINE",
"235 572 LINE",
"540 572 LINE",
"556 686 LINE",
"124 686 LINE",
"28 0 LINE"
);
}
);
width = 547;
}
);
unicode = 00CA;
},
{
color = (31,255,0,1);
glyphname = Edieresis;
lastChange = "2015-02-05 02:37:04 +0000";
layers = (
{
background = {
paths = (
{
closed = 1;
nodes = (
"114 686 LINE",
"18 0 LINE",
"493 0 LINE",
"476 114 LINE",
"160 114 LINE",
"186 294 LINE",
"471 294 LINE",
"487 408 LINE",
"202 408 LINE",
"225 572 LINE",
"534 572 LINE",
"565 686 LINE"
);
}
);
};
layerId = UUID0;
name = "Regular Italic";
paths = (
{
closed = 1;
nodes = (
"410 883 LINE",
"395 774 LINE",
"495 774 LINE",
"510 883 LINE"
);
},
{
closed = 1;
nodes = (
"235 883 LINE",
"221 774 LINE",
"320 774 LINE",
"335 883 LINE"
);
},
{
closed = 1;
nodes = (
"466 0 LINE",
"482 114 LINE",
"170 114 LINE",
"196 294 LINE",
"458 294 LINE",
"474 408 LINE",
"212 408 LINE",
"235 572 LINE",
"540 572 LINE",
"556 686 LINE",
"124 686 LINE",
"28 0 LINE"
);
}
);
width = 547;
}
);
unicode = 00CB;
},
{
color = (31,255,0,1);
glyphname = Edotaccent;
lastChange = "2015-02-05 02:37:04 +0000";
layers = (
{
background = {
paths = (
{
closed = 1;
nodes = (
"114 686 LINE",
"18 0 LINE",
"493 0 LINE",
"476 114 LINE",
"160 114 LINE",
"186 294 LINE",
"471 294 LINE",
"487 408 LINE",
"202 408 LINE",
"225 572 LINE",
"534 572 LINE",
"565 686 LINE"
);
}
);
};
layerId = UUID0;
name = "Regular Italic";
paths = (
{
closed = 1;
nodes = (
"319 883 LINE",
"302 768 LINE",
"409 768 LINE",
"426 883 LINE"
);
},
{
closed = 1;
nodes = (
"466 0 LINE",
"482 114 LINE",
"170 114 LINE",
"196 294 LINE",
"458 294 LINE",
"474 408 LINE",
"212 408 LINE",
"235 572 LINE",
"540 572 LINE",
"556 686 LINE",
"124 686 LINE",
"28 0 LINE"
);
}
);
width = 547;
}
);
unicode = 0116;
},
{
color = (31,255,0,1);
glyphname = Egrave;
lastChange = "2015-02-05 02:37:04 +0000";
layers = (
{
background = {
paths = (
{
closed = 1;
nodes = (
"114 686 LINE",
"18 0 LINE",
"493 0 LINE",
"476 114 LINE",
"160 114 LINE",
"186 294 LINE",
"471 294 LINE",
"487 408 LINE",
"202 408 LINE",
"225 572 LINE",
"534 572 LINE",
"565 686 LINE"
);
}
);
};
layerId = UUID0;
name = "Regular Italic";
paths = (
{
closed = 1;
nodes = (
"233 880 LINE",
"323 751 LINE",
"422 751 LINE",
"355 883 LINE",
"235 883 LINE"
);
},
{
closed = 1;
nodes = (
"466 0 LINE",
"482 114 LINE",
"170 114 LINE",
"196 294 LINE",
"458 294 LINE",
"474 408 LINE",
"212 408 LINE",
"235 572 LINE",
"540 572 LINE",
"556 686 LINE",
"124 686 LINE",
"28 0 LINE"
);
}
);
width = 547;
}
);
unicode = 00C8;
},
{
color = (31,255,0,1);
glyphname = Emacron;
lastChange = "2015-02-05 02:37:04 +0000";
layers = (
{
background = {
paths = (
{
closed = 1;
nodes = (
"114 686 LINE",
"18 0 LINE",
"493 0 LINE",
"476 114 LINE",
"160 114 LINE",
"186 294 LINE",
"471 294 LINE",
"487 408 LINE",
"202 408 LINE",
"225 572 LINE",
"534 572 LINE",
"565 686 LINE"
);
}
);
};
layerId = UUID0;
name = "Regular Italic";
paths = (
{
closed = 1;
nodes = (
"239 846 LINE",
"226 759 LINE",
"481 759 LINE",
"494 846 LINE"
);
},
{
closed = 1;
nodes = (
"466 0 LINE",
"482 114 LINE",
"170 114 LINE",
"196 294 LINE",
"458 294 LINE",
"474 408 LINE",
"212 408 LINE",
"235 572 LINE",
"540 572 LINE",
"556 686 LINE",
"124 686 LINE",
"28 0 LINE"
);
}
);
width = 547;
}
);
unicode = 0112;
},
{
color = (31,255,0,1);
glyphname = Eogonek;
lastChange = "2015-02-05 02:37:04 +0000";
layers = (
{
background = {
paths = (
{
closed = 1;
nodes = (
"466 0 LINE",
"482 114 LINE",
"170 114 LINE",
"196 294 LINE",
"458 294 LINE",
"474 408 LINE",
"212 408 LINE",
"235 572 LINE",
"540 572 LINE",
"556 686 LINE",
"124 686 LINE",
"28 0 LINE"
);
}
);
};
layerId = UUID0;
name = "Regular Italic";
paths = (
{
closed = 1;
nodes = (
"323 -172 OFFCURVE",
"368 -190 OFFCURVE",
"410 -190 CURVE SMOOTH",
"432 -190 OFFCURVE",
"454 -185 OFFCURVE",
"478 -176 CURVE",
"486 -121 LINE",
"464 -121 LINE SMOOTH",
"436 -121 OFFCURVE",
"425 -103 OFFCURVE",
"425 -81 CURVE SMOOTH",
"425 -49 OFFCURVE",
"450 -16 OFFCURVE",
"466 0 CURVE",
"482 114 LINE",
"170 114 LINE",
"196 294 LINE",
"458 294 LINE",
"474 408 LINE",
"212 408 LINE",
"235 572 LINE",
"540 572 LINE",
"556 686 LINE",
"124 686 LINE",
"28 0 LINE",
"381 0 LINE",
"350 -26 OFFCURVE",
"323 -60 OFFCURVE",
"323 -113 CURVE SMOOTH"
);
}
);
width = 547;
}
);
unicode = 0118;
},
{
color = (31,255,0,1);
glyphname = F;
lastChange = "2015-02-05 02:37:04 +0000";
layers = (
{
background = {
paths = (
{
closed = 1;
nodes = (
"114 686 LINE",
"18 0 LINE",
"144 0 LINE",
"184 285 LINE",
"436 285 LINE",
"452 399 LINE",
"200 399 LINE",
"225 572 LINE",
"501 572 LINE",
"532 686 LINE"
);
}
);
};
layerId = UUID0;
name = "Regular Italic";
paths = (
{
closed = 1;
nodes = (
"155 0 LINE",
"195 285 LINE",
"427 285 LINE",
"443 399 LINE",
"211 399 LINE",
"235 572 LINE",
"508 572 LINE",
"523 686 LINE",
"125 686 LINE",
"28 0 LINE"
);
}
);
width = 501;
}
);
unicode = 0046;
},
{
glyphname = G;
lastChange = "2015-02-05 02:37:04 +0000";
layers = (
{
anchors = (
{
name = bottom;
position = "{272, 0}";
},
{
name = top;
position = "{368, 686}";
}
);
layerId = UUID0;
name = "Regular Italic";
paths = (
{
closed = 1;
nodes = (
"45 72 OFFCURVE",
"127 -12 OFFCURVE",
"269 -12 CURVE SMOOTH",
"350 -12 OFFCURVE",
"412 22 OFFCURVE",
"458 76 CURVE",
"470 0 LINE",
"552 0 LINE",
"604 373 LINE",
"322 373 LINE",
"306 263 LINE",
"459 263 LINE",
"443 164 OFFCURVE",
"392 98 OFFCURVE",
"297 98 CURVE SMOOTH",
"212 98 OFFCURVE",
"174 156 OFFCURVE",
"174 255 CURVE SMOOTH",
"174 383 OFFCURVE",
"211 588 OFFCURVE",
"372 588 CURVE SMOOTH",
"440 588 OFFCURVE",
"483 542 OFFCURVE",
"483 456 CURVE SMOOTH",
"483 447 LINE",
"613 447 LINE",
"613 616 OFFCURVE",
"518 698 OFFCURVE",
"367 698 CURVE SMOOTH",
"130 698 OFFCURVE",
"45 451 OFFCURVE",
"45 250 CURVE SMOOTH"
);
}
);
width = 638;
}
);
unicode = 0047;
},
{
glyphname = Gbreve;
lastChange = "2015-02-05 02:37:04 +0000";
layers = (
{
layerId = UUID0;
name = "Regular Italic";
paths = (
{
closed = 1;
nodes = (
"45 72 OFFCURVE",
"127 -12 OFFCURVE",
"269 -12 CURVE SMOOTH",
"350 -12 OFFCURVE",
"412 22 OFFCURVE",
"458 76 CURVE",
"470 0 LINE",
"552 0 LINE",
"604 373 LINE",
"322 373 LINE",
"306 263 LINE",
"459 263 LINE",
"443 164 OFFCURVE",
"392 98 OFFCURVE",
"297 98 CURVE SMOOTH",
"212 98 OFFCURVE",
"174 156 OFFCURVE",
"174 255 CURVE SMOOTH",
"174 383 OFFCURVE",
"211 588 OFFCURVE",
"372 588 CURVE SMOOTH",
"440 588 OFFCURVE",
"483 542 OFFCURVE",
"483 456 CURVE SMOOTH",
"483 447 LINE",
"613 447 LINE",
"613 616 OFFCURVE",
"518 698 OFFCURVE",
"367 698 CURVE SMOOTH",
"130 698 OFFCURVE",
"45 451 OFFCURVE",
"45 250 CURVE SMOOTH"
);
},
{
closed = 1;
nodes = (
"466 776 OFFCURVE",
"523 833 OFFCURVE",
"530 883 CURVE",
"456 883 LINE",
"452 869 OFFCURVE",
"425 850 OFFCURVE",
"391 850 CURVE SMOOTH",
"358 850 OFFCURVE",
"338 869 OFFCURVE",
"337 883 CURVE",
"263 883 LINE",
"262 879 OFFCURVE",
"262 876 OFFCURVE",
"262 872 CURVE SMOOTH",
"262 825 OFFCURVE",
"307 776 OFFCURVE",
"386 776 CURVE SMOOTH"
);
}
);
width = 638;
}
);
unicode = 011E;
},
{
glyphname = Gcircumflex;
lastChange = "2015-02-05 02:37:04 +0000";
layers = (
{
layerId = UUID0;
name = "Regular Italic";
paths = (
{
closed = 1;
nodes = (
"45 72 OFFCURVE",
"127 -12 OFFCURVE",
"269 -12 CURVE SMOOTH",
"350 -12 OFFCURVE",
"412 22 OFFCURVE",
"458 76 CURVE",
"470 0 LINE",
"552 0 LINE",
"604 373 LINE",
"322 373 LINE",
"306 263 LINE",
"459 263 LINE",
"443 164 OFFCURVE",
"392 98 OFFCURVE",
"297 98 CURVE SMOOTH",
"212 98 OFFCURVE",
"174 156 OFFCURVE",
"174 255 CURVE SMOOTH",
"174 383 OFFCURVE",
"211 588 OFFCURVE",
"372 588 CURVE SMOOTH",
"440 588 OFFCURVE",
"483 542 OFFCURVE",
"483 456 CURVE SMOOTH",
"483 447 LINE",
"613 447 LINE",
"613 616 OFFCURVE",
"518 698 OFFCURVE",
"367 698 CURVE SMOOTH",
"130 698 OFFCURVE",
"45 451 OFFCURVE",
"45 250 CURVE SMOOTH"
);
},
{
closed = 1;
nodes = (
"347 883 LINE",
"243 748 LINE",
"336 748 LINE",
"387 817 LINE",
"421 748 LINE",
"511 748 LINE",
"445 883 LINE"
);
}
);
width = 638;
}
);
unicode = 011C;
},
{
glyphname = Gcommaaccent;
lastChange = "2015-02-05 02:37:04 +0000";
layers = (
{
layerId = UUID0;
name = "Regular Italic";
paths = (
{
closed = 1;
nodes = (
"45 72 OFFCURVE",
"127 -12 OFFCURVE",
"269 -12 CURVE SMOOTH",
"350 -12 OFFCURVE",
"412 22 OFFCURVE",
"458 76 CURVE",
"470 0 LINE",
"552 0 LINE",
"604 373 LINE",
"322 373 LINE",
"306 263 LINE",
"459 263 LINE",
"443 164 OFFCURVE",
"392 98 OFFCURVE",
"297 98 CURVE SMOOTH",
"212 98 OFFCURVE",
"174 156 OFFCURVE",
"174 255 CURVE SMOOTH",
"174 383 OFFCURVE",
"211 588 OFFCURVE",
"372 588 CURVE SMOOTH",
"440 588 OFFCURVE",
"483 542 OFFCURVE",
"483 456 CURVE SMOOTH",
"483 447 LINE",
"613 447 LINE",
"613 616 OFFCURVE",
"518 698 OFFCURVE",
"367 698 CURVE SMOOTH",
"130 698 OFFCURVE",
"45 451 OFFCURVE",
"45 250 CURVE SMOOTH"
);
},
{
closed = 1;
nodes = (
"327 -55 LINE",
"203 -55 LINE",
"186 -178 LINE",
"231 -178 LINE",
"185 -263 LINE",
"250 -263 LINE",
"311 -167 LINE"
);
}
);
width = 638;
}
);
unicode = 0122;
},
{
glyphname = Gdotaccent;
lastChange = "2015-02-05 02:37:04 +0000";
layers = (
{
layerId = UUID0;
name = "Regular Italic";
paths = (
{
closed = 1;
nodes = (
"45 72 OFFCURVE",
"127 -12 OFFCURVE",
"269 -12 CURVE SMOOTH",
"350 -12 OFFCURVE",
"412 22 OFFCURVE",
"458 76 CURVE",
"470 0 LINE",
"552 0 LINE",
"604 373 LINE",
"322 373 LINE",
"306 263 LINE",
"459 263 LINE",
"443 164 OFFCURVE",
"392 98 OFFCURVE",
"297 98 CURVE SMOOTH",
"212 98 OFFCURVE",
"174 156 OFFCURVE",
"174 255 CURVE SMOOTH",
"174 383 OFFCURVE",
"211 588 OFFCURVE",
"372 588 CURVE SMOOTH",
"440 588 OFFCURVE",
"483 542 OFFCURVE",
"483 456 CURVE SMOOTH",
"483 447 LINE",
"613 447 LINE",
"613 616 OFFCURVE",
"518 698 OFFCURVE",
"367 698 CURVE SMOOTH",
"130 698 OFFCURVE",
"45 451 OFFCURVE",
"45 250 CURVE SMOOTH"
);
},
{
closed = 1;
nodes = (
"343 883 LINE",
"326 768 LINE",
"433 768 LINE",
"450 883 LINE"
);
}
);
width = 638;
}
);
unicode = 0120;
},
{
color = (31,255,0,1);
glyphname = H;
lastChange = "2015-02-05 02:37:04 +0000";
layers = (
{
anchors = (
{
name = center;
position = "{310, 343}";
},
{
name = top;
position = "{359, 686}";
}
);
background = {
paths = (
{
closed = 1;
nodes = (
"114 686 LINE",
"18 0 LINE",
"145 0 LINE",
"186 294 LINE",
"420 294 LINE",
"378 0 LINE",
"505 0 LINE",
"601 686 LINE",
"474 686 LINE",
"436 408 LINE",
"202 408 LINE",
"241 686 LINE"
);
}
);
};
layerId = UUID0;
name = "Regular Italic";
paths = (
{
closed = 1;
nodes = (
"368 0 LINE",
"495 0 LINE",
"591 686 LINE",
"464 686 LINE",
"426 408 LINE",
"212 408 LINE",
"251 686 LINE",
"124 686 LINE",
"28 0 LINE",
"155 0 LINE",
"196 294 LINE",
"410 294 LINE"
);
}
);
width = 592;
}
);
unicode = 0048;
},
{
color = (31,255,0,1);
glyphname = Hbar;
lastChange = "2015-02-05 02:37:04 +0000";
layers = (
{
background = {
paths = (
{
closed = 1;
nodes = (
"368 0 LINE",
"495 0 LINE",
"591 686 LINE",
"464 686 LINE",
"426 408 LINE",
"212 408 LINE",
"251 686 LINE",
"124 686 LINE",
"28 0 LINE",
"155 0 LINE",
"196 294 LINE",
"410 294 LINE"
);
}
);
};
layerId = UUID0;
name = "Regular Italic";
paths = (
{
closed = 1;
nodes = (
"124 686 LINE",
"109 577 LINE",
"60 577 LINE",
"47 490 LINE",
"96 490 LINE",
"28 0 LINE",
"155 0 LINE",
"195 286 LINE",
"409 286 LINE",
"368 0 LINE",
"495 0 LINE",
"563 490 LINE",
"611 490 LINE",
"625 577 LINE",
"575 577 LINE",
"591 686 LINE",
"464 686 LINE",
"449 577 LINE",
"236 577 LINE",
"251 686 LINE"
);
},
{
closed = 1;
nodes = (
"211 400 LINE",
"223 490 LINE",
"437 490 LINE",
"425 400 LINE"
);
}
);
width = 592;
}
);
unicode = 0126;
},
{
color = (31,255,0,1);
glyphname = Hcircumflex;
lastChange = "2015-02-05 02:37:04 +0000";
layers = (
{
background = {
paths = (
{
closed = 1;
nodes = (
"114 686 LINE",
"18 0 LINE",
"145 0 LINE",
"186 294 LINE",
"420 294 LINE",
"378 0 LINE",
"505 0 LINE",
"601 686 LINE",
"474 686 LINE",
"436 408 LINE",
"202 408 LINE",
"241 686 LINE"
);
}
);
};
layerId = UUID0;
name = "Regular Italic";
paths = (
{
closed = 1;
nodes = (
"338 883 LINE",
"234 748 LINE",
"327 748 LINE",
"378 817 LINE",
"412 748 LINE",
"502 748 LINE",
"436 883 LINE"
);
},
{
closed = 1;
nodes = (
"368 0 LINE",
"495 0 LINE",
"591 686 LINE",
"464 686 LINE",
"426 408 LINE",
"212 408 LINE",
"251 686 LINE",
"124 686 LINE",
"28 0 LINE",
"155 0 LINE",
"196 294 LINE",
"410 294 LINE"
);
}
);
width = 592;
}
);
unicode = 0124;
},
{
glyphname = I;
lastChange = "2015-02-05 02:37:04 +0000";
layers = (
{
anchors = (
{
name = ogonek;
position = "{145, 0}";
},
{
name = top;
position = "{178, 686}";
}
);
layerId = UUID0;
name = "Regular Italic";
paths = (
{
closed = 1;
nodes = (
"114 686 LINE",
"18 0 LINE",
"145 0 LINE",
"241 686 LINE"
);
}
);
width = 228;
}
);
unicode = 0049;
},
{
color = (31,255,0,1);
glyphname = IJ;
lastChange = "2015-02-05 02:37:04 +0000";
layers = (
{
background = {
paths = (
{
closed = 1;
nodes = (
"226 37 OFFCURVE",
"294 -12 OFFCURVE",
"416 -12 CURVE SMOOTH",
"532 -12 OFFCURVE",
"605 49 OFFCURVE",
"621 163 CURVE SMOOTH",
"695 686 LINE",
"568 686 LINE",
"496 173 LINE SMOOTH",
"489 125 OFFCURVE",
"465 98 OFFCURVE",
"421 98 CURVE SMOOTH",
"377 98 OFFCURVE",
"354 119 OFFCURVE",
"354 158 CURVE SMOOTH",
"354 162 OFFCURVE",
"354 168 OFFCURVE",
"361 216 CURVE",
"236 216 LINE",
"227 151 OFFCURVE",
"226 140 OFFCURVE",
"226 129 CURVE SMOOTH"
);
}
);
};
layerId = UUID0;
name = "Regular Italic";
paths = (
{
closed = 1;
nodes = (
"114 686 LINE",
"18 0 LINE",
"145 0 LINE",
"241 686 LINE"
);
},
{
closed = 1;
nodes = (
"240 216 LINE",
"231 151 OFFCURVE",
"230 140 OFFCURVE",
"230 129 CURVE SMOOTH",
"230 37 OFFCURVE",
"297 -12 OFFCURVE",
"416 -12 CURVE SMOOTH",
"526 -12 OFFCURVE",
"595 49 OFFCURVE",
"611 163 CURVE SMOOTH",
"685 686 LINE",
"558 686 LINE",
"486 173 LINE SMOOTH",
"479 125 OFFCURVE",
"457 98 OFFCURVE",
"416 98 CURVE SMOOTH",
"375 98 OFFCURVE",
"354 119 OFFCURVE",
"354 158 CURVE SMOOTH",
"354 162 OFFCURVE",
"354 168 OFFCURVE",
"361 216 CURVE"
);
}
);
width = 684;
}
);
unicode = 0132;
},
{
glyphname = Iacute;
lastChange = "2015-02-05 02:37:04 +0000";
layers = (
{
layerId = UUID0;
name = "Regular Italic";
paths = (
{
closed = 1;
nodes = (
"114 686 LINE",
"18 0 LINE",
"145 0 LINE",
"241 686 LINE"
);
},
{
closed = 1;
nodes = (
"210 883 LINE",
"124 751 LINE",
"223 751 LINE",
"331 880 LINE",
"330 883 LINE"
);
}
);
width = 228;
}
);
unicode = 00CD;
},
{
glyphname = Ibreve;
lastChange = "2015-02-05 02:37:04 +0000";
layers = (
{
layerId = UUID0;
name = "Regular Italic";
paths = (
{
closed = 1;
nodes = (
"114 686 LINE",
"18 0 LINE",
"145 0 LINE",
"241 686 LINE"
);
},
{
closed = 1;
nodes = (
"275 776 OFFCURVE",
"332 833 OFFCURVE",
"339 883 CURVE",
"265 883 LINE",
"261 869 OFFCURVE",
"234 850 OFFCURVE",
"200 850 CURVE SMOOTH",
"167 850 OFFCURVE",
"147 869 OFFCURVE",
"146 883 CURVE",
"72 883 LINE",
"71 879 OFFCURVE",
"71 876 OFFCURVE",
"71 872 CURVE SMOOTH",
"71 825 OFFCURVE",
"116 776 OFFCURVE",
"195 776 CURVE SMOOTH"
);
}
);
width = 228;
}
);
unicode = 012C;
},
{
glyphname = Icircumflex;
lastChange = "2015-02-05 02:37:04 +0000";
layers = (
{
layerId = UUID0;
name = "Regular Italic";
paths = (
{
closed = 1;
nodes = (
"114 686 LINE",
"18 0 LINE",
"145 0 LINE",
"241 686 LINE"
);
},
{
closed = 1;
nodes = (
"156 883 LINE",
"52 748 LINE",
"145 748 LINE",
"196 817 LINE",
"230 748 LINE",
"320 748 LINE",
"254 883 LINE"
);
}
);
width = 228;
}
);
unicode = 00CE;
},
{
glyphname = Idieresis;
lastChange = "2015-02-05 02:37:04 +0000";
layers = (
{
layerId = UUID0;
name = "Regular Italic";
paths = (
{
closed = 1;
nodes = (
"114 686 LINE",
"18 0 LINE",
"145 0 LINE",
"241 686 LINE"
);
},
{
closed = 1;
nodes = (
"243 883 LINE",
"228 774 LINE",
"328 774 LINE",
"343 883 LINE"
);
},
{
closed = 1;
nodes = (
"68 883 LINE",
"54 774 LINE",
"153 774 LINE",
"168 883 LINE"
);
}
);
width = 228;
}
);
unicode = 00CF;
},
{
glyphname = Idotaccent;
lastChange = "2015-02-05 02:37:04 +0000";
layers = (
{
layerId = UUID0;
name = "Regular Italic";
paths = (
{
closed = 1;
nodes = (
"114 686 LINE",
"18 0 LINE",
"145 0 LINE",
"241 686 LINE"
);
},
{
closed = 1;
nodes = (
"153 883 LINE",
"136 768 LINE",
"243 768 LINE",
"260 883 LINE"
);
}
);
width = 228;
}
);
unicode = 0130;
},
{
glyphname = Igrave;
lastChange = "2015-02-05 02:37:04 +0000";
layers = (
{
layerId = UUID0;
name = "Regular Italic";
paths = (
{
closed = 1;
nodes = (
"114 686 LINE",
"18 0 LINE",
"145 0 LINE",
"241 686 LINE"
);
},
{
closed = 1;
nodes = (
"67 880 LINE",
"157 751 LINE",
"256 751 LINE",
"189 883 LINE",
"69 883 LINE"
);
}
);
width = 228;
}
);
unicode = 00CC;
},
{
glyphname = Imacron;
lastChange = "2015-02-05 02:37:04 +0000";
layers = (
{
layerId = UUID0;
name = "Regular Italic";
paths = (
{
closed = 1;
nodes = (
"114 686 LINE",
"18 0 LINE",
"145 0 LINE",
"241 686 LINE"
);
},
{
closed = 1;
nodes = (
"72 846 LINE",
"59 759 LINE",
"314 759 LINE",
"327 846 LINE"
);
}
);
width = 228;
}
);
unicode = 012A;
},
{
glyphname = Iogonek;
lastChange = "2015-02-05 02:37:04 +0000";
layers = (
{
layerId = UUID0;
name = "Regular Italic";
paths = (
{
closed = 1;
nodes = (
"2 -172 OFFCURVE",
"47 -190 OFFCURVE",
"89 -190 CURVE SMOOTH",
"111 -190 OFFCURVE",
"133 -185 OFFCURVE",
"157 -176 CURVE",
"165 -121 LINE",
"143 -121 LINE SMOOTH",
"115 -121 OFFCURVE",
"104 -103 OFFCURVE",
"104 -81 CURVE SMOOTH",
"104 -49 OFFCURVE",
"129 -16 OFFCURVE",
"145 0 CURVE",
"241 686 LINE",
"114 686 LINE",
"18 0 LINE",
"60 0 LINE",
"29 -26 OFFCURVE",
"2 -60 OFFCURVE",
"2 -113 CURVE SMOOTH"
);
}
);
width = 228;
}
);
unicode = 012E;
},
{
glyphname = Itilde;
lastChange = "2015-02-05 02:37:04 +0000";
layers = (
{
layerId = UUID0;
name = "Regular Italic";
paths = (
{
closed = 1;
nodes = (
"114 686 LINE",
"18 0 LINE",
"145 0 LINE",
"241 686 LINE"
);
},
{
closed = 1;
nodes = (
"91 761 LINE",
"99 788 OFFCURVE",
"114 798 OFFCURVE",
"135 798 CURVE SMOOTH",
"179 798 OFFCURVE",
"213 761 OFFCURVE",
"260 761 CURVE SMOOTH",
"331 761 OFFCURVE",
"375 828 OFFCURVE",
"375 883 CURVE",
"310 883 LINE",
"302 855 OFFCURVE",
"287 846 OFFCURVE",
"266 846 CURVE SMOOTH",
"222 846 OFFCURVE",
"188 883 OFFCURVE",
"140 883 CURVE SMOOTH",
"70 883 OFFCURVE",
"27 814 OFFCURVE",
"27 761 CURVE"
);
}
);
width = 228;
}
);
unicode = 0128;
},
{
color = (31,255,0,1);
glyphname = J;
lastChange = "2015-02-05 02:37:04 +0000";
layers = (
{
anchors = (
{
name = top;
position = "{402, 686}";
}
);
background = {
paths = (
{
closed = 1;
nodes = (
"-2 37 OFFCURVE",
"66 -12 OFFCURVE",
"188 -12 CURVE SMOOTH",
"304 -12 OFFCURVE",
"377 49 OFFCURVE",
"393 163 CURVE SMOOTH",
"467 686 LINE",
"340 686 LINE",
"268 173 LINE SMOOTH",
"261 125 OFFCURVE",
"237 98 OFFCURVE",
"193 98 CURVE SMOOTH",
"149 98 OFFCURVE",
"126 119 OFFCURVE",
"126 158 CURVE SMOOTH",
"126 162 OFFCURVE",
"126 168 OFFCURVE",
"133 216 CURVE",
"8 216 LINE",
"-1 151 OFFCURVE",
"-2 140 OFFCURVE",
"-2 129 CURVE SMOOTH"
);
}
);
};
layerId = UUID0;
name = "Regular Italic";
paths = (
{
closed = 1;
nodes = (
"12 216 LINE",
"3 151 OFFCURVE",
"2 140 OFFCURVE",
"2 129 CURVE SMOOTH",
"2 37 OFFCURVE",
"69 -12 OFFCURVE",
"188 -12 CURVE SMOOTH",
"298 -12 OFFCURVE",
"367 49 OFFCURVE",
"383 163 CURVE SMOOTH",
"457 686 LINE",
"330 686 LINE",
"258 173 LINE SMOOTH",
"251 125 OFFCURVE",
"229 98 OFFCURVE",
"188 98 CURVE SMOOTH",
"147 98 OFFCURVE",
"126 119 OFFCURVE",
"126 158 CURVE SMOOTH",
"126 162 OFFCURVE",
"126 168 OFFCURVE",
"133 216 CURVE"
);
}
);
width = 456;
}
);
unicode = 004A;
},
{
color = (31,255,0,1);
glyphname = Jcircumflex;
lastChange = "2015-02-05 02:37:04 +0000";
layers = (
{
background = {
paths = (
{
closed = 1;
nodes = (
"-2 37 OFFCURVE",
"66 -12 OFFCURVE",
"188 -12 CURVE SMOOTH",
"304 -12 OFFCURVE",
"377 49 OFFCURVE",
"393 163 CURVE SMOOTH",
"467 686 LINE",
"340 686 LINE",
"268 173 LINE SMOOTH",
"261 125 OFFCURVE",
"237 98 OFFCURVE",
"193 98 CURVE SMOOTH",
"149 98 OFFCURVE",
"126 119 OFFCURVE",
"126 158 CURVE SMOOTH",
"126 162 OFFCURVE",
"126 168 OFFCURVE",
"133 216 CURVE",
"8 216 LINE",
"-1 151 OFFCURVE",
"-2 140 OFFCURVE",
"-2 129 CURVE SMOOTH"
);
}
);
};
layerId = UUID0;
name = "Regular Italic";
paths = (
{
closed = 1;
nodes = (
"381 883 LINE",
"277 748 LINE",
"370 748 LINE",
"421 817 LINE",
"455 748 LINE",
"545 748 LINE",
"479 883 LINE"
);
},
{
closed = 1;
nodes = (
"12 216 LINE",
"3 151 OFFCURVE",
"2 140 OFFCURVE",
"2 129 CURVE SMOOTH",
"2 37 OFFCURVE",
"69 -12 OFFCURVE",
"188 -12 CURVE SMOOTH",
"298 -12 OFFCURVE",
"367 49 OFFCURVE",
"383 163 CURVE SMOOTH",
"457 686 LINE",
"330 686 LINE",
"258 173 LINE SMOOTH",
"251 125 OFFCURVE",
"229 98 OFFCURVE",
"188 98 CURVE SMOOTH",
"147 98 OFFCURVE",
"126 119 OFFCURVE",
"126 158 CURVE SMOOTH",
"126 162 OFFCURVE",
"126 168 OFFCURVE",
"133 216 CURVE"
);
}
);
width = 456;
}
);
unicode = 0134;
},
{
color = (31,255,0,1);
glyphname = K;
lastChange = "2015-02-05 02:37:04 +0000";
layers = (
{
anchors = (
{
name = bottom;
position = "{262, 0}";
},
{
name = top;
position = "{359, 686}";
}
);
background = {
paths = (
{
closed = 1;
nodes = (
"114 686 LINE",
"18 0 LINE",
"146 0 LINE",
"169 166 LINE",
"296 288 LINE",
"411 0 LINE",
"552 0 LINE",
"389 393 LINE",
"642 686 LINE",
"492 686 LINE",
"193 340 LINE",
"242 686 LINE"
);
}
);
};
layerId = UUID0;
name = "Regular Italic";
paths = (
{
closed = 1;
nodes = (
"252 686 LINE",
"124 686 LINE",
"28 0 LINE",
"156 0 LINE",
"180 175 LINE",
"304 307 LINE",
"412 0 LINE",
"552 0 LINE",
"399 405 LINE",
"642 686 LINE",
"492 686 LINE",
"204 348 LINE"
);
}
);
width = 592;
}
);
unicode = 004B;
},
{
color = (31,255,0,1);
glyphname = Kcommaaccent;
lastChange = "2015-02-05 02:37:04 +0000";
layers = (
{
background = {
paths = (
{
closed = 1;
nodes = (
"114 686 LINE",
"18 0 LINE",
"146 0 LINE",
"169 166 LINE",
"296 288 LINE",
"411 0 LINE",
"552 0 LINE",
"389 393 LINE",
"642 686 LINE",
"492 686 LINE",
"193 340 LINE",
"242 686 LINE"
);
}
);
};
layerId = UUID0;
name = "Regular Italic";
paths = (
{
closed = 1;
nodes = (
"317 -55 LINE",
"193 -55 LINE",
"176 -178 LINE",
"221 -178 LINE",
"175 -263 LINE",
"240 -263 LINE",
"301 -167 LINE"
);
},
{
closed = 1;
nodes = (
"252 686 LINE",
"124 686 LINE",
"28 0 LINE",
"156 0 LINE",
"180 175 LINE",
"304 307 LINE",
"412 0 LINE",
"552 0 LINE",
"399 405 LINE",
"642 686 LINE",
"492 686 LINE",
"204 348 LINE"
);
}
);
width = 592;
}
);
unicode = 0136;
},
{
color = (31,255,0,1);
glyphname = L;
lastChange = "2015-02-05 02:37:04 +0000";
layers = (
{
anchors = (
{
name = bottom;
position = "{262, 0}";
},
{
name = top;
position = "{180, 686}";
}
);
background = {
paths = (
{
closed = 1;
nodes = (
"114 686 LINE",
"18 0 LINE",
"471 0 LINE",
"452 120 LINE",
"162 120 LINE",
"241 686 LINE"
);
}
);
};
layerId = UUID0;
name = "Regular Italic";
paths = (
{
closed = 1;
nodes = (
"28 0 LINE",
"442 0 LINE",
"459 120 LINE",
"172 120 LINE",
"251 686 LINE",
"124 686 LINE"
);
}
);
width = 501;
}
);
unicode = 004C;
},
{
color = (31,255,0,1);
glyphname = Lacute;
lastChange = "2015-02-05 02:37:04 +0000";
layers = (
{
background = {
paths = (
{
closed = 1;
nodes = (
"114 686 LINE",
"18 0 LINE",
"471 0 LINE",
"452 120 LINE",
"162 120 LINE",
"241 686 LINE"
);
}
);
};
layerId = UUID0;
name = "Regular Italic";
paths = (
{
closed = 1;
nodes = (
"213 883 LINE",
"127 751 LINE",
"226 751 LINE",
"334 880 LINE",
"333 883 LINE"
);
},
{
closed = 1;
nodes = (
"28 0 LINE",
"442 0 LINE",
"459 120 LINE",
"172 120 LINE",
"251 686 LINE",
"124 686 LINE"
);
}
);
width = 501;
}
);
unicode = 0139;
},
{
color = (31,255,0,1);
glyphname = Lcaron;
lastChange = "2015-02-05 02:37:04 +0000";
layers = (
{
background = {
paths = (
{
closed = 1;
nodes = (
"114 686 LINE",
"18 0 LINE",
"471 0 LINE",
"452 120 LINE",
"162 120 LINE",
"241 686 LINE"
);
}
);
};
layerId = UUID0;
name = "Regular Italic";
paths = (
{
closed = 1;
nodes = (
"383 549 LINE",
"310 393 LINE",
"382 393 LINE",
"472 561 LINE",
"489 686 LINE",
"351 686 LINE",
"332 549 LINE"
);
},
{
closed = 1;
nodes = (
"28 0 LINE",
"442 0 LINE",
"459 120 LINE",
"172 120 LINE",
"251 686 LINE",
"124 686 LINE"
);
}
);
width = 501;
}
);
unicode = 013D;
},
{
color = (31,255,0,1);
glyphname = Lcommaaccent;
lastChange = "2015-02-05 02:37:04 +0000";
layers = (
{
background = {
paths = (
{
closed = 1;
nodes = (
"114 686 LINE",
"18 0 LINE",
"471 0 LINE",
"452 120 LINE",
"162 120 LINE",
"241 686 LINE"
);
}
);
};
layerId = UUID0;
name = "Regular Italic";
paths = (
{
closed = 1;
nodes = (
"317 -55 LINE",
"193 -55 LINE",
"176 -178 LINE",
"221 -178 LINE",
"175 -263 LINE",
"240 -263 LINE",
"301 -167 LINE"
);
},
{
closed = 1;
nodes = (
"28 0 LINE",
"442 0 LINE",
"459 120 LINE",
"172 120 LINE",
"251 686 LINE",
"124 686 LINE"
);
}
);
width = 501;
}
);
unicode = 013B;
},
{
color = (31,255,0,1);
glyphname = Ldot;
lastChange = "2015-02-05 02:37:04 +0000";
layers = (
{
background = {
paths = (
{
closed = 1;
nodes = (
"114 686 LINE",
"18 0 LINE",
"471 0 LINE",
"452 120 LINE",
"162 120 LINE",
"241 686 LINE"
);
}
);
};
layerId = UUID0;
name = "Regular Italic";
paths = (
{
closed = 1;
nodes = (
"348 526 LINE",
"332 411 LINE",
"438 411 LINE",
"456 526 LINE"
);
},
{
closed = 1;
nodes = (
"28 0 LINE",
"442 0 LINE",
"459 120 LINE",
"172 120 LINE",
"251 686 LINE",
"124 686 LINE"
);
}
);
width = 501;
}
);
unicode = 013F;
},
{
color = (31,255,0,1);
glyphname = Lslash;
lastChange = "2015-02-05 02:37:04 +0000";
layers = (
{
background = {
paths = (
{
closed = 1;
nodes = (
"28 0 LINE",
"442 0 LINE",
"459 120 LINE",
"172 120 LINE",
"251 686 LINE",
"124 686 LINE"
);
}
);
};
layerId = UUID0;
name = "Regular Italic";
paths = (
{
closed = 1;
nodes = (
"124 686 LINE",
"77 347 LINE",
"3 290 LINE",
"-10 184 LINE",
"62 240 LINE",
"28 0 LINE",
"442 0 LINE",
"459 120 LINE",
"172 120 LINE",
"204 351 LINE",
"333 452 LINE",
"347 560 LINE",
"219 459 LINE",
"251 686 LINE"
);
}
);
width = 501;
}
);
unicode = 0141;
},
{
color = (31,255,0,1);
glyphname = M;
lastChange = "2015-02-05 02:37:04 +0000";
layers = (
{
background = {
paths = (
{
closed = 1;
nodes = (
"109 686 LINE",
"14 0 LINE",
"125 0 LINE",
"187 437 LINE SMOOTH",
"191 464 OFFCURVE",
"197 547 OFFCURVE",
"197 547 CURVE",
"201 547 LINE",
"246 0 LINE",
"358 0 LINE",
"557 547 LINE",
"561 547 LINE",
"561 547 OFFCURVE",
"545 468 OFFCURVE",
"541 437 CURVE SMOOTH",
"480 0 LINE",
"601 0 LINE",
"697 686 LINE",
"515 686 LINE",
"373 300 LINE SMOOTH",
"359 260 OFFCURVE",
"335 145 OFFCURVE",
"335 145 CURVE",
"331 145 LINE",
"331 145 OFFCURVE",
"327 255 OFFCURVE",
"323 300 CURVE SMOOTH",
"291 686 LINE"
);
}
);
};
layerId = UUID0;
name = "Regular Italic";
paths = (
{
closed = 1;
nodes = (
"593 0 LINE",
"689 686 LINE",
"516 686 LINE",
"381 312 LINE SMOOTH",
"366 272 OFFCURVE",
"336 153 OFFCURVE",
"336 153 CURVE",
"332 153 LINE",
"332 153 OFFCURVE",
"329 263 OFFCURVE",
"325 308 CURVE SMOOTH",
"294 686 LINE",
"117 686 LINE",
"21 0 LINE",
"129 0 LINE",
"191 437 LINE SMOOTH",
"195 464 OFFCURVE",
"201 547 OFFCURVE",
"201 547 CURVE",
"205 547 LINE",
"248 0 LINE",
"358 0 LINE",
"553 547 LINE",
"557 547 LINE",
"557 547 OFFCURVE",
"541 468 OFFCURVE",
"537 437 CURVE SMOOTH",
"476 0 LINE"
);
}
);
width = 683;
}
);
unicode = 004D;
},
{
color = (31,255,0,1);
glyphname = N;
lastChange = "2015-02-05 02:37:04 +0000";
layers = (
{
anchors = (
{
name = bottom;
position = "{262, 0}";
},
{
name = top;
position = "{359, 686}";
}
);
background = {
paths = (
{
closed = 1;
nodes = (
"114 686 LINE",
"18 0 LINE",
"136 0 LINE",
"190 388 LINE SMOOTH",
"193 409 OFFCURVE",
"193 455 OFFCURVE",
"193 455 CURVE",
"197 458 LINE",
"197 458 OFFCURVE",
"213 404 OFFCURVE",
"219 388 CURVE",
"390 0 LINE",
"505 0 LINE",
"601 686 LINE",
"482 686 LINE",
"428 298 LINE",
"427 285 OFFCURVE",
"425 231 OFFCURVE",
"425 231 CURVE",
"422 228 LINE",
"422 228 OFFCURVE",
"408 278 OFFCURVE",
"399 298 CURVE SMOOTH",
"229 686 LINE"
);
}
);
};
layerId = UUID0;
name = "Regular Italic";
paths = (
{
closed = 1;
nodes = (
"495 0 LINE",
"591 686 LINE",
"478 686 LINE",
"425 304 LINE SMOOTH",
"423 293 OFFCURVE",
"418 247 OFFCURVE",
"418 247 CURVE",
"415 244 LINE",
"415 244 OFFCURVE",
"400 291 OFFCURVE",
"393 308 CURVE SMOOTH",
"236 686 LINE",
"124 686 LINE",
"28 0 LINE",
"140 0 LINE",
"193 382 LINE SMOOTH",
"196 400 OFFCURVE",
"199 439 OFFCURVE",
"199 439 CURVE",
"203 442 LINE",
"203 442 OFFCURVE",
"219 392 OFFCURVE",
"225 378 CURVE SMOOTH",
"382 0 LINE"
);
}
);
width = 592;
}
);
unicode = 004E;
},
{
color = (31,255,0,1);
glyphname = Nacute;
lastChange = "2015-02-05 02:37:04 +0000";
layers = (
{
background = {
paths = (
{
closed = 1;
nodes = (
"114 686 LINE",
"18 0 LINE",
"136 0 LINE",
"190 388 LINE SMOOTH",
"193 409 OFFCURVE",
"193 455 OFFCURVE",
"193 455 CURVE",
"197 458 LINE",
"197 458 OFFCURVE",
"213 404 OFFCURVE",
"219 388 CURVE",
"390 0 LINE",
"505 0 LINE",
"601 686 LINE",
"482 686 LINE",
"428 298 LINE",
"427 285 OFFCURVE",
"425 231 OFFCURVE",
"425 231 CURVE",
"422 228 LINE",
"422 228 OFFCURVE",
"408 278 OFFCURVE",
"399 298 CURVE SMOOTH",
"229 686 LINE"
);
}
);
};
layerId = UUID0;
name = "Regular Italic";
paths = (
{
closed = 1;
nodes = (
"392 883 LINE",
"306 751 LINE",
"405 751 LINE",
"513 880 LINE",
"512 883 LINE"
);
},
{
closed = 1;
nodes = (
"495 0 LINE",
"591 686 LINE",
"478 686 LINE",
"425 304 LINE SMOOTH",
"423 293 OFFCURVE",
"418 247 OFFCURVE",
"418 247 CURVE",
"415 244 LINE",
"415 244 OFFCURVE",
"400 291 OFFCURVE",
"393 308 CURVE SMOOTH",
"236 686 LINE",
"124 686 LINE",
"28 0 LINE",
"140 0 LINE",
"193 382 LINE SMOOTH",
"196 400 OFFCURVE",
"199 439 OFFCURVE",
"199 439 CURVE",
"203 442 LINE",
"203 442 OFFCURVE",
"219 392 OFFCURVE",
"225 378 CURVE SMOOTH",
"382 0 LINE"
);
}
);
width = 592;
}
);
unicode = 0143;
},
{
color = (31,255,0,1);
glyphname = Ncaron;
lastChange = "2015-02-05 02:37:04 +0000";
layers = (
{
background = {
paths = (
{
closed = 1;
nodes = (
"114 686 LINE",
"18 0 LINE",
"136 0 LINE",
"190 388 LINE SMOOTH",
"193 409 OFFCURVE",
"193 455 OFFCURVE",
"193 455 CURVE",
"197 458 LINE",
"197 458 OFFCURVE",
"213 404 OFFCURVE",
"219 388 CURVE",
"390 0 LINE",
"505 0 LINE",
"601 686 LINE",
"482 686 LINE",
"428 298 LINE",
"427 285 OFFCURVE",
"425 231 OFFCURVE",
"425 231 CURVE",
"422 228 LINE",
"422 228 OFFCURVE",
"408 278 OFFCURVE",
"399 298 CURVE SMOOTH",
"229 686 LINE"
);
}
);
};
layerId = UUID0;
name = "Regular Italic";
paths = (
{
closed = 1;
nodes = (
"251 883 LINE",
"318 748 LINE",
"416 748 LINE",
"520 883 LINE",
"426 883 LINE",
"376 814 LINE",
"341 883 LINE"
);
},
{
closed = 1;
nodes = (
"495 0 LINE",
"591 686 LINE",
"478 686 LINE",
"425 304 LINE SMOOTH",
"423 293 OFFCURVE",
"418 247 OFFCURVE",
"418 247 CURVE",
"415 244 LINE",
"415 244 OFFCURVE",
"400 291 OFFCURVE",
"393 308 CURVE SMOOTH",
"236 686 LINE",
"124 686 LINE",
"28 0 LINE",
"140 0 LINE",
"193 382 LINE SMOOTH",
"196 400 OFFCURVE",
"199 439 OFFCURVE",
"199 439 CURVE",
"203 442 LINE",
"203 442 OFFCURVE",
"219 392 OFFCURVE",
"225 378 CURVE SMOOTH",
"382 0 LINE"
);
}
);
width = 592;
}
);
unicode = 0147;
},
{
color = (31,255,0,1);
glyphname = Ncommaaccent;
lastChange = "2015-02-05 02:37:04 +0000";
layers = (
{
background = {
paths = (
{
closed = 1;
nodes = (
"114 686 LINE",
"18 0 LINE",
"136 0 LINE",
"190 388 LINE SMOOTH",
"193 409 OFFCURVE",
"193 455 OFFCURVE",
"193 455 CURVE",
"197 458 LINE",
"197 458 OFFCURVE",
"213 404 OFFCURVE",
"219 388 CURVE",
"390 0 LINE",
"505 0 LINE",
"601 686 LINE",
"482 686 LINE",
"428 298 LINE",
"427 285 OFFCURVE",
"425 231 OFFCURVE",
"425 231 CURVE",
"422 228 LINE",
"422 228 OFFCURVE",
"408 278 OFFCURVE",
"399 298 CURVE SMOOTH",
"229 686 LINE"
);
}
);
};
layerId = UUID0;
name = "Regular Italic";
paths = (
{
closed = 1;
nodes = (
"317 -55 LINE",
"193 -55 LINE",
"176 -178 LINE",
"221 -178 LINE",
"175 -263 LINE",
"240 -263 LINE",
"301 -167 LINE"
);
},
{
closed = 1;
nodes = (
"495 0 LINE",
"591 686 LINE",
"478 686 LINE",
"425 304 LINE SMOOTH",
"423 293 OFFCURVE",
"418 247 OFFCURVE",
"418 247 CURVE",
"415 244 LINE",
"415 244 OFFCURVE",
"400 291 OFFCURVE",
"393 308 CURVE SMOOTH",
"236 686 LINE",
"124 686 LINE",
"28 0 LINE",
"140 0 LINE",
"193 382 LINE SMOOTH",
"196 400 OFFCURVE",
"199 439 OFFCURVE",
"199 439 CURVE",
"203 442 LINE",
"203 442 OFFCURVE",
"219 392 OFFCURVE",
"225 378 CURVE SMOOTH",
"382 0 LINE"
);
}
);
width = 592;
}
);
unicode = 0145;
},
{
color = (31,255,0,1);
glyphname = Eng;
lastChange = "2015-02-05 02:37:04 +0000";
layers = (
{
background = {
paths = (
{
closed = 1;
nodes = (
"114 686 LINE",
"18 0 LINE",
"136 0 LINE",
"190 388 LINE SMOOTH",
"193 409 OFFCURVE",
"193 455 OFFCURVE",
"193 455 CURVE",
"197 458 LINE",
"197 458 OFFCURVE",
"213 404 OFFCURVE",
"219 388 CURVE",
"388 4 LINE",
"383 -33 LINE SMOOTH",
"378 -64 OFFCURVE",
"361 -81 OFFCURVE",
"330 -81 CURVE SMOOTH",
"287 -81 LINE",
"275 -170 LINE",
"294 -176 OFFCURVE",
"331 -182 OFFCURVE",
"361 -182 CURVE SMOOTH",
"455 -182 OFFCURVE",
"490 -111 OFFCURVE",
"500 -41 CURVE SMOOTH",
"601 686 LINE",
"482 686 LINE",
"428 298 LINE",
"427 285 OFFCURVE",
"425 231 OFFCURVE",
"425 231 CURVE",
"422 228 LINE",
"422 228 OFFCURVE",
"408 278 OFFCURVE",
"399 298 CURVE SMOOTH",
"229 686 LINE"
);
}
);
};
layerId = UUID0;
name = "Regular Italic";
paths = (
{
closed = 1;
nodes = (
"277 -81 LINE",
"265 -170 LINE",
"284 -176 OFFCURVE",
"321 -182 OFFCURVE",
"351 -182 CURVE SMOOTH",
"445 -182 OFFCURVE",
"479 -111 OFFCURVE",
"489 -41 CURVE SMOOTH",
"591 686 LINE",
"478 686 LINE",
"425 304 LINE SMOOTH",
"423 293 OFFCURVE",
"418 247 OFFCURVE",
"418 247 CURVE",
"415 244 LINE",
"415 244 OFFCURVE",
"400 291 OFFCURVE",
"393 308 CURVE SMOOTH",
"236 686 LINE",
"124 686 LINE",
"28 0 LINE",
"140 0 LINE",
"193 382 LINE SMOOTH",
"196 400 OFFCURVE",
"199 439 OFFCURVE",
"199 439 CURVE",
"203 442 LINE",
"203 442 OFFCURVE",
"219 392 OFFCURVE",
"225 378 CURVE SMOOTH",
"379 7 LINE",
"373 -33 LINE SMOOTH",
"368 -64 OFFCURVE",
"351 -81 OFFCURVE",
"320 -81 CURVE"
);
}
);
width = 604;
}
);
unicode = 014A;
},
{
color = (31,255,0,1);
glyphname = Ntilde;
lastChange = "2015-02-05 02:37:04 +0000";
layers = (
{
background = {
paths = (
{
closed = 1;
nodes = (
"114 686 LINE",
"18 0 LINE",
"136 0 LINE",
"190 388 LINE SMOOTH",
"193 409 OFFCURVE",
"193 455 OFFCURVE",
"193 455 CURVE",
"197 458 LINE",
"197 458 OFFCURVE",
"213 404 OFFCURVE",
"219 388 CURVE",
"390 0 LINE",
"505 0 LINE",
"601 686 LINE",
"482 686 LINE",
"428 298 LINE",
"427 285 OFFCURVE",
"425 231 OFFCURVE",
"425 231 CURVE",
"422 228 LINE",
"422 228 OFFCURVE",
"408 278 OFFCURVE",
"399 298 CURVE SMOOTH",
"229 686 LINE"
);
}
);
};
layerId = UUID0;
name = "Regular Italic";
paths = (
{
closed = 1;
nodes = (
"272 761 LINE",
"280 788 OFFCURVE",
"295 798 OFFCURVE",
"316 798 CURVE SMOOTH",
"360 798 OFFCURVE",
"394 761 OFFCURVE",
"441 761 CURVE SMOOTH",
"512 761 OFFCURVE",
"556 828 OFFCURVE",
"556 883 CURVE",
"491 883 LINE",
"483 855 OFFCURVE",
"468 846 OFFCURVE",
"447 846 CURVE SMOOTH",
"403 846 OFFCURVE",
"369 883 OFFCURVE",
"321 883 CURVE SMOOTH",
"251 883 OFFCURVE",
"208 814 OFFCURVE",
"208 761 CURVE"
);
},
{
closed = 1;
nodes = (
"495 0 LINE",
"591 686 LINE",
"478 686 LINE",
"425 304 LINE SMOOTH",
"423 293 OFFCURVE",
"418 247 OFFCURVE",
"418 247 CURVE",
"415 244 LINE",
"415 244 OFFCURVE",
"400 291 OFFCURVE",
"393 308 CURVE SMOOTH",
"236 686 LINE",
"124 686 LINE",
"28 0 LINE",
"140 0 LINE",
"193 382 LINE SMOOTH",
"196 400 OFFCURVE",
"199 439 OFFCURVE",
"199 439 CURVE",
"203 442 LINE",
"203 442 OFFCURVE",
"219 392 OFFCURVE",
"225 378 CURVE SMOOTH",
"382 0 LINE"
);
}
);
width = 592;
}
);
unicode = 00D1;
},
{
glyphname = O;
lastChange = "2015-02-05 02:37:04 +0000";
layers = (
{
anchors = (
{
name = top;
position = "{383, 686}";
}
);
layerId = UUID0;
name = "Regular Italic";
paths = (
{
closed = 1;
nodes = (
"45 72 OFFCURVE",
"139 -12 OFFCURVE",
"299 -12 CURVE SMOOTH",
"536 -12 OFFCURVE",
"623 234 OFFCURVE",
"623 435 CURVE SMOOTH",
"623 614 OFFCURVE",
"528 698 OFFCURVE",
"368 698 CURVE SMOOTH",
"130 698 OFFCURVE",
"45 451 OFFCURVE",
"45 250 CURVE SMOOTH"
);
},
{
closed = 1;
nodes = (
"174 383 OFFCURVE",
"211 588 OFFCURVE",
"373 588 CURVE SMOOTH",
"454 588 OFFCURVE",
"493 530 OFFCURVE",
"493 430 CURVE SMOOTH",
"493 303 OFFCURVE",
"455 98 OFFCURVE",
"294 98 CURVE SMOOTH",
"212 98 OFFCURVE",
"174 156 OFFCURVE",
"174 255 CURVE SMOOTH"
);
}
);
width = 638;
}
);
unicode = 004F;
},
{
glyphname = Oacute;
lastChange = "2015-02-05 02:37:04 +0000";
layers = (
{
layerId = UUID0;
name = "Regular Italic";
paths = (
{
closed = 1;
nodes = (
"45 72 OFFCURVE",
"139 -12 OFFCURVE",
"299 -12 CURVE SMOOTH",
"536 -12 OFFCURVE",
"623 234 OFFCURVE",
"623 435 CURVE SMOOTH",
"623 614 OFFCURVE",
"528 698 OFFCURVE",
"368 698 CURVE SMOOTH",
"130 698 OFFCURVE",
"45 451 OFFCURVE",
"45 250 CURVE SMOOTH"
);
},
{
closed = 1;
nodes = (
"174 383 OFFCURVE",
"211 588 OFFCURVE",
"373 588 CURVE SMOOTH",
"454 588 OFFCURVE",
"493 530 OFFCURVE",
"493 430 CURVE SMOOTH",
"493 303 OFFCURVE",
"455 98 OFFCURVE",
"294 98 CURVE SMOOTH",
"212 98 OFFCURVE",
"174 156 OFFCURVE",
"174 255 CURVE SMOOTH"
);
},
{
closed = 1;
nodes = (
"416 883 LINE",
"330 751 LINE",
"429 751 LINE",
"537 880 LINE",
"536 883 LINE"
);
}
);
width = 638;
}
);
unicode = 00D3;
},
{
glyphname = Obreve;
lastChange = "2015-02-05 02:37:04 +0000";
layers = (
{
layerId = UUID0;
name = "Regular Italic";
paths = (
{
closed = 1;
nodes = (
"45 72 OFFCURVE",
"139 -12 OFFCURVE",
"299 -12 CURVE SMOOTH",
"536 -12 OFFCURVE",
"623 234 OFFCURVE",
"623 435 CURVE SMOOTH",
"623 614 OFFCURVE",
"528 698 OFFCURVE",
"368 698 CURVE SMOOTH",
"130 698 OFFCURVE",
"45 451 OFFCURVE",
"45 250 CURVE SMOOTH"
);
},
{
closed = 1;
nodes = (
"174 383 OFFCURVE",
"211 588 OFFCURVE",
"373 588 CURVE SMOOTH",
"454 588 OFFCURVE",
"493 530 OFFCURVE",
"493 430 CURVE SMOOTH",
"493 303 OFFCURVE",
"455 98 OFFCURVE",
"294 98 CURVE SMOOTH",
"212 98 OFFCURVE",
"174 156 OFFCURVE",
"174 255 CURVE SMOOTH"
);
},
{
closed = 1;
nodes = (
"481 776 OFFCURVE",
"538 833 OFFCURVE",
"545 883 CURVE",
"471 883 LINE",
"467 869 OFFCURVE",
"440 850 OFFCURVE",
"406 850 CURVE SMOOTH",
"373 850 OFFCURVE",
"353 869 OFFCURVE",
"352 883 CURVE",
"278 883 LINE",
"277 879 OFFCURVE",
"277 876 OFFCURVE",
"277 872 CURVE SMOOTH",
"277 825 OFFCURVE",
"322 776 OFFCURVE",
"401 776 CURVE SMOOTH"
);
}
);
width = 638;
}
);
unicode = 014E;
},
{
glyphname = Ocircumflex;
lastChange = "2015-02-05 02:37:04 +0000";
layers = (
{
layerId = UUID0;
name = "Regular Italic";
paths = (
{
closed = 1;
nodes = (
"45 72 OFFCURVE",
"139 -12 OFFCURVE",
"299 -12 CURVE SMOOTH",
"536 -12 OFFCURVE",
"623 234 OFFCURVE",
"623 435 CURVE SMOOTH",
"623 614 OFFCURVE",
"528 698 OFFCURVE",
"368 698 CURVE SMOOTH",
"130 698 OFFCURVE",
"45 451 OFFCURVE",
"45 250 CURVE SMOOTH"
);
},
{
closed = 1;
nodes = (
"174 383 OFFCURVE",
"211 588 OFFCURVE",
"373 588 CURVE SMOOTH",
"454 588 OFFCURVE",
"493 530 OFFCURVE",
"493 430 CURVE SMOOTH",
"493 303 OFFCURVE",
"455 98 OFFCURVE",
"294 98 CURVE SMOOTH",
"212 98 OFFCURVE",
"174 156 OFFCURVE",
"174 255 CURVE SMOOTH"
);
},
{
closed = 1;
nodes = (
"362 883 LINE",
"258 748 LINE",
"351 748 LINE",
"402 817 LINE",
"436 748 LINE",
"526 748 LINE",
"460 883 LINE"
);
}
);
width = 638;
}
);
unicode = 00D4;
},
{
glyphname = Odieresis;
lastChange = "2015-02-05 02:37:04 +0000";
layers = (
{
layerId = UUID0;
name = "Regular Italic";
paths = (
{
closed = 1;
nodes = (
"45 72 OFFCURVE",
"139 -12 OFFCURVE",
"299 -12 CURVE SMOOTH",
"536 -12 OFFCURVE",
"623 234 OFFCURVE",
"623 435 CURVE SMOOTH",
"623 614 OFFCURVE",
"528 698 OFFCURVE",
"368 698 CURVE SMOOTH",
"130 698 OFFCURVE",
"45 451 OFFCURVE",
"45 250 CURVE SMOOTH"
);
},
{
closed = 1;
nodes = (
"174 383 OFFCURVE",
"211 588 OFFCURVE",
"373 588 CURVE SMOOTH",
"454 588 OFFCURVE",
"493 530 OFFCURVE",
"493 430 CURVE SMOOTH",
"493 303 OFFCURVE",
"455 98 OFFCURVE",
"294 98 CURVE SMOOTH",
"212 98 OFFCURVE",
"174 156 OFFCURVE",
"174 255 CURVE SMOOTH"
);
},
{
closed = 1;
nodes = (
"449 883 LINE",
"434 774 LINE",
"534 774 LINE",
"549 883 LINE"
);
},
{
closed = 1;
nodes = (
"274 883 LINE",
"260 774 LINE",
"359 774 LINE",
"374 883 LINE"
);
}
);
width = 638;
}
);
unicode = 00D6;
},
{
glyphname = Ograve;
lastChange = "2015-02-05 02:37:04 +0000";
layers = (
{
layerId = UUID0;
name = "Regular Italic";
paths = (
{
closed = 1;
nodes = (
"45 72 OFFCURVE",
"139 -12 OFFCURVE",
"299 -12 CURVE SMOOTH",
"536 -12 OFFCURVE",
"623 234 OFFCURVE",
"623 435 CURVE SMOOTH",
"623 614 OFFCURVE",
"528 698 OFFCURVE",
"368 698 CURVE SMOOTH",
"130 698 OFFCURVE",
"45 451 OFFCURVE",
"45 250 CURVE SMOOTH"
);
},
{
closed = 1;
nodes = (
"174 383 OFFCURVE",
"211 588 OFFCURVE",
"373 588 CURVE SMOOTH",
"454 588 OFFCURVE",
"493 530 OFFCURVE",
"493 430 CURVE SMOOTH",
"493 303 OFFCURVE",
"455 98 OFFCURVE",
"294 98 CURVE SMOOTH",
"212 98 OFFCURVE",
"174 156 OFFCURVE",
"174 255 CURVE SMOOTH"
);
},
{
closed = 1;
nodes = (
"273 880 LINE",
"363 751 LINE",
"462 751 LINE",
"395 883 LINE",
"275 883 LINE"
);
}
);
width = 638;
}
);
unicode = 00D2;
},
{
glyphname = Ohungarumlaut;
lastChange = "2015-02-05 02:37:04 +0000";
layers = (
{
layerId = UUID0;
name = "Regular Italic";
paths = (
{
closed = 1;
nodes = (
"45 72 OFFCURVE",
"139 -12 OFFCURVE",
"299 -12 CURVE SMOOTH",
"536 -12 OFFCURVE",
"623 234 OFFCURVE",
"623 435 CURVE SMOOTH",
"623 614 OFFCURVE",
"528 698 OFFCURVE",
"368 698 CURVE SMOOTH",
"130 698 OFFCURVE",
"45 451 OFFCURVE",
"45 250 CURVE SMOOTH"
);
},
{
closed = 1;
nodes = (
"174 383 OFFCURVE",
"211 588 OFFCURVE",
"373 588 CURVE SMOOTH",
"454 588 OFFCURVE",
"493 530 OFFCURVE",
"493 430 CURVE SMOOTH",
"493 303 OFFCURVE",
"455 98 OFFCURVE",
"294 98 CURVE SMOOTH",
"212 98 OFFCURVE",
"174 156 OFFCURVE",
"174 255 CURVE SMOOTH"
);
},
{
closed = 1;
nodes = (
"475 883 LINE",
"413 751 LINE",
"492 751 LINE",
"576 880 LINE",
"575 883 LINE"
);
},
{
closed = 1;
nodes = (
"335 883 LINE",
"273 751 LINE",
"352 751 LINE",
"436 880 LINE",
"435 883 LINE"
);
}
);
width = 638;
}
);
unicode = 0150;
},
{
glyphname = Omacron;
lastChange = "2015-02-05 02:37:04 +0000";
layers = (
{
layerId = UUID0;
name = "Regular Italic";
paths = (
{
closed = 1;
nodes = (
"45 72 OFFCURVE",
"139 -12 OFFCURVE",
"299 -12 CURVE SMOOTH",
"536 -12 OFFCURVE",
"623 234 OFFCURVE",
"623 435 CURVE SMOOTH",
"623 614 OFFCURVE",
"528 698 OFFCURVE",
"368 698 CURVE SMOOTH",
"130 698 OFFCURVE",
"45 451 OFFCURVE",
"45 250 CURVE SMOOTH"
);
},
{
closed = 1;
nodes = (
"174 383 OFFCURVE",
"211 588 OFFCURVE",
"373 588 CURVE SMOOTH",
"454 588 OFFCURVE",
"493 530 OFFCURVE",
"493 430 CURVE SMOOTH",
"493 303 OFFCURVE",
"455 98 OFFCURVE",
"294 98 CURVE SMOOTH",
"212 98 OFFCURVE",
"174 156 OFFCURVE",
"174 255 CURVE SMOOTH"
);
},
{
closed = 1;
nodes = (
"278 846 LINE",
"265 759 LINE",
"520 759 LINE",
"533 846 LINE"
);
}
);
width = 638;
}
);
unicode = 014C;
},
{
glyphname = Oslash;
lastChange = "2015-02-05 02:37:04 +0000";
layers = (
{
anchors = (
{
name = top;
position = "{383, 686}";
}
);
layerId = UUID0;
name = "Regular Italic";
paths = (
{
closed = 1;
nodes = (
"45 -37 LINE",
"129 -37 LINE",
"163 16 LINE",
"201 -2 OFFCURVE",
"246 -12 OFFCURVE",
"299 -12 CURVE SMOOTH",
"536 -12 OFFCURVE",
"623 234 OFFCURVE",
"623 435 CURVE SMOOTH",
"623 520 OFFCURVE",
"601 584 OFFCURVE",
"561 628 CURVE",
"623 723 LINE",
"539 723 LINE",
"504 670 LINE",
"467 689 OFFCURVE",
"421 698 OFFCURVE",
"368 698 CURVE SMOOTH",
"130 698 OFFCURVE",
"45 451 OFFCURVE",
"45 250 CURVE SMOOTH",
"45 165 OFFCURVE",
"66 101 OFFCURVE",
"106 58 CURVE"
);
},
{
closed = 1;
nodes = (
"184 177 LINE",
"177 199 OFFCURVE",
"174 225 OFFCURVE",
"174 255 CURVE SMOOTH",
"174 383 OFFCURVE",
"211 588 OFFCURVE",
"373 588 CURVE SMOOTH",
"399 588 OFFCURVE",
"422 582 OFFCURVE",
"439 570 CURVE"
);
},
{
closed = 1;
nodes = (
"482 507 LINE",
"489 485 OFFCURVE",
"493 459 OFFCURVE",
"493 430 CURVE SMOOTH",
"493 303 OFFCURVE",
"455 98 OFFCURVE",
"294 98 CURVE SMOOTH",
"267 98 OFFCURVE",
"245 104 OFFCURVE",
"228 115 CURVE"
);
}
);
width = 638;
}
);
unicode = 00D8;
},
{
glyphname = Oslashacute;
lastChange = "2015-02-05 02:37:04 +0000";
layers = (
{
layerId = UUID0;
name = "Regular Italic";
paths = (
{
closed = 1;
nodes = (
"45 -37 LINE",
"129 -37 LINE",
"163 16 LINE",
"201 -2 OFFCURVE",
"246 -12 OFFCURVE",
"299 -12 CURVE SMOOTH",
"536 -12 OFFCURVE",
"623 234 OFFCURVE",
"623 435 CURVE SMOOTH",
"623 520 OFFCURVE",
"601 584 OFFCURVE",
"561 628 CURVE",
"623 723 LINE",
"539 723 LINE",
"504 670 LINE",
"467 689 OFFCURVE",
"421 698 OFFCURVE",
"368 698 CURVE SMOOTH",
"130 698 OFFCURVE",
"45 451 OFFCURVE",
"45 250 CURVE SMOOTH",
"45 165 OFFCURVE",
"66 101 OFFCURVE",
"106 58 CURVE"
);
},
{
closed = 1;
nodes = (
"184 177 LINE",
"177 199 OFFCURVE",
"174 225 OFFCURVE",
"174 255 CURVE SMOOTH",
"174 383 OFFCURVE",
"211 588 OFFCURVE",
"373 588 CURVE SMOOTH",
"399 588 OFFCURVE",
"422 582 OFFCURVE",
"439 570 CURVE"
);
},
{
closed = 1;
nodes = (
"482 507 LINE",
"489 485 OFFCURVE",
"493 459 OFFCURVE",
"493 430 CURVE SMOOTH",
"493 303 OFFCURVE",
"455 98 OFFCURVE",
"294 98 CURVE SMOOTH",
"267 98 OFFCURVE",
"245 104 OFFCURVE",
"228 115 CURVE"
);
},
{
closed = 1;
nodes = (
"416 883 LINE",
"330 751 LINE",
"429 751 LINE",
"537 880 LINE",
"536 883 LINE"
);
}
);
width = 638;
}
);
unicode = 01FE;
},
{
glyphname = Otilde;
lastChange = "2015-02-05 02:37:04 +0000";
layers = (
{
layerId = UUID0;
name = "Regular Italic";
paths = (
{
closed = 1;
nodes = (
"45 72 OFFCURVE",
"139 -12 OFFCURVE",
"299 -12 CURVE SMOOTH",
"536 -12 OFFCURVE",
"623 234 OFFCURVE",
"623 435 CURVE SMOOTH",
"623 614 OFFCURVE",
"528 698 OFFCURVE",
"368 698 CURVE SMOOTH",
"130 698 OFFCURVE",
"45 451 OFFCURVE",
"45 250 CURVE SMOOTH"
);
},
{
closed = 1;
nodes = (
"174 383 OFFCURVE",
"211 588 OFFCURVE",
"373 588 CURVE SMOOTH",
"454 588 OFFCURVE",
"493 530 OFFCURVE",
"493 430 CURVE SMOOTH",
"493 303 OFFCURVE",
"455 98 OFFCURVE",
"294 98 CURVE SMOOTH",
"212 98 OFFCURVE",
"174 156 OFFCURVE",
"174 255 CURVE SMOOTH"
);
},
{
closed = 1;
nodes = (
"296 761 LINE",
"304 788 OFFCURVE",
"319 798 OFFCURVE",
"340 798 CURVE SMOOTH",
"384 798 OFFCURVE",
"418 761 OFFCURVE",
"465 761 CURVE SMOOTH",
"536 761 OFFCURVE",
"580 828 OFFCURVE",
"580 883 CURVE",
"515 883 LINE",
"507 855 OFFCURVE",
"492 846 OFFCURVE",
"471 846 CURVE SMOOTH",
"427 846 OFFCURVE",
"393 883 OFFCURVE",
"345 883 CURVE SMOOTH",
"275 883 OFFCURVE",
"232 814 OFFCURVE",
"232 761 CURVE"
);
}
);
width = 638;
}
);
unicode = 00D5;
},
{
color = (31,255,0,1);
glyphname = OE;
lastChange = "2015-02-05 02:37:04 +0000";
layers = (
{
anchors = (
{
name = top;
position = "{410, 686}";
}
);
background = {
paths = (
{
closed = 1;
nodes = (
"285 -12 OFFCURVE",
"339 11 OFFCURVE",
"384 61 CURVE",
"375 0 LINE",
"780 0 LINE",
"763 114 LINE",
"517 114 LINE",
"543 294 LINE",
"758 294 LINE",
"774 408 LINE",
"559 408 LINE",
"582 572 LINE",
"820 572 LINE",
"852 686 LINE",
"471 686 LINE",
"462 624 LINE",
"428 674 OFFCURVE",
"375 698 OFFCURVE",
"308 698 CURVE SMOOTH",
"98 698 OFFCURVE",
"40 397 OFFCURVE",
"40 232 CURVE SMOOTH",
"40 66 OFFCURVE",
"109 -12 OFFCURVE",
"225 -12 CURVE SMOOTH"
);
},
{
closed = 1;
nodes = (
"202 98 OFFCURVE",
"169 138 OFFCURVE",
"169 233 CURVE SMOOTH",
"169 257 OFFCURVE",
"171 286 OFFCURVE",
"183 368 CURVE SMOOTH",
"204 520 OFFCURVE",
"250 588 OFFCURVE",
"327 588 CURVE SMOOTH",
"395 588 OFFCURVE",
"432 551 OFFCURVE",
"432 453 CURVE SMOOTH",
"432 429 OFFCURVE",
"429 400 OFFCURVE",
"418 318 CURVE SMOOTH",
"396 161 OFFCURVE",
"347 98 OFFCURVE",
"266 98 CURVE SMOOTH"
);
}
);
};
layerId = UUID0;
name = "Regular Italic";
paths = (
{
closed = 1;
nodes = (
"40 66 OFFCURVE",
"109 -12 OFFCURVE",
"225 -12 CURVE SMOOTH",
"285 -12 OFFCURVE",
"339 11 OFFCURVE",
"384 61 CURVE",
"375 0 LINE",
"757 0 LINE",
"772 114 LINE",
"517 114 LINE",
"543 294 LINE",
"748 294 LINE",
"764 408 LINE",
"559 408 LINE",
"582 572 LINE",
"830 572 LINE",
"846 686 LINE",
"471 686 LINE",
"462 624 LINE",
"428 674 OFFCURVE",
"375 698 OFFCURVE",
"308 698 CURVE SMOOTH",
"98 698 OFFCURVE",
"40 397 OFFCURVE",
"40 232 CURVE SMOOTH"
);
},
{
closed = 1;
nodes = (
"204 520 OFFCURVE",
"250 588 OFFCURVE",
"327 588 CURVE SMOOTH",
"395 588 OFFCURVE",
"432 551 OFFCURVE",
"432 453 CURVE SMOOTH",
"432 429 OFFCURVE",
"429 400 OFFCURVE",
"418 318 CURVE SMOOTH",
"396 161 OFFCURVE",
"347 98 OFFCURVE",
"266 98 CURVE SMOOTH",
"202 98 OFFCURVE",
"169 138 OFFCURVE",
"169 233 CURVE SMOOTH",
"169 257 OFFCURVE",
"171 286 OFFCURVE",
"183 368 CURVE SMOOTH"
);
}
);
width = 820;
}
);
unicode = 0152;
},
{
color = (31,255,0,1);
glyphname = P;
lastChange = "2015-02-05 02:37:04 +0000";
layers = (
{
background = {
paths = (
{
closed = 1;
nodes = (
"114 686 LINE",
"18 0 LINE",
"144 0 LINE",
"182 266 LINE",
"323 266 LINE",
"452 266 OFFCURVE",
"552 363 OFFCURVE",
"552 509 CURVE SMOOTH",
"552 612 OFFCURVE",
"490 686 OFFCURVE",
"361 686 CURVE SMOOTH"
);
},
{
closed = 1;
nodes = (
"198 379 LINE",
"225 572 LINE",
"338 572 LINE",
"391 572 OFFCURVE",
"421 539 OFFCURVE",
"421 489 CURVE SMOOTH",
"421 420 OFFCURVE",
"377 379 OFFCURVE",
"316 379 CURVE SMOOTH"
);
}
);
};
layerId = UUID0;
name = "Regular Italic";
paths = (
{
closed = 1;
nodes = (
"323 266 LINE",
"452 266 OFFCURVE",
"552 363 OFFCURVE",
"552 509 CURVE SMOOTH",
"552 612 OFFCURVE",
"490 686 OFFCURVE",
"361 686 CURVE SMOOTH",
"124 686 LINE",
"28 0 LINE",
"154 0 LINE",
"192 266 LINE"
);
},
{
closed = 1;
nodes = (
"338 572 LINE",
"391 572 OFFCURVE",
"421 539 OFFCURVE",
"421 489 CURVE SMOOTH",
"421 420 OFFCURVE",
"377 379 OFFCURVE",
"316 379 CURVE SMOOTH",
"208 379 LINE",
"235 572 LINE"
);
}
);
width = 547;
}
);
unicode = 0050;
},
{
color = (31,255,0,1);
glyphname = Thorn;
lastChange = "2015-02-05 02:37:04 +0000";
layers = (
{
background = {
paths = (
{
closed = 1;
nodes = (
"114 686 LINE",
"18 0 LINE",
"145 0 LINE",
"165 142 LINE",
"306 142 LINE SMOOTH",
"435 142 OFFCURVE",
"535 239 OFFCURVE",
"535 385 CURVE SMOOTH",
"535 488 OFFCURVE",
"473 562 OFFCURVE",
"344 562 CURVE SMOOTH",
"224 562 LINE",
"241 686 LINE"
);
},
{
closed = 1;
nodes = (
"181 255 LINE",
"208 448 LINE",
"321 448 LINE SMOOTH",
"374 448 OFFCURVE",
"404 415 OFFCURVE",
"404 365 CURVE SMOOTH",
"404 296 OFFCURVE",
"360 255 OFFCURVE",
"299 255 CURVE SMOOTH"
);
}
);
};
layerId = UUID0;
name = "Regular Italic";
paths = (
{
closed = 1;
nodes = (
"28 0 LINE",
"155 0 LINE",
"175 142 LINE",
"306 142 LINE SMOOTH",
"435 142 OFFCURVE",
"535 239 OFFCURVE",
"535 385 CURVE SMOOTH",
"535 488 OFFCURVE",
"473 562 OFFCURVE",
"344 562 CURVE SMOOTH",
"234 562 LINE",
"251 686 LINE",
"124 686 LINE"
);
},
{
closed = 1;
nodes = (
"321 448 LINE",
"374 448 OFFCURVE",
"404 415 OFFCURVE",
"404 365 CURVE SMOOTH",
"404 296 OFFCURVE",
"360 255 OFFCURVE",
"299 255 CURVE SMOOTH",
"191 255 LINE",
"218 448 LINE"
);
}
);
width = 547;
}
);
unicode = 00DE;
},
{
color = (31,255,0,1);
glyphname = Q;
lastChange = "2015-02-05 02:37:04 +0000";
layers = (
{
background = {
paths = (
{
closed = 1;
nodes = (
"219 -12 OFFCURVE",
"219 -22 OFFCURVE",
"219 -29 CURVE SMOOTH",
"219 -102 OFFCURVE",
"260 -158 OFFCURVE",
"377 -158 CURVE SMOOTH",
"461 -158 OFFCURVE",
"530 -126 OFFCURVE",
"530 -126 CURVE",
"539 -59 LINE",
"421 -59 LINE SMOOTH",
"358 -59 OFFCURVE",
"348 -32 OFFCURVE",
"348 -8 CURVE",
"548 23 OFFCURVE",
"623 248 OFFCURVE",
"623 435 CURVE SMOOTH",
"623 614 OFFCURVE",
"528 698 OFFCURVE",
"368 698 CURVE SMOOTH",
"130 698 OFFCURVE",
"45 451 OFFCURVE",
"45 250 CURVE SMOOTH",
"45 103 OFFCURVE",
"108 21 OFFCURVE",
"220 -4 CURVE"
);
},
{
closed = 1;
nodes = (
"174 383 OFFCURVE",
"211 588 OFFCURVE",
"373 588 CURVE SMOOTH",
"454 588 OFFCURVE",
"493 530 OFFCURVE",
"493 430 CURVE SMOOTH",
"493 303 OFFCURVE",
"455 98 OFFCURVE",
"294 98 CURVE SMOOTH",
"212 98 OFFCURVE",
"174 156 OFFCURVE",
"174 255 CURVE SMOOTH"
);
}
);
};
layerId = UUID0;
name = "Regular Italic";
paths = (
{
closed = 1;
nodes = (
"380 -124 LINE",
"535 -124 LINE",
"423 14 LINE",
"567 83 OFFCURVE",
"623 274 OFFCURVE",
"623 435 CURVE SMOOTH",
"623 614 OFFCURVE",
"528 698 OFFCURVE",
"368 698 CURVE SMOOTH",
"130 698 OFFCURVE",
"45 451 OFFCURVE",
"45 250 CURVE SMOOTH",
"45 73 OFFCURVE",
"138 -11 OFFCURVE",
"296 -12 CURVE"
);
},
{
closed = 1;
nodes = (
"454 588 OFFCURVE",
"493 530 OFFCURVE",
"493 430 CURVE SMOOTH",
"493 303 OFFCURVE",
"455 98 OFFCURVE",
"294 98 CURVE SMOOTH",
"212 98 OFFCURVE",
"174 156 OFFCURVE",
"174 255 CURVE SMOOTH",
"174 383 OFFCURVE",
"211 588 OFFCURVE",
"373 588 CURVE SMOOTH"
);
}
);
width = 638;
}
);
unicode = 0051;
},
{
color = (31,255,0,1);
glyphname = R;
lastChange = "2015-02-05 02:37:04 +0000";
layers = (
{
anchors = (
{
name = bottom;
position = "{262, 0}";
},
{
name = top;
position = "{359, 686}";
}
);
background = {
paths = (
{
closed = 1;
nodes = (
"113 686 LINE",
"18 0 LINE",
"145 0 LINE",
"184 287 LINE",
"311 287 LINE SMOOTH",
"352 287 OFFCURVE",
"391 262 OFFCURVE",
"391 177 CURVE SMOOTH",
"391 153 OFFCURVE",
"384 117 OFFCURVE",
"384 91 CURVE SMOOTH",
"384 14 OFFCURVE",
"432 -5 OFFCURVE",
"481 -5 CURVE SMOOTH",
"501 -5 OFFCURVE",
"538 1 OFFCURVE",
"548 7 CURVE",
"551 41 LINE",
"531 49 OFFCURVE",
"518 66 OFFCURVE",
"518 111 CURVE SMOOTH",
"518 135 OFFCURVE",
"525 180 OFFCURVE",
"525 209 CURVE SMOOTH",
"525 305 OFFCURVE",
"475 337 OFFCURVE",
"448 348 CURVE",
"448 352 LINE",
"512 374 OFFCURVE",
"578 432 OFFCURVE",
"578 531 CURVE SMOOTH",
"578 623 OFFCURVE",
"507 686 OFFCURVE",
"401 686 CURVE SMOOTH"
);
},
{
closed = 1;
nodes = (
"200 400 LINE",
"224 572 LINE",
"360 572 LINE",
"410 572 OFFCURVE",
"443 546 OFFCURVE",
"443 496 CURVE SMOOTH",
"443 443 OFFCURVE",
"398 400 OFFCURVE",
"336 400 CURVE SMOOTH"
);
}
);
};
layerId = UUID0;
name = "Regular Italic";
paths = (
{
closed = 1;
nodes = (
"445 311 LINE",
"534 341 OFFCURVE",
"590 418 OFFCURVE",
"590 517 CURVE SMOOTH",
"590 617 OFFCURVE",
"526 686 OFFCURVE",
"393 686 CURVE SMOOTH",
"124 686 LINE",
"28 0 LINE",
"155 0 LINE",
"194 286 LINE",
"320 286 LINE",
"400 0 LINE",
"537 0 LINE"
);
},
{
closed = 1;
nodes = (
"374 572 LINE",
"429 572 OFFCURVE",
"453 544 OFFCURVE",
"453 499 CURVE SMOOTH",
"453 437 OFFCURVE",
"412 399 OFFCURVE",
"345 399 CURVE SMOOTH",
"210 399 LINE",
"235 572 LINE"
);
}
);
width = 592;
}
);
unicode = 0052;
},
{
color = (31,255,0,1);
glyphname = Racute;
lastChange = "2015-02-05 02:37:04 +0000";
layers = (
{
background = {
paths = (
{
closed = 1;
nodes = (
"113 686 LINE",
"18 0 LINE",
"145 0 LINE",
"184 287 LINE",
"311 287 LINE SMOOTH",
"352 287 OFFCURVE",
"391 262 OFFCURVE",
"391 177 CURVE SMOOTH",
"391 153 OFFCURVE",
"384 117 OFFCURVE",
"384 91 CURVE SMOOTH",
"384 14 OFFCURVE",
"432 -5 OFFCURVE",
"481 -5 CURVE SMOOTH",
"501 -5 OFFCURVE",
"538 1 OFFCURVE",
"548 7 CURVE",
"551 41 LINE",
"531 49 OFFCURVE",
"518 66 OFFCURVE",
"518 111 CURVE SMOOTH",
"518 135 OFFCURVE",
"525 180 OFFCURVE",
"525 209 CURVE SMOOTH",
"525 305 OFFCURVE",
"475 337 OFFCURVE",
"448 348 CURVE",
"448 352 LINE",
"512 374 OFFCURVE",
"578 432 OFFCURVE",
"578 531 CURVE SMOOTH",
"578 623 OFFCURVE",
"507 686 OFFCURVE",
"401 686 CURVE SMOOTH"
);
},
{
closed = 1;
nodes = (
"200 400 LINE",
"224 572 LINE",
"360 572 LINE SMOOTH",
"410 572 OFFCURVE",
"443 546 OFFCURVE",
"443 496 CURVE SMOOTH",
"443 443 OFFCURVE",
"398 400 OFFCURVE",
"336 400 CURVE SMOOTH"
);
}
);
};
layerId = UUID0;
name = "Regular Italic";
paths = (
{
closed = 1;
nodes = (
"392 883 LINE",
"306 751 LINE",
"405 751 LINE",
"513 880 LINE",
"512 883 LINE"
);
},
{
closed = 1;
nodes = (
"445 311 LINE",
"534 341 OFFCURVE",
"590 418 OFFCURVE",
"590 517 CURVE SMOOTH",
"590 617 OFFCURVE",
"526 686 OFFCURVE",
"393 686 CURVE SMOOTH",
"124 686 LINE",
"28 0 LINE",
"155 0 LINE",
"194 286 LINE",
"320 286 LINE",
"400 0 LINE",
"537 0 LINE"
);
},
{
closed = 1;
nodes = (
"374 572 LINE SMOOTH",
"429 572 OFFCURVE",
"453 544 OFFCURVE",
"453 499 CURVE SMOOTH",
"453 437 OFFCURVE",
"412 399 OFFCURVE",
"345 399 CURVE SMOOTH",
"210 399 LINE",
"235 572 LINE"
);
}
);
width = 592;
}
);
unicode = 0154;
},
{
color = (31,255,0,1);
glyphname = Rcaron;
lastChange = "2015-02-05 02:37:04 +0000";
layers = (
{
background = {
paths = (
{
closed = 1;
nodes = (
"113 686 LINE",
"18 0 LINE",
"145 0 LINE",
"184 287 LINE",
"311 287 LINE SMOOTH",
"352 287 OFFCURVE",
"391 262 OFFCURVE",
"391 177 CURVE SMOOTH",
"391 153 OFFCURVE",
"384 117 OFFCURVE",
"384 91 CURVE SMOOTH",
"384 14 OFFCURVE",
"432 -5 OFFCURVE",
"481 -5 CURVE SMOOTH",
"501 -5 OFFCURVE",
"538 1 OFFCURVE",
"548 7 CURVE",
"551 41 LINE",
"531 49 OFFCURVE",
"518 66 OFFCURVE",
"518 111 CURVE SMOOTH",
"518 135 OFFCURVE",
"525 180 OFFCURVE",
"525 209 CURVE SMOOTH",
"525 305 OFFCURVE",
"475 337 OFFCURVE",
"448 348 CURVE",
"448 352 LINE",
"512 374 OFFCURVE",
"578 432 OFFCURVE",
"578 531 CURVE SMOOTH",
"578 623 OFFCURVE",
"507 686 OFFCURVE",
"401 686 CURVE SMOOTH"
);
},
{
closed = 1;
nodes = (
"200 400 LINE",
"224 572 LINE",
"360 572 LINE SMOOTH",
"410 572 OFFCURVE",
"443 546 OFFCURVE",
"443 496 CURVE SMOOTH",
"443 443 OFFCURVE",
"398 400 OFFCURVE",
"336 400 CURVE SMOOTH"
);
}
);
};
layerId = UUID0;
name = "Regular Italic";
paths = (
{
closed = 1;
nodes = (
"251 883 LINE",
"318 748 LINE",
"416 748 LINE",
"520 883 LINE",
"426 883 LINE",
"376 814 LINE",
"341 883 LINE"
);
},
{
closed = 1;
nodes = (
"445 311 LINE",
"534 341 OFFCURVE",
"590 418 OFFCURVE",
"590 517 CURVE SMOOTH",
"590 617 OFFCURVE",
"526 686 OFFCURVE",
"393 686 CURVE SMOOTH",
"124 686 LINE",
"28 0 LINE",
"155 0 LINE",
"194 286 LINE",
"320 286 LINE",
"400 0 LINE",
"537 0 LINE"
);
},
{
closed = 1;
nodes = (
"374 572 LINE SMOOTH",
"429 572 OFFCURVE",
"453 544 OFFCURVE",
"453 499 CURVE SMOOTH",
"453 437 OFFCURVE",
"412 399 OFFCURVE",
"345 399 CURVE SMOOTH",
"210 399 LINE",
"235 572 LINE"
);
}
);
width = 592;
}
);
unicode = 0158;
},
{
color = (31,255,0,1);
glyphname = Rcommaaccent;
lastChange = "2015-02-05 02:37:04 +0000";
layers = (
{
background = {
paths = (
{
closed = 1;
nodes = (
"113 686 LINE",
"18 0 LINE",
"145 0 LINE",
"184 287 LINE",
"311 287 LINE SMOOTH",
"352 287 OFFCURVE",
"391 262 OFFCURVE",
"391 177 CURVE SMOOTH",
"391 153 OFFCURVE",
"384 117 OFFCURVE",
"384 91 CURVE SMOOTH",
"384 14 OFFCURVE",
"432 -5 OFFCURVE",
"481 -5 CURVE SMOOTH",
"501 -5 OFFCURVE",
"538 1 OFFCURVE",
"548 7 CURVE",
"551 41 LINE",
"531 49 OFFCURVE",
"518 66 OFFCURVE",
"518 111 CURVE SMOOTH",
"518 135 OFFCURVE",
"525 180 OFFCURVE",
"525 209 CURVE SMOOTH",
"525 305 OFFCURVE",
"475 337 OFFCURVE",
"448 348 CURVE",
"448 352 LINE",
"512 374 OFFCURVE",
"578 432 OFFCURVE",
"578 531 CURVE SMOOTH",
"578 623 OFFCURVE",
"507 686 OFFCURVE",
"401 686 CURVE SMOOTH"
);
},
{
closed = 1;
nodes = (
"200 400 LINE",
"224 572 LINE",
"360 572 LINE SMOOTH",
"410 572 OFFCURVE",
"443 546 OFFCURVE",
"443 496 CURVE SMOOTH",
"443 443 OFFCURVE",
"398 400 OFFCURVE",
"336 400 CURVE SMOOTH"
);
}
);
};
layerId = UUID0;
name = "Regular Italic";
paths = (
{
closed = 1;
nodes = (
"317 -55 LINE",
"193 -55 LINE",
"176 -178 LINE",
"221 -178 LINE",
"175 -263 LINE",
"240 -263 LINE",
"301 -167 LINE"
);
},
{
closed = 1;
nodes = (
"445 311 LINE",
"534 341 OFFCURVE",
"590 418 OFFCURVE",
"590 517 CURVE SMOOTH",
"590 617 OFFCURVE",
"526 686 OFFCURVE",
"393 686 CURVE SMOOTH",
"124 686 LINE",
"28 0 LINE",
"155 0 LINE",
"194 286 LINE",
"320 286 LINE",
"400 0 LINE",
"537 0 LINE"
);
},
{
closed = 1;
nodes = (
"374 572 LINE SMOOTH",
"429 572 OFFCURVE",
"453 544 OFFCURVE",
"453 499 CURVE SMOOTH",
"453 437 OFFCURVE",
"412 399 OFFCURVE",
"345 399 CURVE SMOOTH",
"210 399 LINE",
"235 572 LINE"
);
}
);
width = 592;
}
);
unicode = 0156;
},
{
glyphname = S;
lastChange = "2015-02-05 02:37:04 +0000";
layers = (
{
anchors = (
{
name = bottom;
position = "{242, 0}";
},
{
name = top;
position = "{340, 686}";
}
);
layerId = UUID0;
name = "Regular Italic";
paths = (
{
closed = 1;
nodes = (
"31 37 OFFCURVE",
"158 -12 OFFCURVE",
"259 -12 CURVE SMOOTH",
"400 -12 OFFCURVE",
"509 69 OFFCURVE",
"509 213 CURVE SMOOTH",
"509 435 OFFCURVE",
"220 392 OFFCURVE",
"220 516 CURVE SMOOTH",
"220 581 OFFCURVE",
"289 587 OFFCURVE",
"311 587 CURVE SMOOTH",
"376 587 OFFCURVE",
"403 542 OFFCURVE",
"403 484 CURVE",
"532 484 LINE",
"532 599 OFFCURVE",
"491 698 OFFCURVE",
"318 698 CURVE SMOOTH",
"147 698 OFFCURVE",
"86 591 OFFCURVE",
"86 491 CURVE SMOOTH",
"86 290 OFFCURVE",
"376 328 OFFCURVE",
"376 187 CURVE SMOOTH",
"376 141 OFFCURVE",
"338 98 OFFCURVE",
"267 98 CURVE SMOOTH",
"178 98 OFFCURVE",
"163 150 OFFCURVE",
"163 185 CURVE SMOOTH",
"163 210 OFFCURVE",
"166 225 OFFCURVE",
"168 233 CURVE",
"36 233 LINE",
"34 223 OFFCURVE",
"31 195 OFFCURVE",
"31 172 CURVE SMOOTH"
);
}
);
width = 547;
}
);
unicode = 0053;
},
{
glyphname = Sacute;
lastChange = "2015-02-05 02:37:04 +0000";
layers = (
{
layerId = UUID0;
name = "Regular Italic";
paths = (
{
closed = 1;
nodes = (
"31 37 OFFCURVE",
"158 -12 OFFCURVE",
"259 -12 CURVE SMOOTH",
"400 -12 OFFCURVE",
"509 69 OFFCURVE",
"509 213 CURVE SMOOTH",
"509 435 OFFCURVE",
"220 392 OFFCURVE",
"220 516 CURVE SMOOTH",
"220 581 OFFCURVE",
"289 587 OFFCURVE",
"311 587 CURVE SMOOTH",
"376 587 OFFCURVE",
"403 542 OFFCURVE",
"403 484 CURVE",
"532 484 LINE",
"532 599 OFFCURVE",
"491 698 OFFCURVE",
"318 698 CURVE SMOOTH",
"147 698 OFFCURVE",
"86 591 OFFCURVE",
"86 491 CURVE SMOOTH",
"86 290 OFFCURVE",
"376 328 OFFCURVE",
"376 187 CURVE SMOOTH",
"376 141 OFFCURVE",
"338 98 OFFCURVE",
"267 98 CURVE SMOOTH",
"178 98 OFFCURVE",
"163 150 OFFCURVE",
"163 185 CURVE SMOOTH",
"163 210 OFFCURVE",
"166 225 OFFCURVE",
"168 233 CURVE",
"36 233 LINE",
"34 223 OFFCURVE",
"31 195 OFFCURVE",
"31 172 CURVE SMOOTH"
);
},
{
closed = 1;
nodes = (
"372 883 LINE",
"286 751 LINE",
"385 751 LINE",
"493 880 LINE",
"492 883 LINE"
);
}
);
width = 547;
}
);
unicode = 015A;
},
{
glyphname = Scaron;
lastChange = "2015-02-05 02:37:04 +0000";
layers = (
{
layerId = UUID0;
name = "Regular Italic";
paths = (
{
closed = 1;
nodes = (
"31 37 OFFCURVE",
"158 -12 OFFCURVE",
"259 -12 CURVE SMOOTH",
"400 -12 OFFCURVE",
"509 69 OFFCURVE",
"509 213 CURVE SMOOTH",
"509 435 OFFCURVE",
"220 392 OFFCURVE",
"220 516 CURVE SMOOTH",
"220 581 OFFCURVE",
"289 587 OFFCURVE",
"311 587 CURVE SMOOTH",
"376 587 OFFCURVE",
"403 542 OFFCURVE",
"403 484 CURVE",
"532 484 LINE",
"532 599 OFFCURVE",
"491 698 OFFCURVE",
"318 698 CURVE SMOOTH",
"147 698 OFFCURVE",
"86 591 OFFCURVE",
"86 491 CURVE SMOOTH",
"86 290 OFFCURVE",
"376 328 OFFCURVE",
"376 187 CURVE SMOOTH",
"376 141 OFFCURVE",
"338 98 OFFCURVE",
"267 98 CURVE SMOOTH",
"178 98 OFFCURVE",
"163 150 OFFCURVE",
"163 185 CURVE SMOOTH",
"163 210 OFFCURVE",
"166 225 OFFCURVE",
"168 233 CURVE",
"36 233 LINE",
"34 223 OFFCURVE",
"31 195 OFFCURVE",
"31 172 CURVE SMOOTH"
);
},
{
closed = 1;
nodes = (
"232 883 LINE",
"299 748 LINE",
"397 748 LINE",
"501 883 LINE",
"407 883 LINE",
"357 814 LINE",
"322 883 LINE"
);
}
);
width = 547;
}
);
unicode = 0160;
},
{
glyphname = Scedilla;
lastChange = "2015-02-05 02:37:04 +0000";
layers = (
{
layerId = UUID0;
name = "Regular Italic";
paths = (
{
closed = 1;
nodes = (
"31 61 OFFCURVE",
"117 8 OFFCURVE",
"204 -7 CURVE",
"186 -77 LINE",
"218 -77 LINE SMOOTH",
"240 -77 OFFCURVE",
"250 -83 OFFCURVE",
"250 -95 CURVE SMOOTH",
"250 -119 OFFCURVE",
"233 -125 OFFCURVE",
"209 -125 CURVE SMOOTH",
"138 -125 LINE",
"131 -174 LINE",
"154 -179 OFFCURVE",
"187 -182 OFFCURVE",
"214 -182 CURVE SMOOTH",
"270 -182 OFFCURVE",
"335 -166 OFFCURVE",
"335 -90 CURVE SMOOTH",
"335 -52 OFFCURVE",
"303 -36 OFFCURVE",
"266 -33 CURVE",
"271 -12 LINE",
"406 -7 OFFCURVE",
"509 73 OFFCURVE",
"509 213 CURVE SMOOTH",
"509 435 OFFCURVE",
"220 392 OFFCURVE",
"220 516 CURVE SMOOTH",
"220 581 OFFCURVE",
"289 587 OFFCURVE",
"311 587 CURVE SMOOTH",
"376 587 OFFCURVE",
"403 542 OFFCURVE",
"403 484 CURVE",
"532 484 LINE",
"532 599 OFFCURVE",
"491 698 OFFCURVE",
"318 698 CURVE SMOOTH",
"147 698 OFFCURVE",
"86 591 OFFCURVE",
"86 491 CURVE SMOOTH",
"86 290 OFFCURVE",
"376 328 OFFCURVE",
"376 187 CURVE SMOOTH",
"376 141 OFFCURVE",
"338 98 OFFCURVE",
"267 98 CURVE SMOOTH",
"178 98 OFFCURVE",
"163 150 OFFCURVE",
"163 185 CURVE SMOOTH",
"163 210 OFFCURVE",
"166 225 OFFCURVE",
"168 233 CURVE",
"36 233 LINE",
"34 223 OFFCURVE",
"31 195 OFFCURVE",
"31 172 CURVE SMOOTH"
);
}
);
width = 547;
}
);
unicode = 015E;
},
{
glyphname = Scircumflex;
lastChange = "2015-02-05 02:37:04 +0000";
layers = (
{
layerId = UUID0;
name = "Regular Italic";
paths = (
{
closed = 1;
nodes = (
"31 37 OFFCURVE",
"158 -12 OFFCURVE",
"259 -12 CURVE SMOOTH",
"400 -12 OFFCURVE",
"509 69 OFFCURVE",
"509 213 CURVE SMOOTH",
"509 435 OFFCURVE",
"220 392 OFFCURVE",
"220 516 CURVE SMOOTH",
"220 581 OFFCURVE",
"289 587 OFFCURVE",
"311 587 CURVE SMOOTH",
"376 587 OFFCURVE",
"403 542 OFFCURVE",
"403 484 CURVE",
"532 484 LINE",
"532 599 OFFCURVE",
"491 698 OFFCURVE",
"318 698 CURVE SMOOTH",
"147 698 OFFCURVE",
"86 591 OFFCURVE",
"86 491 CURVE SMOOTH",
"86 290 OFFCURVE",
"376 328 OFFCURVE",
"376 187 CURVE SMOOTH",
"376 141 OFFCURVE",
"338 98 OFFCURVE",
"267 98 CURVE SMOOTH",
"178 98 OFFCURVE",
"163 150 OFFCURVE",
"163 185 CURVE SMOOTH",
"163 210 OFFCURVE",
"166 225 OFFCURVE",
"168 233 CURVE",
"36 233 LINE",
"34 223 OFFCURVE",
"31 195 OFFCURVE",
"31 172 CURVE SMOOTH"
);
},
{
closed = 1;
nodes = (
"318 883 LINE",
"214 748 LINE",
"307 748 LINE",
"358 817 LINE",
"392 748 LINE",
"482 748 LINE",
"416 883 LINE"
);
}
);
width = 547;
}
);
unicode = 015C;
},
{
glyphname = T;
lastChange = "2015-02-05 02:37:04 +0000";
layers = (
{
anchors = (
{
name = bottom;
position = "{214, 0}";
},
{
name = center;
position = "{263, 343}";
},
{
name = top;
position = "{311, 686}";
}
);
layerId = UUID0;
name = "Regular Italic";
paths = (
{
closed = 1;
nodes = (
"233 572 LINE",
"153 0 LINE",
"279 0 LINE",
"359 572 LINE",
"528 572 LINE",
"544 686 LINE",
"80 686 LINE",
"64 572 LINE"
);
}
);
width = 501;
}
);
unicode = 0054;
},
{
glyphname = Tbar;
lastChange = "2015-02-05 02:37:04 +0000";
layers = (
{
layerId = UUID0;
name = "Regular Italic";
paths = (
{
closed = 1;
nodes = (
"233 572 LINE",
"208 393 LINE",
"99 393 LINE",
"86 306 LINE",
"195 306 LINE",
"153 0 LINE",
"279 0 LINE",
"321 306 LINE",
"439 306 LINE",
"452 393 LINE",
"333 393 LINE",
"359 572 LINE",
"528 572 LINE",
"544 686 LINE",
"80 686 LINE",
"64 572 LINE"
);
}
);
width = 501;
}
);
unicode = 0166;
},
{
glyphname = Tcaron;
lastChange = "2015-02-05 02:37:04 +0000";
layers = (
{
layerId = UUID0;
name = "Regular Italic";
paths = (
{
closed = 1;
nodes = (
"233 572 LINE",
"153 0 LINE",
"279 0 LINE",
"359 572 LINE",
"528 572 LINE",
"544 686 LINE",
"80 686 LINE",
"64 572 LINE"
);
},
{
closed = 1;
nodes = (
"203 883 LINE",
"270 748 LINE",
"368 748 LINE",
"472 883 LINE",
"378 883 LINE",
"328 814 LINE",
"293 883 LINE"
);
}
);
width = 501;
}
);
unicode = 0164;
},
{
glyphname = Tcommaaccent;
lastChange = "2015-02-05 02:37:04 +0000";
layers = (
{
layerId = UUID0;
name = "Regular Italic";
paths = (
{
closed = 1;
nodes = (
"233 572 LINE",
"153 0 LINE",
"279 0 LINE",
"359 572 LINE",
"528 572 LINE",
"544 686 LINE",
"80 686 LINE",
"64 572 LINE"
);
},
{
closed = 1;
nodes = (
"269 -55 LINE",
"145 -55 LINE",
"128 -178 LINE",
"173 -178 LINE",
"127 -263 LINE",
"192 -263 LINE",
"253 -167 LINE"
);
}
);
width = 501;
}
);
unicode = 0162;
},
{
color = (31,255,0,1);
glyphname = U;
lastChange = "2015-02-05 02:37:04 +0000";
layers = (
{
anchors = (
{
name = ogonek;
position = "{380, 5}";
},
{
name = top;
position = "{359, 686}";
}
);
background = {
paths = (
{
closed = 1;
nodes = (
"49 53 OFFCURVE",
"132 -12 OFFCURVE",
"277 -12 CURVE SMOOTH",
"420 -12 OFFCURVE",
"517 69 OFFCURVE",
"538 223 CURVE SMOOTH",
"603 686 LINE",
"476 686 LINE",
"412 227 LINE SMOOTH",
"400 143 OFFCURVE",
"353 98 OFFCURVE",
"282 98 CURVE SMOOTH",
"215 98 OFFCURVE",
"177 133 OFFCURVE",
"177 199 CURVE SMOOTH",
"177 227 OFFCURVE",
"244 686 OFFCURVE",
"244 686 CURVE",
"117 686 LINE",
"117 686 OFFCURVE",
"49 223 OFFCURVE",
"49 176 CURVE SMOOTH"
);
}
);
};
layerId = UUID0;
name = "Regular Italic";
paths = (
{
closed = 1;
nodes = (
"127 686 LINE",
"127 686 OFFCURVE",
"59 223 OFFCURVE",
"59 176 CURVE SMOOTH",
"59 53 OFFCURVE",
"140 -12 OFFCURVE",
"282 -12 CURVE SMOOTH",
"417 -12 OFFCURVE",
"506 69 OFFCURVE",
"528 223 CURVE SMOOTH",
"593 686 LINE",
"466 686 LINE",
"402 227 LINE SMOOTH",
"390 143 OFFCURVE",
"348 98 OFFCURVE",
"282 98 CURVE SMOOTH",
"221 98 OFFCURVE",
"187 133 OFFCURVE",
"187 199 CURVE SMOOTH",
"187 227 OFFCURVE",
"254 686 OFFCURVE",
"254 686 CURVE"
);
}
);
width = 592;
}
);
unicode = 0055;
},
{
color = (31,255,0,1);
glyphname = Uacute;
lastChange = "2015-02-05 02:37:04 +0000";
layers = (
{
background = {
paths = (
{
closed = 1;
nodes = (
"49 53 OFFCURVE",
"132 -12 OFFCURVE",
"277 -12 CURVE SMOOTH",
"420 -12 OFFCURVE",
"517 69 OFFCURVE",
"538 223 CURVE SMOOTH",
"603 686 LINE",
"476 686 LINE",
"412 227 LINE SMOOTH",
"400 143 OFFCURVE",
"353 98 OFFCURVE",
"282 98 CURVE SMOOTH",
"215 98 OFFCURVE",
"177 133 OFFCURVE",
"177 199 CURVE SMOOTH",
"177 227 OFFCURVE",
"244 686 OFFCURVE",
"244 686 CURVE",
"117 686 LINE",
"117 686 OFFCURVE",
"49 223 OFFCURVE",
"49 176 CURVE SMOOTH"
);
}
);
};
layerId = UUID0;
name = "Regular Italic";
paths = (
{
closed = 1;
nodes = (
"392 883 LINE",
"306 751 LINE",
"405 751 LINE",
"513 880 LINE",
"512 883 LINE"
);
},
{
closed = 1;
nodes = (
"127 686 LINE",
"127 686 OFFCURVE",
"59 223 OFFCURVE",
"59 176 CURVE SMOOTH",
"59 53 OFFCURVE",
"140 -12 OFFCURVE",
"282 -12 CURVE SMOOTH",
"417 -12 OFFCURVE",
"506 69 OFFCURVE",
"528 223 CURVE SMOOTH",
"593 686 LINE",
"466 686 LINE",
"402 227 LINE SMOOTH",
"390 143 OFFCURVE",
"348 98 OFFCURVE",
"282 98 CURVE SMOOTH",
"221 98 OFFCURVE",
"187 133 OFFCURVE",
"187 199 CURVE SMOOTH",
"187 227 OFFCURVE",
"254 686 OFFCURVE",
"254 686 CURVE"
);
}
);
width = 592;
}
);
unicode = 00DA;
},
{
color = (31,255,0,1);
glyphname = Ubreve;
lastChange = "2015-02-05 02:37:04 +0000";
layers = (
{
background = {
paths = (
{
closed = 1;
nodes = (
"49 53 OFFCURVE",
"132 -12 OFFCURVE",
"277 -12 CURVE SMOOTH",
"420 -12 OFFCURVE",
"517 69 OFFCURVE",
"538 223 CURVE SMOOTH",
"603 686 LINE",
"476 686 LINE",
"412 227 LINE SMOOTH",
"400 143 OFFCURVE",
"353 98 OFFCURVE",
"282 98 CURVE SMOOTH",
"215 98 OFFCURVE",
"177 133 OFFCURVE",
"177 199 CURVE SMOOTH",
"177 227 OFFCURVE",
"244 686 OFFCURVE",
"244 686 CURVE",
"117 686 LINE",
"117 686 OFFCURVE",
"49 223 OFFCURVE",
"49 176 CURVE SMOOTH"
);
}
);
};
layerId = UUID0;
name = "Regular Italic";
paths = (
{
closed = 1;
nodes = (
"457 776 OFFCURVE",
"514 833 OFFCURVE",
"521 883 CURVE",
"447 883 LINE",
"443 869 OFFCURVE",
"416 850 OFFCURVE",
"382 850 CURVE SMOOTH",
"349 850 OFFCURVE",
"329 869 OFFCURVE",
"328 883 CURVE",
"254 883 LINE",
"253 879 OFFCURVE",
"253 876 OFFCURVE",
"253 872 CURVE SMOOTH",
"253 825 OFFCURVE",
"298 776 OFFCURVE",
"377 776 CURVE SMOOTH"
);
},
{
closed = 1;
nodes = (
"127 686 LINE",
"127 686 OFFCURVE",
"59 223 OFFCURVE",
"59 176 CURVE SMOOTH",
"59 53 OFFCURVE",
"140 -12 OFFCURVE",
"282 -12 CURVE SMOOTH",
"417 -12 OFFCURVE",
"506 69 OFFCURVE",
"528 223 CURVE SMOOTH",
"593 686 LINE",
"466 686 LINE",
"402 227 LINE SMOOTH",
"390 143 OFFCURVE",
"348 98 OFFCURVE",
"282 98 CURVE SMOOTH",
"221 98 OFFCURVE",
"187 133 OFFCURVE",
"187 199 CURVE SMOOTH",
"187 227 OFFCURVE",
"254 686 OFFCURVE",
"254 686 CURVE"
);
}
);
width = 592;
}
);
unicode = 016C;
},
{
color = (31,255,0,1);
glyphname = Ucircumflex;
lastChange = "2015-02-05 02:37:04 +0000";
layers = (
{
background = {
paths = (
{
closed = 1;
nodes = (
"49 53 OFFCURVE",
"132 -12 OFFCURVE",
"277 -12 CURVE SMOOTH",
"420 -12 OFFCURVE",
"517 69 OFFCURVE",
"538 223 CURVE SMOOTH",
"603 686 LINE",
"476 686 LINE",
"412 227 LINE SMOOTH",
"400 143 OFFCURVE",
"353 98 OFFCURVE",
"282 98 CURVE SMOOTH",
"215 98 OFFCURVE",
"177 133 OFFCURVE",
"177 199 CURVE SMOOTH",
"177 227 OFFCURVE",
"244 686 OFFCURVE",
"244 686 CURVE",
"117 686 LINE",
"117 686 OFFCURVE",
"49 223 OFFCURVE",
"49 176 CURVE SMOOTH"
);
}
);
};
layerId = UUID0;
name = "Regular Italic";
paths = (
{
closed = 1;
nodes = (
"338 883 LINE",
"234 748 LINE",
"327 748 LINE",
"378 817 LINE",
"412 748 LINE",
"502 748 LINE",
"436 883 LINE"
);
},
{
closed = 1;
nodes = (
"127 686 LINE",
"127 686 OFFCURVE",
"59 223 OFFCURVE",
"59 176 CURVE SMOOTH",
"59 53 OFFCURVE",
"140 -12 OFFCURVE",
"282 -12 CURVE SMOOTH",
"417 -12 OFFCURVE",
"506 69 OFFCURVE",
"528 223 CURVE SMOOTH",
"593 686 LINE",
"466 686 LINE",
"402 227 LINE SMOOTH",
"390 143 OFFCURVE",
"348 98 OFFCURVE",
"282 98 CURVE SMOOTH",
"221 98 OFFCURVE",
"187 133 OFFCURVE",
"187 199 CURVE SMOOTH",
"187 227 OFFCURVE",
"254 686 OFFCURVE",
"254 686 CURVE"
);
}
);
width = 592;
}
);
unicode = 00DB;
},
{
color = (31,255,0,1);
glyphname = Udieresis;
lastChange = "2015-02-05 02:37:04 +0000";
layers = (
{
background = {
paths = (
{
closed = 1;
nodes = (
"49 53 OFFCURVE",
"132 -12 OFFCURVE",
"277 -12 CURVE SMOOTH",
"420 -12 OFFCURVE",
"517 69 OFFCURVE",
"538 223 CURVE SMOOTH",
"603 686 LINE",
"476 686 LINE",
"412 227 LINE SMOOTH",
"400 143 OFFCURVE",
"353 98 OFFCURVE",
"282 98 CURVE SMOOTH",
"215 98 OFFCURVE",
"177 133 OFFCURVE",
"177 199 CURVE SMOOTH",
"177 227 OFFCURVE",
"244 686 OFFCURVE",
"244 686 CURVE",
"117 686 LINE",
"117 686 OFFCURVE",
"49 223 OFFCURVE",
"49 176 CURVE SMOOTH"
);
}
);
};
layerId = UUID0;
name = "Regular Italic";
paths = (
{
closed = 1;
nodes = (
"425 883 LINE",
"410 774 LINE",
"510 774 LINE",
"525 883 LINE"
);
},
{
closed = 1;
nodes = (
"250 883 LINE",
"236 774 LINE",
"335 774 LINE",
"350 883 LINE"
);
},
{
closed = 1;
nodes = (
"127 686 LINE",
"127 686 OFFCURVE",
"59 223 OFFCURVE",
"59 176 CURVE SMOOTH",
"59 53 OFFCURVE",
"140 -12 OFFCURVE",
"282 -12 CURVE SMOOTH",
"417 -12 OFFCURVE",
"506 69 OFFCURVE",
"528 223 CURVE SMOOTH",
"593 686 LINE",
"466 686 LINE",
"402 227 LINE SMOOTH",
"390 143 OFFCURVE",
"348 98 OFFCURVE",
"282 98 CURVE SMOOTH",
"221 98 OFFCURVE",
"187 133 OFFCURVE",
"187 199 CURVE SMOOTH",
"187 227 OFFCURVE",
"254 686 OFFCURVE",
"254 686 CURVE"
);
}
);
width = 592;
}
);
unicode = 00DC;
},
{
color = (31,255,0,1);
glyphname = Ugrave;
lastChange = "2015-02-05 02:37:04 +0000";
layers = (
{
background = {
paths = (
{
closed = 1;
nodes = (
"49 53 OFFCURVE",
"132 -12 OFFCURVE",
"277 -12 CURVE SMOOTH",
"420 -12 OFFCURVE",
"517 69 OFFCURVE",
"538 223 CURVE SMOOTH",
"603 686 LINE",
"476 686 LINE",
"412 227 LINE SMOOTH",
"400 143 OFFCURVE",
"353 98 OFFCURVE",
"282 98 CURVE SMOOTH",
"215 98 OFFCURVE",
"177 133 OFFCURVE",
"177 199 CURVE SMOOTH",
"177 227 OFFCURVE",
"244 686 OFFCURVE",
"244 686 CURVE",
"117 686 LINE",
"117 686 OFFCURVE",
"49 223 OFFCURVE",
"49 176 CURVE SMOOTH"
);
}
);
};
layerId = UUID0;
name = "Regular Italic";
paths = (
{
closed = 1;
nodes = (
"248 880 LINE",
"338 751 LINE",
"437 751 LINE",
"370 883 LINE",
"250 883 LINE"
);
},
{
closed = 1;
nodes = (
"127 686 LINE",
"127 686 OFFCURVE",
"59 223 OFFCURVE",
"59 176 CURVE SMOOTH",
"59 53 OFFCURVE",
"140 -12 OFFCURVE",
"282 -12 CURVE SMOOTH",
"417 -12 OFFCURVE",
"506 69 OFFCURVE",
"528 223 CURVE SMOOTH",
"593 686 LINE",
"466 686 LINE",
"402 227 LINE SMOOTH",
"390 143 OFFCURVE",
"348 98 OFFCURVE",
"282 98 CURVE SMOOTH",
"221 98 OFFCURVE",
"187 133 OFFCURVE",
"187 199 CURVE SMOOTH",
"187 227 OFFCURVE",
"254 686 OFFCURVE",
"254 686 CURVE"
);
}
);
width = 592;
}
);
unicode = 00D9;
},
{
color = (31,255,0,1);
glyphname = Uhungarumlaut;
lastChange = "2015-02-05 02:37:04 +0000";
layers = (
{
background = {
paths = (
{
closed = 1;
nodes = (
"49 53 OFFCURVE",
"132 -12 OFFCURVE",
"277 -12 CURVE SMOOTH",
"420 -12 OFFCURVE",
"517 69 OFFCURVE",
"538 223 CURVE SMOOTH",
"603 686 LINE",
"476 686 LINE",
"412 227 LINE SMOOTH",
"400 143 OFFCURVE",
"353 98 OFFCURVE",
"282 98 CURVE SMOOTH",
"215 98 OFFCURVE",
"177 133 OFFCURVE",
"177 199 CURVE SMOOTH",
"177 227 OFFCURVE",
"244 686 OFFCURVE",
"244 686 CURVE",
"117 686 LINE",
"117 686 OFFCURVE",
"49 223 OFFCURVE",
"49 176 CURVE SMOOTH"
);
}
);
};
layerId = UUID0;
name = "Regular Italic";
paths = (
{
closed = 1;
nodes = (
"450 883 LINE",
"388 751 LINE",
"467 751 LINE",
"551 880 LINE",
"550 883 LINE"
);
},
{
closed = 1;
nodes = (
"310 883 LINE",
"248 751 LINE",
"327 751 LINE",
"411 880 LINE",
"410 883 LINE"
);
},
{
closed = 1;
nodes = (
"127 686 LINE",
"127 686 OFFCURVE",
"59 223 OFFCURVE",
"59 176 CURVE SMOOTH",
"59 53 OFFCURVE",
"140 -12 OFFCURVE",
"282 -12 CURVE SMOOTH",
"417 -12 OFFCURVE",
"506 69 OFFCURVE",
"528 223 CURVE SMOOTH",
"593 686 LINE",
"466 686 LINE",
"402 227 LINE SMOOTH",
"390 143 OFFCURVE",
"348 98 OFFCURVE",
"282 98 CURVE SMOOTH",
"221 98 OFFCURVE",
"187 133 OFFCURVE",
"187 199 CURVE SMOOTH",
"187 227 OFFCURVE",
"254 686 OFFCURVE",
"254 686 CURVE"
);
}
);
width = 592;
}
);
unicode = 0170;
},
{
color = (31,255,0,1);
glyphname = Umacron;
lastChange = "2015-02-05 02:37:04 +0000";
layers = (
{
background = {
paths = (
{
closed = 1;
nodes = (
"49 53 OFFCURVE",
"132 -12 OFFCURVE",
"277 -12 CURVE SMOOTH",
"420 -12 OFFCURVE",
"517 69 OFFCURVE",
"538 223 CURVE SMOOTH",
"603 686 LINE",
"476 686 LINE",
"412 227 LINE SMOOTH",
"400 143 OFFCURVE",
"353 98 OFFCURVE",
"282 98 CURVE SMOOTH",
"215 98 OFFCURVE",
"177 133 OFFCURVE",
"177 199 CURVE SMOOTH",
"177 227 OFFCURVE",
"244 686 OFFCURVE",
"244 686 CURVE",
"117 686 LINE",
"117 686 OFFCURVE",
"49 223 OFFCURVE",
"49 176 CURVE SMOOTH"
);
}
);
};
layerId = UUID0;
name = "Regular Italic";
paths = (
{
closed = 1;
nodes = (
"253 846 LINE",
"240 759 LINE",
"495 759 LINE",
"508 846 LINE"
);
},
{
closed = 1;
nodes = (
"127 686 LINE",
"127 686 OFFCURVE",
"59 223 OFFCURVE",
"59 176 CURVE SMOOTH",
"59 53 OFFCURVE",
"140 -12 OFFCURVE",
"282 -12 CURVE SMOOTH",
"417 -12 OFFCURVE",
"506 69 OFFCURVE",
"528 223 CURVE SMOOTH",
"593 686 LINE",
"466 686 LINE",
"402 227 LINE SMOOTH",
"390 143 OFFCURVE",
"348 98 OFFCURVE",
"282 98 CURVE SMOOTH",
"221 98 OFFCURVE",
"187 133 OFFCURVE",
"187 199 CURVE SMOOTH",
"187 227 OFFCURVE",
"254 686 OFFCURVE",
"254 686 CURVE"
);
}
);
width = 592;
}
);
unicode = 016A;
},
{
color = (31,255,0,1);
glyphname = Uogonek;
lastChange = "2015-02-05 02:37:04 +0000";
layers = (
{
background = {
paths = (
{
closed = 1;
nodes = (
"127 686 LINE",
"127 686 OFFCURVE",
"59 223 OFFCURVE",
"59 176 CURVE SMOOTH",
"59 53 OFFCURVE",
"140 -12 OFFCURVE",
"282 -12 CURVE SMOOTH",
"417 -12 OFFCURVE",
"506 69 OFFCURVE",
"528 223 CURVE SMOOTH",
"593 686 LINE",
"466 686 LINE",
"402 227 LINE SMOOTH",
"390 143 OFFCURVE",
"348 98 OFFCURVE",
"282 98 CURVE SMOOTH",
"221 98 OFFCURVE",
"187 133 OFFCURVE",
"187 199 CURVE SMOOTH",
"187 227 OFFCURVE",
"254 686 OFFCURVE",
"254 686 CURVE"
);
}
);
};
layerId = UUID0;
name = "Regular Italic";
paths = (
{
closed = 1;
nodes = (
"237 -167 OFFCURVE",
"282 -185 OFFCURVE",
"324 -185 CURVE SMOOTH",
"346 -185 OFFCURVE",
"368 -180 OFFCURVE",
"392 -171 CURVE",
"400 -116 LINE",
"378 -116 LINE SMOOTH",
"350 -116 OFFCURVE",
"339 -98 OFFCURVE",
"339 -76 CURVE SMOOTH",
"339 -44 OFFCURVE",
"364 -11 OFFCURVE",
"380 5 CURVE",
"461 36 OFFCURVE",
"512 110 OFFCURVE",
"528 223 CURVE SMOOTH",
"593 686 LINE",
"466 686 LINE",
"402 227 LINE SMOOTH",
"390 143 OFFCURVE",
"348 98 OFFCURVE",
"282 98 CURVE SMOOTH",
"221 98 OFFCURVE",
"187 133 OFFCURVE",
"187 199 CURVE SMOOTH",
"187 227 OFFCURVE",
"254 686 OFFCURVE",
"254 686 CURVE",
"127 686 LINE",
"127 686 OFFCURVE",
"59 223 OFFCURVE",
"59 176 CURVE SMOOTH",
"59 53 OFFCURVE",
"138 -12 OFFCURVE",
"277 -12 CURVE",
"255 -36 OFFCURVE",
"237 -65 OFFCURVE",
"237 -108 CURVE SMOOTH"
);
}
);
width = 592;
}
);
unicode = 0172;
},
{
color = (31,255,0,1);
glyphname = Uring;
lastChange = "2015-02-05 02:37:04 +0000";
layers = (
{
background = {
paths = (
{
closed = 1;
nodes = (
"49 53 OFFCURVE",
"132 -12 OFFCURVE",
"277 -12 CURVE SMOOTH",
"420 -12 OFFCURVE",
"517 69 OFFCURVE",
"538 223 CURVE SMOOTH",
"603 686 LINE",
"476 686 LINE",
"412 227 LINE SMOOTH",
"400 143 OFFCURVE",
"353 98 OFFCURVE",
"282 98 CURVE SMOOTH",
"215 98 OFFCURVE",
"177 133 OFFCURVE",
"177 199 CURVE SMOOTH",
"177 227 OFFCURVE",
"244 686 OFFCURVE",
"244 686 CURVE",
"117 686 LINE",
"117 686 OFFCURVE",
"49 223 OFFCURVE",
"49 176 CURVE SMOOTH"
);
}
);
};
layerId = UUID0;
name = "Regular Italic";
paths = (
{
closed = 1;
nodes = (
"431 721 OFFCURVE",
"474 764 OFFCURVE",
"474 817 CURVE SMOOTH",
"474 869 OFFCURVE",
"432 913 OFFCURVE",
"378 913 CURVE SMOOTH",
"325 913 OFFCURVE",
"282 870 OFFCURVE",
"282 817 CURVE SMOOTH",
"282 763 OFFCURVE",
"326 721 OFFCURVE",
"378 721 CURVE SMOOTH"
);
},
{
closed = 1;
nodes = (
"352 771 OFFCURVE",
"332 791 OFFCURVE",
"332 817 CURVE SMOOTH",
"332 843 OFFCURVE",
"352 863 OFFCURVE",
"378 863 CURVE SMOOTH",
"403 863 OFFCURVE",
"424 843 OFFCURVE",
"424 817 CURVE SMOOTH",
"424 791 OFFCURVE",
"403 771 OFFCURVE",
"378 771 CURVE SMOOTH"
);
},
{
closed = 1;
nodes = (
"127 686 LINE",
"127 686 OFFCURVE",
"59 223 OFFCURVE",
"59 176 CURVE SMOOTH",
"59 53 OFFCURVE",
"140 -12 OFFCURVE",
"282 -12 CURVE SMOOTH",
"417 -12 OFFCURVE",
"506 69 OFFCURVE",
"528 223 CURVE SMOOTH",
"593 686 LINE",
"466 686 LINE",
"402 227 LINE SMOOTH",
"390 143 OFFCURVE",
"348 98 OFFCURVE",
"282 98 CURVE SMOOTH",
"221 98 OFFCURVE",
"187 133 OFFCURVE",
"187 199 CURVE SMOOTH",
"187 227 OFFCURVE",
"254 686 OFFCURVE",
"254 686 CURVE"
);
}
);
width = 592;
}
);
unicode = 016E;
},
{
color = (31,255,0,1);
glyphname = Utilde;
lastChange = "2015-02-05 02:37:04 +0000";
layers = (
{
background = {
paths = (
{
closed = 1;
nodes = (
"49 53 OFFCURVE",
"132 -12 OFFCURVE",
"277 -12 CURVE SMOOTH",
"420 -12 OFFCURVE",
"517 69 OFFCURVE",
"538 223 CURVE SMOOTH",
"603 686 LINE",
"476 686 LINE",
"412 227 LINE SMOOTH",
"400 143 OFFCURVE",
"353 98 OFFCURVE",
"282 98 CURVE SMOOTH",
"215 98 OFFCURVE",
"177 133 OFFCURVE",
"177 199 CURVE SMOOTH",
"177 227 OFFCURVE",
"244 686 OFFCURVE",
"244 686 CURVE",
"117 686 LINE",
"117 686 OFFCURVE",
"49 223 OFFCURVE",
"49 176 CURVE SMOOTH"
);
}
);
};
layerId = UUID0;
name = "Regular Italic";
paths = (
{
closed = 1;
nodes = (
"272 761 LINE",
"280 788 OFFCURVE",
"295 798 OFFCURVE",
"316 798 CURVE SMOOTH",
"360 798 OFFCURVE",
"394 761 OFFCURVE",
"441 761 CURVE SMOOTH",
"512 761 OFFCURVE",
"556 828 OFFCURVE",
"556 883 CURVE",
"491 883 LINE",
"483 855 OFFCURVE",
"468 846 OFFCURVE",
"447 846 CURVE SMOOTH",
"403 846 OFFCURVE",
"369 883 OFFCURVE",
"321 883 CURVE SMOOTH",
"251 883 OFFCURVE",
"208 814 OFFCURVE",
"208 761 CURVE"
);
},
{
closed = 1;
nodes = (
"127 686 LINE",
"127 686 OFFCURVE",
"59 223 OFFCURVE",
"59 176 CURVE SMOOTH",
"59 53 OFFCURVE",
"140 -12 OFFCURVE",
"282 -12 CURVE SMOOTH",
"417 -12 OFFCURVE",
"506 69 OFFCURVE",
"528 223 CURVE SMOOTH",
"593 686 LINE",
"466 686 LINE",
"402 227 LINE SMOOTH",
"390 143 OFFCURVE",
"348 98 OFFCURVE",
"282 98 CURVE SMOOTH",
"221 98 OFFCURVE",
"187 133 OFFCURVE",
"187 199 CURVE SMOOTH",
"187 227 OFFCURVE",
"254 686 OFFCURVE",
"254 686 CURVE"
);
}
);
width = 592;
}
);
unicode = 0168;
},
{
glyphname = V;
lastChange = "2015-02-05 02:37:04 +0000";
layers = (
{
layerId = UUID0;
name = "Regular Italic";
paths = (
{
closed = 1;
nodes = (
"67 686 LINE",
"178 0 LINE",
"305 0 LINE",
"608 686 LINE",
"480 686 LINE",
"272 198 LINE",
"268 198 LINE",
"197 686 LINE"
);
}
);
width = 547;
}
);
unicode = 0056;
},
{
glyphname = W;
lastChange = "2015-02-05 02:37:04 +0000";
layers = (
{
anchors = (
{
name = top;
position = "{453, 686}";
}
);
layerId = UUID0;
name = "Regular Italic";
paths = (
{
closed = 1;
nodes = (
"67 686 LINE",
"118 0 LINE",
"253 0 LINE",
"399 437 LINE SMOOTH",
"409 466 OFFCURVE",
"425 534 OFFCURVE",
"425 534 CURVE",
"430 534 LINE",
"430 534 OFFCURVE",
"429 507 OFFCURVE",
"429 478 CURVE SMOOTH",
"429 464 OFFCURVE",
"429 449 OFFCURVE",
"430 437 CURVE SMOOTH",
"461 0 LINE",
"596 0 LINE",
"832 686 LINE",
"720 686 LINE",
"581 264 LINE SMOOTH",
"570 230 OFFCURVE",
"555 168 OFFCURVE",
"555 168 CURVE",
"551 168 LINE",
"529 686 LINE",
"384 686 LINE",
"244 264 LINE SMOOTH",
"234 235 OFFCURVE",
"218 168 OFFCURVE",
"218 168 CURVE",
"214 168 LINE",
"193 686 LINE"
);
}
);
width = 774;
}
);
unicode = 0057;
},
{
glyphname = Wacute;
lastChange = "2015-02-05 02:37:04 +0000";
layers = (
{
layerId = UUID0;
name = "Regular Italic";
paths = (
{
closed = 1;
nodes = (
"67 686 LINE",
"118 0 LINE",
"253 0 LINE",
"399 437 LINE SMOOTH",
"409 466 OFFCURVE",
"425 534 OFFCURVE",
"425 534 CURVE",
"430 534 LINE",
"430 534 OFFCURVE",
"429 507 OFFCURVE",
"429 478 CURVE SMOOTH",
"429 464 OFFCURVE",
"429 449 OFFCURVE",
"430 437 CURVE SMOOTH",
"461 0 LINE",
"596 0 LINE",
"832 686 LINE",
"720 686 LINE",
"581 264 LINE SMOOTH",
"570 230 OFFCURVE",
"555 168 OFFCURVE",
"555 168 CURVE",
"551 168 LINE",
"529 686 LINE",
"384 686 LINE",
"244 264 LINE SMOOTH",
"234 235 OFFCURVE",
"218 168 OFFCURVE",
"218 168 CURVE",
"214 168 LINE",
"193 686 LINE"
);
},
{
closed = 1;
nodes = (
"485 883 LINE",
"399 751 LINE",
"498 751 LINE",
"606 880 LINE",
"605 883 LINE"
);
}
);
width = 774;
}
);
unicode = 1E82;
},
{
glyphname = Wcircumflex;
lastChange = "2015-02-05 02:37:04 +0000";
layers = (
{
layerId = UUID0;
name = "Regular Italic";
paths = (
{
closed = 1;
nodes = (
"67 686 LINE",
"118 0 LINE",
"253 0 LINE",
"399 437 LINE SMOOTH",
"409 466 OFFCURVE",
"425 534 OFFCURVE",
"425 534 CURVE",
"430 534 LINE",
"430 534 OFFCURVE",
"429 507 OFFCURVE",
"429 478 CURVE SMOOTH",
"429 464 OFFCURVE",
"429 449 OFFCURVE",
"430 437 CURVE SMOOTH",
"461 0 LINE",
"596 0 LINE",
"832 686 LINE",
"720 686 LINE",
"581 264 LINE SMOOTH",
"570 230 OFFCURVE",
"555 168 OFFCURVE",
"555 168 CURVE",
"551 168 LINE",
"529 686 LINE",
"384 686 LINE",
"244 264 LINE SMOOTH",
"234 235 OFFCURVE",
"218 168 OFFCURVE",
"218 168 CURVE",
"214 168 LINE",
"193 686 LINE"
);
},
{
closed = 1;
nodes = (
"431 883 LINE",
"327 748 LINE",
"420 748 LINE",
"471 817 LINE",
"505 748 LINE",
"595 748 LINE",
"529 883 LINE"
);
}
);
width = 774;
}
);
unicode = 0174;
},
{
glyphname = Wdieresis;
lastChange = "2015-02-05 02:37:04 +0000";
layers = (
{
layerId = UUID0;
name = "Regular Italic";
paths = (
{
closed = 1;
nodes = (
"67 686 LINE",
"118 0 LINE",
"253 0 LINE",
"399 437 LINE SMOOTH",
"409 466 OFFCURVE",
"425 534 OFFCURVE",
"425 534 CURVE",
"430 534 LINE",
"430 534 OFFCURVE",
"429 507 OFFCURVE",
"429 478 CURVE SMOOTH",
"429 464 OFFCURVE",
"429 449 OFFCURVE",
"430 437 CURVE SMOOTH",
"461 0 LINE",
"596 0 LINE",
"832 686 LINE",
"720 686 LINE",
"581 264 LINE SMOOTH",
"570 230 OFFCURVE",
"555 168 OFFCURVE",
"555 168 CURVE",
"551 168 LINE",
"529 686 LINE",
"384 686 LINE",
"244 264 LINE SMOOTH",
"234 235 OFFCURVE",
"218 168 OFFCURVE",
"218 168 CURVE",
"214 168 LINE",
"193 686 LINE"
);
},
{
closed = 1;
nodes = (
"518 883 LINE",
"503 774 LINE",
"603 774 LINE",
"618 883 LINE"
);
},
{
closed = 1;
nodes = (
"343 883 LINE",
"329 774 LINE",
"428 774 LINE",
"443 883 LINE"
);
}
);
width = 774;
}
);
unicode = 1E84;
},
{
glyphname = Wgrave;
lastChange = "2015-02-05 02:37:04 +0000";
layers = (
{
layerId = UUID0;
name = "Regular Italic";
paths = (
{
closed = 1;
nodes = (
"67 686 LINE",
"118 0 LINE",
"253 0 LINE",
"399 437 LINE SMOOTH",
"409 466 OFFCURVE",
"425 534 OFFCURVE",
"425 534 CURVE",
"430 534 LINE",
"430 534 OFFCURVE",
"429 507 OFFCURVE",
"429 478 CURVE SMOOTH",
"429 464 OFFCURVE",
"429 449 OFFCURVE",
"430 437 CURVE SMOOTH",
"461 0 LINE",
"596 0 LINE",
"832 686 LINE",
"720 686 LINE",
"581 264 LINE SMOOTH",
"570 230 OFFCURVE",
"555 168 OFFCURVE",
"555 168 CURVE",
"551 168 LINE",
"529 686 LINE",
"384 686 LINE",
"244 264 LINE SMOOTH",
"234 235 OFFCURVE",
"218 168 OFFCURVE",
"218 168 CURVE",
"214 168 LINE",
"193 686 LINE"
);
},
{
closed = 1;
nodes = (
"342 880 LINE",
"432 751 LINE",
"531 751 LINE",
"464 883 LINE",
"344 883 LINE"
);
}
);
width = 774;
}
);
unicode = 1E80;
},
{
glyphname = X;
lastChange = "2015-02-05 02:37:04 +0000";
layers = (
{
layerId = UUID0;
name = "Regular Italic";
paths = (
{
closed = 1;
nodes = (
"220 358 LINE",
"-29 0 LINE",
"110 0 LINE",
"270 238 LINE",
"274 238 LINE",
"369 0 LINE",
"511 0 LINE",
"360 358 LINE",
"589 686 LINE",
"447 686 LINE",
"310 477 LINE",
"306 477 LINE",
"224 686 LINE",
"84 686 LINE"
);
}
);
width = 547;
}
);
unicode = 0058;
},
{
glyphname = Y;
lastChange = "2015-02-05 02:37:04 +0000";
layers = (
{
anchors = (
{
name = top;
position = "{340, 686}";
}
);
layerId = UUID0;
name = "Regular Italic";
paths = (
{
closed = 1;
nodes = (
"215 259 LINE",
"179 0 LINE",
"305 0 LINE",
"342 259 LINE",
"608 686 LINE",
"479 686 LINE",
"300 385 LINE",
"296 385 LINE",
"197 686 LINE",
"67 686 LINE"
);
}
);
width = 547;
}
);
unicode = 0059;
},
{
glyphname = Yacute;
lastChange = "2015-02-05 02:37:04 +0000";
layers = (
{
layerId = UUID0;
name = "Regular Italic";
paths = (
{
closed = 1;
nodes = (
"215 259 LINE",
"179 0 LINE",
"305 0 LINE",
"342 259 LINE",
"608 686 LINE",
"479 686 LINE",
"300 385 LINE",
"296 385 LINE",
"197 686 LINE",
"67 686 LINE"
);
},
{
closed = 1;
nodes = (
"372 883 LINE",
"286 751 LINE",
"385 751 LINE",
"493 880 LINE",
"492 883 LINE"
);
}
);
width = 547;
}
);
unicode = 00DD;
},
{
glyphname = Ycircumflex;
lastChange = "2015-02-05 02:37:04 +0000";
layers = (
{
layerId = UUID0;
name = "Regular Italic";
paths = (
{
closed = 1;
nodes = (
"215 259 LINE",
"179 0 LINE",
"305 0 LINE",
"342 259 LINE",
"608 686 LINE",
"479 686 LINE",
"300 385 LINE",
"296 385 LINE",
"197 686 LINE",
"67 686 LINE"
);
},
{
closed = 1;
nodes = (
"318 883 LINE",
"214 748 LINE",
"307 748 LINE",
"358 817 LINE",
"392 748 LINE",
"482 748 LINE",
"416 883 LINE"
);
}
);
width = 547;
}
);
unicode = 0176;
},
{
glyphname = Ydieresis;
lastChange = "2015-02-05 02:37:04 +0000";
layers = (
{
layerId = UUID0;
name = "Regular Italic";
paths = (
{
closed = 1;
nodes = (
"215 259 LINE",
"179 0 LINE",
"305 0 LINE",
"342 259 LINE",
"608 686 LINE",
"479 686 LINE",
"300 385 LINE",
"296 385 LINE",
"197 686 LINE",
"67 686 LINE"
);
},
{
closed = 1;
nodes = (
"405 883 LINE",
"390 774 LINE",
"490 774 LINE",
"505 883 LINE"
);
},
{
closed = 1;
nodes = (
"230 883 LINE",
"216 774 LINE",
"315 774 LINE",
"330 883 LINE"
);
}
);
width = 547;
}
);
unicode = 0178;
},
{
glyphname = Ygrave;
lastChange = "2015-02-05 02:37:04 +0000";
layers = (
{
layerId = UUID0;
name = "Regular Italic";
paths = (
{
closed = 1;
nodes = (
"215 259 LINE",
"179 0 LINE",
"305 0 LINE",
"342 259 LINE",
"608 686 LINE",
"479 686 LINE",
"300 385 LINE",
"296 385 LINE",
"197 686 LINE",
"67 686 LINE"
);
},
{
closed = 1;
nodes = (
"229 880 LINE",
"319 751 LINE",
"418 751 LINE",
"351 883 LINE",
"231 883 LINE"
);
}
);
width = 547;
}
);
unicode = 1EF2;
},
{
glyphname = Z;
lastChange = "2015-02-05 02:37:04 +0000";
layers = (
{
anchors = (
{
name = top;
position = "{311, 686}";
}
);
layerId = UUID0;
name = "Regular Italic";
paths = (
{
closed = 1;
nodes = (
"-8 49 LINE",
"-12 0 LINE",
"443 0 LINE",
"459 114 LINE",
"181 114 LINE",
"525 636 LINE",
"529 686 LINE",
"101 686 LINE",
"85 572 LINE",
"335 572 LINE"
);
}
);
width = 501;
}
);
unicode = 005A;
},
{
glyphname = Zacute;
lastChange = "2015-02-05 02:37:04 +0000";
layers = (
{
layerId = UUID0;
name = "Regular Italic";
paths = (
{
closed = 1;
nodes = (
"-8 49 LINE",
"-12 0 LINE",
"443 0 LINE",
"459 114 LINE",
"181 114 LINE",
"525 636 LINE",
"529 686 LINE",
"101 686 LINE",
"85 572 LINE",
"335 572 LINE"
);
},
{
closed = 1;
nodes = (
"343 883 LINE",
"257 751 LINE",
"356 751 LINE",
"464 880 LINE",
"463 883 LINE"
);
}
);
width = 501;
}
);
unicode = 0179;
},
{
glyphname = Zcaron;
lastChange = "2015-02-05 02:37:04 +0000";
layers = (
{
layerId = UUID0;
name = "Regular Italic";
paths = (
{
closed = 1;
nodes = (
"-8 49 LINE",
"-12 0 LINE",
"443 0 LINE",
"459 114 LINE",
"181 114 LINE",
"525 636 LINE",
"529 686 LINE",
"101 686 LINE",
"85 572 LINE",
"335 572 LINE"
);
},
{
closed = 1;
nodes = (
"203 883 LINE",
"270 748 LINE",
"368 748 LINE",
"472 883 LINE",
"378 883 LINE",
"328 814 LINE",
"293 883 LINE"
);
}
);
width = 501;
}
);
unicode = 017D;
},
{
glyphname = Zdotaccent;
lastChange = "2015-02-05 02:37:04 +0000";
layers = (
{
layerId = UUID0;
name = "Regular Italic";
paths = (
{
closed = 1;
nodes = (
"-8 49 LINE",
"-12 0 LINE",
"443 0 LINE",
"459 114 LINE",
"181 114 LINE",
"525 636 LINE",
"529 686 LINE",
"101 686 LINE",
"85 572 LINE",
"335 572 LINE"
);
},
{
closed = 1;
nodes = (
"285 883 LINE",
"268 768 LINE",
"375 768 LINE",
"392 883 LINE"
);
}
);
width = 501;
}
);
unicode = 017B;
},
{
color = (31,255,0,1);
glyphname = a;
lastChange = "2015-02-05 02:37:04 +0000";
layers = (
{
anchors = (
{
name = ogonek;
position = "{408, 4}";
},
{
name = top;
position = "{254, 526}";
}
);
background = {
paths = (
{
closed = 1;
nodes = (
"196 -12 OFFCURVE",
"240 9 OFFCURVE",
"266 58 CURVE",
"276 14 OFFCURVE",
"305 -12 OFFCURVE",
"349 -12 CURVE SMOOTH",
"377 -12 OFFCURVE",
"396 -3 OFFCURVE",
"408 4 CURVE",
"420 89 LINE",
"402 89 LINE SMOOTH",
"388 89 OFFCURVE",
"378 97 OFFCURVE",
"378 117 CURVE SMOOTH",
"378 128 OFFCURVE",
"440 526 OFFCURVE",
"440 526 CURVE",
"367 526 LINE",
"327 463 LINE",
"308 510 OFFCURVE",
"272 538 OFFCURVE",
"217 538 CURVE SMOOTH",
"118 538 OFFCURVE",
"18 428 OFFCURVE",
"18 174 CURVE SMOOTH",
"18 50 OFFCURVE",
"71 -12 OFFCURVE",
"160 -12 CURVE SMOOTH"
);
},
{
closed = 1;
nodes = (
"153 91 OFFCURVE",
"137 126 OFFCURVE",
"137 190 CURVE SMOOTH",
"137 248 OFFCURVE",
"157 435 OFFCURVE",
"240 435 CURVE SMOOTH",
"281 435 OFFCURVE",
"293 399 OFFCURVE",
"293 338 CURVE SMOOTH",
"293 263 OFFCURVE",
"275 91 OFFCURVE",
"191 91 CURVE SMOOTH"
);
}
);
};
layerId = UUID0;
name = "Regular Italic";
paths = (
{
closed = 1;
nodes = (
"122 538 OFFCURVE",
"22 428 OFFCURVE",
"22 174 CURVE SMOOTH",
"22 50 OFFCURVE",
"75 -12 OFFCURVE",
"164 -12 CURVE SMOOTH",
"200 -12 OFFCURVE",
"244 9 OFFCURVE",
"270 58 CURVE",
"280 14 OFFCURVE",
"309 -12 OFFCURVE",
"353 -12 CURVE SMOOTH",
"381 -12 OFFCURVE",
"400 -3 OFFCURVE",
"412 4 CURVE",
"424 89 LINE",
"406 89 LINE SMOOTH",
"392 89 OFFCURVE",
"382 97 OFFCURVE",
"382 117 CURVE SMOOTH",
"382 128 OFFCURVE",
"444 526 OFFCURVE",
"444 526 CURVE",
"351 526 LINE",
"331 463 LINE",
"312 510 OFFCURVE",
"276 538 OFFCURVE",
"221 538 CURVE SMOOTH"
);
},
{
closed = 1;
nodes = (
"157 91 OFFCURVE",
"141 126 OFFCURVE",
"141 190 CURVE SMOOTH",
"141 248 OFFCURVE",
"161 435 OFFCURVE",
"244 435 CURVE SMOOTH",
"285 435 OFFCURVE",
"297 399 OFFCURVE",
"297 338 CURVE SMOOTH",
"297 263 OFFCURVE",
"279 91 OFFCURVE",
"195 91 CURVE SMOOTH"
);
}
);
width = 456;
}
);
unicode = 0061;
},
{
color = (31,255,0,1);
glyphname = aacute;
lastChange = "2015-02-05 02:37:04 +0000";
layers = (
{
background = {
paths = (
{
closed = 1;
nodes = (
"196 -12 OFFCURVE",
"240 9 OFFCURVE",
"266 58 CURVE",
"276 14 OFFCURVE",
"305 -12 OFFCURVE",
"349 -12 CURVE SMOOTH",
"377 -12 OFFCURVE",
"396 -3 OFFCURVE",
"408 4 CURVE",
"420 89 LINE",
"402 89 LINE SMOOTH",
"388 89 OFFCURVE",
"378 97 OFFCURVE",
"378 117 CURVE SMOOTH",
"378 128 OFFCURVE",
"440 526 OFFCURVE",
"440 526 CURVE",
"367 526 LINE",
"327 463 LINE",
"308 510 OFFCURVE",
"272 538 OFFCURVE",
"217 538 CURVE SMOOTH",
"118 538 OFFCURVE",
"18 428 OFFCURVE",
"18 174 CURVE SMOOTH",
"18 50 OFFCURVE",
"71 -12 OFFCURVE",
"160 -12 CURVE SMOOTH"
);
},
{
closed = 1;
nodes = (
"153 91 OFFCURVE",
"137 126 OFFCURVE",
"137 190 CURVE SMOOTH",
"137 248 OFFCURVE",
"157 435 OFFCURVE",
"240 435 CURVE SMOOTH",
"281 435 OFFCURVE",
"293 399 OFFCURVE",
"293 338 CURVE SMOOTH",
"293 263 OFFCURVE",
"275 91 OFFCURVE",
"191 91 CURVE SMOOTH"
);
}
);
};
layerId = UUID0;
name = "Regular Italic";
paths = (
{
closed = 1;
nodes = (
"287 723 LINE",
"201 591 LINE",
"300 591 LINE",
"408 720 LINE",
"407 723 LINE"
);
},
{
closed = 1;
nodes = (
"122 538 OFFCURVE",
"22 428 OFFCURVE",
"22 174 CURVE SMOOTH",
"22 50 OFFCURVE",
"75 -12 OFFCURVE",
"164 -12 CURVE SMOOTH",
"200 -12 OFFCURVE",
"244 9 OFFCURVE",
"270 58 CURVE",
"280 14 OFFCURVE",
"309 -12 OFFCURVE",
"353 -12 CURVE SMOOTH",
"381 -12 OFFCURVE",
"400 -3 OFFCURVE",
"412 4 CURVE",
"424 89 LINE",
"406 89 LINE SMOOTH",
"392 89 OFFCURVE",
"382 97 OFFCURVE",
"382 117 CURVE SMOOTH",
"382 128 OFFCURVE",
"444 526 OFFCURVE",
"444 526 CURVE",
"351 526 LINE",
"331 463 LINE",
"312 510 OFFCURVE",
"276 538 OFFCURVE",
"221 538 CURVE SMOOTH"
);
},
{
closed = 1;
nodes = (
"157 91 OFFCURVE",
"141 126 OFFCURVE",
"141 190 CURVE SMOOTH",
"141 248 OFFCURVE",
"161 435 OFFCURVE",
"244 435 CURVE SMOOTH",
"285 435 OFFCURVE",
"297 399 OFFCURVE",
"297 338 CURVE SMOOTH",
"297 263 OFFCURVE",
"279 91 OFFCURVE",
"195 91 CURVE SMOOTH"
);
}
);
width = 456;
}
);
unicode = 00E1;
},
{
color = (31,255,0,1);
glyphname = abreve;
lastChange = "2015-02-05 02:37:04 +0000";
layers = (
{
background = {
paths = (
{
closed = 1;
nodes = (
"196 -12 OFFCURVE",
"240 9 OFFCURVE",
"266 58 CURVE",
"276 14 OFFCURVE",
"305 -12 OFFCURVE",
"349 -12 CURVE SMOOTH",
"377 -12 OFFCURVE",
"396 -3 OFFCURVE",
"408 4 CURVE",
"420 89 LINE",
"402 89 LINE SMOOTH",
"388 89 OFFCURVE",
"378 97 OFFCURVE",
"378 117 CURVE SMOOTH",
"378 128 OFFCURVE",
"440 526 OFFCURVE",
"440 526 CURVE",
"367 526 LINE",
"327 463 LINE",
"308 510 OFFCURVE",
"272 538 OFFCURVE",
"217 538 CURVE SMOOTH",
"118 538 OFFCURVE",
"18 428 OFFCURVE",
"18 174 CURVE SMOOTH",
"18 50 OFFCURVE",
"71 -12 OFFCURVE",
"160 -12 CURVE SMOOTH"
);
},
{
closed = 1;
nodes = (
"153 91 OFFCURVE",
"137 126 OFFCURVE",
"137 190 CURVE SMOOTH",
"137 248 OFFCURVE",
"157 435 OFFCURVE",
"240 435 CURVE SMOOTH",
"281 435 OFFCURVE",
"293 399 OFFCURVE",
"293 338 CURVE SMOOTH",
"293 263 OFFCURVE",
"275 91 OFFCURVE",
"191 91 CURVE SMOOTH"
);
}
);
};
layerId = UUID0;
name = "Regular Italic";
paths = (
{
closed = 1;
nodes = (
"352 616 OFFCURVE",
"409 673 OFFCURVE",
"416 723 CURVE",
"342 723 LINE",
"338 709 OFFCURVE",
"311 690 OFFCURVE",
"277 690 CURVE SMOOTH",
"244 690 OFFCURVE",
"224 709 OFFCURVE",
"223 723 CURVE",
"149 723 LINE",
"148 719 OFFCURVE",
"148 716 OFFCURVE",
"148 712 CURVE SMOOTH",
"148 665 OFFCURVE",
"193 616 OFFCURVE",
"272 616 CURVE SMOOTH"
);
},
{
closed = 1;
nodes = (
"122 538 OFFCURVE",
"22 428 OFFCURVE",
"22 174 CURVE SMOOTH",
"22 50 OFFCURVE",
"75 -12 OFFCURVE",
"164 -12 CURVE SMOOTH",
"200 -12 OFFCURVE",
"244 9 OFFCURVE",
"270 58 CURVE",
"280 14 OFFCURVE",
"309 -12 OFFCURVE",
"353 -12 CURVE SMOOTH",
"381 -12 OFFCURVE",
"400 -3 OFFCURVE",
"412 4 CURVE",
"424 89 LINE",
"406 89 LINE SMOOTH",
"392 89 OFFCURVE",
"382 97 OFFCURVE",
"382 117 CURVE SMOOTH",
"382 128 OFFCURVE",
"444 526 OFFCURVE",
"444 526 CURVE",
"351 526 LINE",
"331 463 LINE",
"312 510 OFFCURVE",
"276 538 OFFCURVE",
"221 538 CURVE SMOOTH"
);
},
{
closed = 1;
nodes = (
"157 91 OFFCURVE",
"141 126 OFFCURVE",
"141 190 CURVE SMOOTH",
"141 248 OFFCURVE",
"161 435 OFFCURVE",
"244 435 CURVE SMOOTH",
"285 435 OFFCURVE",
"297 399 OFFCURVE",
"297 338 CURVE SMOOTH",
"297 263 OFFCURVE",
"279 91 OFFCURVE",
"195 91 CURVE SMOOTH"
);
}
);
width = 456;
}
);
unicode = 0103;
},
{
color = (31,255,0,1);
glyphname = acircumflex;
lastChange = "2015-02-05 02:37:04 +0000";
layers = (
{
background = {
paths = (
{
closed = 1;
nodes = (
"196 -12 OFFCURVE",
"240 9 OFFCURVE",
"266 58 CURVE",
"276 14 OFFCURVE",
"305 -12 OFFCURVE",
"349 -12 CURVE SMOOTH",
"377 -12 OFFCURVE",
"396 -3 OFFCURVE",
"408 4 CURVE",
"420 89 LINE",
"402 89 LINE SMOOTH",
"388 89 OFFCURVE",
"378 97 OFFCURVE",
"378 117 CURVE SMOOTH",
"378 128 OFFCURVE",
"440 526 OFFCURVE",
"440 526 CURVE",
"367 526 LINE",
"327 463 LINE",
"308 510 OFFCURVE",
"272 538 OFFCURVE",
"217 538 CURVE SMOOTH",
"118 538 OFFCURVE",
"18 428 OFFCURVE",
"18 174 CURVE SMOOTH",
"18 50 OFFCURVE",
"71 -12 OFFCURVE",
"160 -12 CURVE SMOOTH"
);
},
{
closed = 1;
nodes = (
"153 91 OFFCURVE",
"137 126 OFFCURVE",
"137 190 CURVE SMOOTH",
"137 248 OFFCURVE",
"157 435 OFFCURVE",
"240 435 CURVE SMOOTH",
"281 435 OFFCURVE",
"293 399 OFFCURVE",
"293 338 CURVE SMOOTH",
"293 263 OFFCURVE",
"275 91 OFFCURVE",
"191 91 CURVE SMOOTH"
);
}
);
};
layerId = UUID0;
name = "Regular Italic";
paths = (
{
closed = 1;
nodes = (
"233 723 LINE",
"129 588 LINE",
"222 588 LINE",
"273 657 LINE",
"307 588 LINE",
"397 588 LINE",
"331 723 LINE"
);
},
{
closed = 1;
nodes = (
"122 538 OFFCURVE",
"22 428 OFFCURVE",
"22 174 CURVE SMOOTH",
"22 50 OFFCURVE",
"75 -12 OFFCURVE",
"164 -12 CURVE SMOOTH",
"200 -12 OFFCURVE",
"244 9 OFFCURVE",
"270 58 CURVE",
"280 14 OFFCURVE",
"309 -12 OFFCURVE",
"353 -12 CURVE SMOOTH",
"381 -12 OFFCURVE",
"400 -3 OFFCURVE",
"412 4 CURVE",
"424 89 LINE",
"406 89 LINE SMOOTH",
"392 89 OFFCURVE",
"382 97 OFFCURVE",
"382 117 CURVE SMOOTH",
"382 128 OFFCURVE",
"444 526 OFFCURVE",
"444 526 CURVE",
"351 526 LINE",
"331 463 LINE",
"312 510 OFFCURVE",
"276 538 OFFCURVE",
"221 538 CURVE SMOOTH"
);
},
{
closed = 1;
nodes = (
"157 91 OFFCURVE",
"141 126 OFFCURVE",
"141 190 CURVE SMOOTH",
"141 248 OFFCURVE",
"161 435 OFFCURVE",
"244 435 CURVE SMOOTH",
"285 435 OFFCURVE",
"297 399 OFFCURVE",
"297 338 CURVE SMOOTH",
"297 263 OFFCURVE",
"279 91 OFFCURVE",
"195 91 CURVE SMOOTH"
);
}
);
width = 456;
}
);
unicode = 00E2;
},
{
color = (31,255,0,1);
glyphname = adieresis;
lastChange = "2015-02-05 02:37:04 +0000";
layers = (
{
background = {
paths = (
{
closed = 1;
nodes = (
"196 -12 OFFCURVE",
"240 9 OFFCURVE",
"266 58 CURVE",
"276 14 OFFCURVE",
"305 -12 OFFCURVE",
"349 -12 CURVE SMOOTH",
"377 -12 OFFCURVE",
"396 -3 OFFCURVE",
"408 4 CURVE",
"420 89 LINE",
"402 89 LINE SMOOTH",
"388 89 OFFCURVE",
"378 97 OFFCURVE",
"378 117 CURVE SMOOTH",
"378 128 OFFCURVE",
"440 526 OFFCURVE",
"440 526 CURVE",
"367 526 LINE",
"327 463 LINE",
"308 510 OFFCURVE",
"272 538 OFFCURVE",
"217 538 CURVE SMOOTH",
"118 538 OFFCURVE",
"18 428 OFFCURVE",
"18 174 CURVE SMOOTH",
"18 50 OFFCURVE",
"71 -12 OFFCURVE",
"160 -12 CURVE SMOOTH"
);
},
{
closed = 1;
nodes = (
"153 91 OFFCURVE",
"137 126 OFFCURVE",
"137 190 CURVE SMOOTH",
"137 248 OFFCURVE",
"157 435 OFFCURVE",
"240 435 CURVE SMOOTH",
"281 435 OFFCURVE",
"293 399 OFFCURVE",
"293 338 CURVE SMOOTH",
"293 263 OFFCURVE",
"275 91 OFFCURVE",
"191 91 CURVE SMOOTH"
);
}
);
};
layerId = UUID0;
name = "Regular Italic";
paths = (
{
closed = 1;
nodes = (
"320 723 LINE",
"305 614 LINE",
"405 614 LINE",
"420 723 LINE"
);
},
{
closed = 1;
nodes = (
"145 723 LINE",
"131 614 LINE",
"230 614 LINE",
"245 723 LINE"
);
},
{
closed = 1;
nodes = (
"122 538 OFFCURVE",
"22 428 OFFCURVE",
"22 174 CURVE SMOOTH",
"22 50 OFFCURVE",
"75 -12 OFFCURVE",
"164 -12 CURVE SMOOTH",
"200 -12 OFFCURVE",
"244 9 OFFCURVE",
"270 58 CURVE",
"280 14 OFFCURVE",
"309 -12 OFFCURVE",
"353 -12 CURVE SMOOTH",
"381 -12 OFFCURVE",
"400 -3 OFFCURVE",
"412 4 CURVE",
"424 89 LINE",
"406 89 LINE SMOOTH",
"392 89 OFFCURVE",
"382 97 OFFCURVE",
"382 117 CURVE SMOOTH",
"382 128 OFFCURVE",
"444 526 OFFCURVE",
"444 526 CURVE",
"351 526 LINE",
"331 463 LINE",
"312 510 OFFCURVE",
"276 538 OFFCURVE",
"221 538 CURVE SMOOTH"
);
},
{
closed = 1;
nodes = (
"157 91 OFFCURVE",
"141 126 OFFCURVE",
"141 190 CURVE SMOOTH",
"141 248 OFFCURVE",
"161 435 OFFCURVE",
"244 435 CURVE SMOOTH",
"285 435 OFFCURVE",
"297 399 OFFCURVE",
"297 338 CURVE SMOOTH",
"297 263 OFFCURVE",
"279 91 OFFCURVE",
"195 91 CURVE SMOOTH"
);
}
);
width = 456;
}
);
unicode = 00E4;
},
{
color = (31,255,0,1);
glyphname = agrave;
lastChange = "2015-02-05 02:37:04 +0000";
layers = (
{
background = {
paths = (
{
closed = 1;
nodes = (
"196 -12 OFFCURVE",
"240 9 OFFCURVE",
"266 58 CURVE",
"276 14 OFFCURVE",
"305 -12 OFFCURVE",
"349 -12 CURVE SMOOTH",
"377 -12 OFFCURVE",
"396 -3 OFFCURVE",
"408 4 CURVE",
"420 89 LINE",
"402 89 LINE SMOOTH",
"388 89 OFFCURVE",
"378 97 OFFCURVE",
"378 117 CURVE SMOOTH",
"378 128 OFFCURVE",
"440 526 OFFCURVE",
"440 526 CURVE",
"367 526 LINE",
"327 463 LINE",
"308 510 OFFCURVE",
"272 538 OFFCURVE",
"217 538 CURVE SMOOTH",
"118 538 OFFCURVE",
"18 428 OFFCURVE",
"18 174 CURVE SMOOTH",
"18 50 OFFCURVE",
"71 -12 OFFCURVE",
"160 -12 CURVE SMOOTH"
);
},
{
closed = 1;
nodes = (
"153 91 OFFCURVE",
"137 126 OFFCURVE",
"137 190 CURVE SMOOTH",
"137 248 OFFCURVE",
"157 435 OFFCURVE",
"240 435 CURVE SMOOTH",
"281 435 OFFCURVE",
"293 399 OFFCURVE",
"293 338 CURVE SMOOTH",
"293 263 OFFCURVE",
"275 91 OFFCURVE",
"191 91 CURVE SMOOTH"
);
}
);
};
layerId = UUID0;
name = "Regular Italic";
paths = (
{
closed = 1;
nodes = (
"143 720 LINE",
"233 591 LINE",
"332 591 LINE",
"265 723 LINE",
"145 723 LINE"
);
},
{
closed = 1;
nodes = (
"122 538 OFFCURVE",
"22 428 OFFCURVE",
"22 174 CURVE SMOOTH",
"22 50 OFFCURVE",
"75 -12 OFFCURVE",
"164 -12 CURVE SMOOTH",
"200 -12 OFFCURVE",
"244 9 OFFCURVE",
"270 58 CURVE",
"280 14 OFFCURVE",
"309 -12 OFFCURVE",
"353 -12 CURVE SMOOTH",
"381 -12 OFFCURVE",
"400 -3 OFFCURVE",
"412 4 CURVE",
"424 89 LINE",
"406 89 LINE SMOOTH",
"392 89 OFFCURVE",
"382 97 OFFCURVE",
"382 117 CURVE SMOOTH",
"382 128 OFFCURVE",
"444 526 OFFCURVE",
"444 526 CURVE",
"351 526 LINE",
"331 463 LINE",
"312 510 OFFCURVE",
"276 538 OFFCURVE",
"221 538 CURVE SMOOTH"
);
},
{
closed = 1;
nodes = (
"157 91 OFFCURVE",
"141 126 OFFCURVE",
"141 190 CURVE SMOOTH",
"141 248 OFFCURVE",
"161 435 OFFCURVE",
"244 435 CURVE SMOOTH",
"285 435 OFFCURVE",
"297 399 OFFCURVE",
"297 338 CURVE SMOOTH",
"297 263 OFFCURVE",
"279 91 OFFCURVE",
"195 91 CURVE SMOOTH"
);
}
);
width = 456;
}
);
unicode = 00E0;
},
{
color = (31,255,0,1);
glyphname = amacron;
lastChange = "2015-02-05 02:37:04 +0000";
layers = (
{
background = {
paths = (
{
closed = 1;
nodes = (
"196 -12 OFFCURVE",
"240 9 OFFCURVE",
"266 58 CURVE",
"276 14 OFFCURVE",
"305 -12 OFFCURVE",
"349 -12 CURVE SMOOTH",
"377 -12 OFFCURVE",
"396 -3 OFFCURVE",
"408 4 CURVE",
"420 89 LINE",
"402 89 LINE SMOOTH",
"388 89 OFFCURVE",
"378 97 OFFCURVE",
"378 117 CURVE SMOOTH",
"378 128 OFFCURVE",
"440 526 OFFCURVE",
"440 526 CURVE",
"367 526 LINE",
"327 463 LINE",
"308 510 OFFCURVE",
"272 538 OFFCURVE",
"217 538 CURVE SMOOTH",
"118 538 OFFCURVE",
"18 428 OFFCURVE",
"18 174 CURVE SMOOTH",
"18 50 OFFCURVE",
"71 -12 OFFCURVE",
"160 -12 CURVE SMOOTH"
);
},
{
closed = 1;
nodes = (
"153 91 OFFCURVE",
"137 126 OFFCURVE",
"137 190 CURVE SMOOTH",
"137 248 OFFCURVE",
"157 435 OFFCURVE",
"240 435 CURVE SMOOTH",
"281 435 OFFCURVE",
"293 399 OFFCURVE",
"293 338 CURVE SMOOTH",
"293 263 OFFCURVE",
"275 91 OFFCURVE",
"191 91 CURVE SMOOTH"
);
}
);
};
layerId = UUID0;
name = "Regular Italic";
paths = (
{
closed = 1;
nodes = (
"148 686 LINE",
"135 599 LINE",
"390 599 LINE",
"403 686 LINE"
);
},
{
closed = 1;
nodes = (
"122 538 OFFCURVE",
"22 428 OFFCURVE",
"22 174 CURVE SMOOTH",
"22 50 OFFCURVE",
"75 -12 OFFCURVE",
"164 -12 CURVE SMOOTH",
"200 -12 OFFCURVE",
"244 9 OFFCURVE",
"270 58 CURVE",
"280 14 OFFCURVE",
"309 -12 OFFCURVE",
"353 -12 CURVE SMOOTH",
"381 -12 OFFCURVE",
"400 -3 OFFCURVE",
"412 4 CURVE",
"424 89 LINE",
"406 89 LINE SMOOTH",
"392 89 OFFCURVE",
"382 97 OFFCURVE",
"382 117 CURVE SMOOTH",
"382 128 OFFCURVE",
"444 526 OFFCURVE",
"444 526 CURVE",
"351 526 LINE",
"331 463 LINE",
"312 510 OFFCURVE",
"276 538 OFFCURVE",
"221 538 CURVE SMOOTH"
);
},
{
closed = 1;
nodes = (
"157 91 OFFCURVE",
"141 126 OFFCURVE",
"141 190 CURVE SMOOTH",
"141 248 OFFCURVE",
"161 435 OFFCURVE",
"244 435 CURVE SMOOTH",
"285 435 OFFCURVE",
"297 399 OFFCURVE",
"297 338 CURVE SMOOTH",
"297 263 OFFCURVE",
"279 91 OFFCURVE",
"195 91 CURVE SMOOTH"
);
}
);
width = 456;
}
);
unicode = 0101;
},
{
color = (31,255,0,1);
glyphname = aogonek;
lastChange = "2015-02-05 02:37:04 +0000";
layers = (
{
background = {
paths = (
{
closed = 1;
nodes = (
"122 538 OFFCURVE",
"22 428 OFFCURVE",
"22 174 CURVE SMOOTH",
"22 50 OFFCURVE",
"75 -12 OFFCURVE",
"164 -12 CURVE SMOOTH",
"200 -12 OFFCURVE",
"244 9 OFFCURVE",
"270 58 CURVE",
"280 14 OFFCURVE",
"309 -12 OFFCURVE",
"353 -12 CURVE SMOOTH",
"381 -12 OFFCURVE",
"400 -3 OFFCURVE",
"412 4 CURVE",
"424 89 LINE",
"406 89 LINE SMOOTH",
"392 89 OFFCURVE",
"382 97 OFFCURVE",
"382 117 CURVE SMOOTH",
"382 128 OFFCURVE",
"444 526 OFFCURVE",
"444 526 CURVE",
"351 526 LINE",
"331 463 LINE",
"312 510 OFFCURVE",
"276 538 OFFCURVE",
"221 538 CURVE SMOOTH"
);
},
{
closed = 1;
nodes = (
"157 91 OFFCURVE",
"141 126 OFFCURVE",
"141 190 CURVE SMOOTH",
"141 248 OFFCURVE",
"161 435 OFFCURVE",
"244 435 CURVE SMOOTH",
"285 435 OFFCURVE",
"297 399 OFFCURVE",
"297 338 CURVE SMOOTH",
"297 263 OFFCURVE",
"279 91 OFFCURVE",
"195 91 CURVE SMOOTH"
);
}
);
};
layerId = UUID0;
name = "Regular Italic";
paths = (
{
closed = 1;
nodes = (
"200 -12 OFFCURVE",
"244 9 OFFCURVE",
"270 58 CURVE",
"277 27 OFFCURVE",
"293 5 OFFCURVE",
"317 -5 CURVE",
"291 -30 OFFCURVE",
"269 -62 OFFCURVE",
"269 -109 CURVE SMOOTH",
"269 -168 OFFCURVE",
"314 -186 OFFCURVE",
"356 -186 CURVE SMOOTH",
"378 -186 OFFCURVE",
"400 -181 OFFCURVE",
"424 -172 CURVE",
"432 -117 LINE",
"410 -117 LINE SMOOTH",
"382 -117 OFFCURVE",
"371 -99 OFFCURVE",
"371 -77 CURVE SMOOTH",
"371 -45 OFFCURVE",
"396 -12 OFFCURVE",
"412 4 CURVE",
"424 89 LINE",
"406 89 LINE SMOOTH",
"392 89 OFFCURVE",
"382 97 OFFCURVE",
"382 117 CURVE SMOOTH",
"382 128 OFFCURVE",
"444 526 OFFCURVE",
"444 526 CURVE",
"351 526 LINE",
"331 463 LINE",
"312 510 OFFCURVE",
"276 538 OFFCURVE",
"221 538 CURVE SMOOTH",
"122 538 OFFCURVE",
"22 428 OFFCURVE",
"22 174 CURVE SMOOTH",
"22 50 OFFCURVE",
"75 -12 OFFCURVE",
"164 -12 CURVE SMOOTH"
);
},
{
closed = 1;
nodes = (
"157 91 OFFCURVE",
"141 126 OFFCURVE",
"141 190 CURVE SMOOTH",
"141 248 OFFCURVE",
"161 435 OFFCURVE",
"244 435 CURVE SMOOTH",
"285 435 OFFCURVE",
"297 399 OFFCURVE",
"297 338 CURVE SMOOTH",
"297 263 OFFCURVE",
"279 91 OFFCURVE",
"195 91 CURVE SMOOTH"
);
}
);
width = 456;
}
);
unicode = 0105;
},
{
color = (31,255,0,1);
glyphname = aring;
lastChange = "2015-02-05 02:37:04 +0000";
layers = (
{
background = {
paths = (
{
closed = 1;
nodes = (
"196 -12 OFFCURVE",
"240 9 OFFCURVE",
"266 58 CURVE",
"276 14 OFFCURVE",
"305 -12 OFFCURVE",
"349 -12 CURVE SMOOTH",
"377 -12 OFFCURVE",
"396 -3 OFFCURVE",
"408 4 CURVE",
"420 89 LINE",
"402 89 LINE SMOOTH",
"388 89 OFFCURVE",
"378 97 OFFCURVE",
"378 117 CURVE SMOOTH",
"378 128 OFFCURVE",
"440 526 OFFCURVE",
"440 526 CURVE",
"367 526 LINE",
"327 463 LINE",
"308 510 OFFCURVE",
"272 538 OFFCURVE",
"217 538 CURVE SMOOTH",
"118 538 OFFCURVE",
"18 428 OFFCURVE",
"18 174 CURVE SMOOTH",
"18 50 OFFCURVE",
"71 -12 OFFCURVE",
"160 -12 CURVE SMOOTH"
);
},
{
closed = 1;
nodes = (
"153 91 OFFCURVE",
"137 126 OFFCURVE",
"137 190 CURVE SMOOTH",
"137 248 OFFCURVE",
"157 435 OFFCURVE",
"240 435 CURVE SMOOTH",
"281 435 OFFCURVE",
"293 399 OFFCURVE",
"293 338 CURVE SMOOTH",
"293 263 OFFCURVE",
"275 91 OFFCURVE",
"191 91 CURVE SMOOTH"
);
}
);
};
layerId = UUID0;
name = "Regular Italic";
paths = (
{
closed = 1;
nodes = (
"326 561 OFFCURVE",
"369 604 OFFCURVE",
"369 657 CURVE SMOOTH",
"369 709 OFFCURVE",
"327 753 OFFCURVE",
"273 753 CURVE SMOOTH",
"220 753 OFFCURVE",
"177 710 OFFCURVE",
"177 657 CURVE SMOOTH",
"177 603 OFFCURVE",
"221 561 OFFCURVE",
"273 561 CURVE SMOOTH"
);
},
{
closed = 1;
nodes = (
"247 611 OFFCURVE",
"227 631 OFFCURVE",
"227 657 CURVE SMOOTH",
"227 683 OFFCURVE",
"247 703 OFFCURVE",
"273 703 CURVE SMOOTH",
"298 703 OFFCURVE",
"319 683 OFFCURVE",
"319 657 CURVE SMOOTH",
"319 631 OFFCURVE",
"298 611 OFFCURVE",
"273 611 CURVE SMOOTH"
);
},
{
closed = 1;
nodes = (
"122 538 OFFCURVE",
"22 428 OFFCURVE",
"22 174 CURVE SMOOTH",
"22 50 OFFCURVE",
"75 -12 OFFCURVE",
"164 -12 CURVE SMOOTH",
"200 -12 OFFCURVE",
"244 9 OFFCURVE",
"270 58 CURVE",
"280 14 OFFCURVE",
"309 -12 OFFCURVE",
"353 -12 CURVE SMOOTH",
"381 -12 OFFCURVE",
"400 -3 OFFCURVE",
"412 4 CURVE",
"424 89 LINE",
"406 89 LINE SMOOTH",
"392 89 OFFCURVE",
"382 97 OFFCURVE",
"382 117 CURVE SMOOTH",
"382 128 OFFCURVE",
"444 526 OFFCURVE",
"444 526 CURVE",
"351 526 LINE",
"331 463 LINE",
"312 510 OFFCURVE",
"276 538 OFFCURVE",
"221 538 CURVE SMOOTH"
);
},
{
closed = 1;
nodes = (
"157 91 OFFCURVE",
"141 126 OFFCURVE",
"141 190 CURVE SMOOTH",
"141 248 OFFCURVE",
"161 435 OFFCURVE",
"244 435 CURVE SMOOTH",
"285 435 OFFCURVE",
"297 399 OFFCURVE",
"297 338 CURVE SMOOTH",
"297 263 OFFCURVE",
"279 91 OFFCURVE",
"195 91 CURVE SMOOTH"
);
}
);
width = 456;
}
);
unicode = 00E5;
},
{
color = (31,255,0,1);
glyphname = aringacute;
lastChange = "2015-02-05 02:37:04 +0000";
layers = (
{
background = {
paths = (
{
closed = 1;
nodes = (
"196 -12 OFFCURVE",
"240 9 OFFCURVE",
"266 58 CURVE",
"276 14 OFFCURVE",
"305 -12 OFFCURVE",
"349 -12 CURVE SMOOTH",
"377 -12 OFFCURVE",
"396 -3 OFFCURVE",
"408 4 CURVE",
"420 89 LINE",
"402 89 LINE SMOOTH",
"388 89 OFFCURVE",
"378 97 OFFCURVE",
"378 117 CURVE SMOOTH",
"378 128 OFFCURVE",
"440 526 OFFCURVE",
"440 526 CURVE",
"367 526 LINE",
"327 463 LINE",
"308 510 OFFCURVE",
"272 538 OFFCURVE",
"217 538 CURVE SMOOTH",
"118 538 OFFCURVE",
"18 428 OFFCURVE",
"18 174 CURVE SMOOTH",
"18 50 OFFCURVE",
"71 -12 OFFCURVE",
"160 -12 CURVE SMOOTH"
);
},
{
closed = 1;
nodes = (
"153 91 OFFCURVE",
"137 126 OFFCURVE",
"137 190 CURVE SMOOTH",
"137 248 OFFCURVE",
"157 435 OFFCURVE",
"240 435 CURVE SMOOTH",
"281 435 OFFCURVE",
"293 399 OFFCURVE",
"293 338 CURVE SMOOTH",
"293 263 OFFCURVE",
"275 91 OFFCURVE",
"191 91 CURVE SMOOTH"
);
}
);
};
layerId = UUID0;
name = "Regular Italic";
paths = (
{
closed = 1;
nodes = (
"301 883 LINE",
"226 768 LINE",
"325 768 LINE",
"422 880 LINE",
"421 883 LINE"
);
},
{
closed = 1;
nodes = (
"326 560 OFFCURVE",
"369 602 OFFCURVE",
"369 654 CURVE SMOOTH",
"369 704 OFFCURVE",
"327 747 OFFCURVE",
"273 747 CURVE SMOOTH",
"220 747 OFFCURVE",
"177 705 OFFCURVE",
"177 654 CURVE SMOOTH",
"177 601 OFFCURVE",
"221 560 OFFCURVE",
"273 560 CURVE SMOOTH"
);
},
{
closed = 1;
nodes = (
"247 608 OFFCURVE",
"227 628 OFFCURVE",
"227 654 CURVE SMOOTH",
"227 679 OFFCURVE",
"247 699 OFFCURVE",
"273 699 CURVE SMOOTH",
"298 699 OFFCURVE",
"319 679 OFFCURVE",
"319 654 CURVE SMOOTH",
"319 628 OFFCURVE",
"298 608 OFFCURVE",
"273 608 CURVE SMOOTH"
);
},
{
closed = 1;
nodes = (
"122 538 OFFCURVE",
"22 428 OFFCURVE",
"22 174 CURVE SMOOTH",
"22 50 OFFCURVE",
"75 -12 OFFCURVE",
"164 -12 CURVE SMOOTH",
"200 -12 OFFCURVE",
"244 9 OFFCURVE",
"270 58 CURVE",
"280 14 OFFCURVE",
"309 -12 OFFCURVE",
"353 -12 CURVE SMOOTH",
"381 -12 OFFCURVE",
"400 -3 OFFCURVE",
"412 4 CURVE",
"424 89 LINE",
"406 89 LINE SMOOTH",
"392 89 OFFCURVE",
"382 97 OFFCURVE",
"382 117 CURVE SMOOTH",
"382 128 OFFCURVE",
"444 526 OFFCURVE",
"444 526 CURVE",
"351 526 LINE",
"331 463 LINE",
"312 510 OFFCURVE",
"276 538 OFFCURVE",
"221 538 CURVE SMOOTH"
);
},
{
closed = 1;
nodes = (
"157 91 OFFCURVE",
"141 126 OFFCURVE",
"141 190 CURVE SMOOTH",
"141 248 OFFCURVE",
"161 435 OFFCURVE",
"244 435 CURVE SMOOTH",
"285 435 OFFCURVE",
"297 399 OFFCURVE",
"297 338 CURVE SMOOTH",
"297 263 OFFCURVE",
"279 91 OFFCURVE",
"195 91 CURVE SMOOTH"
);
}
);
width = 456;
}
);
unicode = 01FB;
},
{
color = (31,255,0,1);
glyphname = atilde;
lastChange = "2015-02-05 02:37:04 +0000";
layers = (
{
background = {
paths = (
{
closed = 1;
nodes = (
"196 -12 OFFCURVE",
"240 9 OFFCURVE",
"266 58 CURVE",
"276 14 OFFCURVE",
"305 -12 OFFCURVE",
"349 -12 CURVE SMOOTH",
"377 -12 OFFCURVE",
"396 -3 OFFCURVE",
"408 4 CURVE",
"420 89 LINE",
"402 89 LINE SMOOTH",
"388 89 OFFCURVE",
"378 97 OFFCURVE",
"378 117 CURVE SMOOTH",
"378 128 OFFCURVE",
"440 526 OFFCURVE",
"440 526 CURVE",
"367 526 LINE",
"327 463 LINE",
"308 510 OFFCURVE",
"272 538 OFFCURVE",
"217 538 CURVE SMOOTH",
"118 538 OFFCURVE",
"18 428 OFFCURVE",
"18 174 CURVE SMOOTH",
"18 50 OFFCURVE",
"71 -12 OFFCURVE",
"160 -12 CURVE SMOOTH"
);
},
{
closed = 1;
nodes = (
"153 91 OFFCURVE",
"137 126 OFFCURVE",
"137 190 CURVE SMOOTH",
"137 248 OFFCURVE",
"157 435 OFFCURVE",
"240 435 CURVE SMOOTH",
"281 435 OFFCURVE",
"293 399 OFFCURVE",
"293 338 CURVE SMOOTH",
"293 263 OFFCURVE",
"275 91 OFFCURVE",
"191 91 CURVE SMOOTH"
);
}
);
};
layerId = UUID0;
name = "Regular Italic";
paths = (
{
closed = 1;
nodes = (
"167 601 LINE",
"175 628 OFFCURVE",
"190 638 OFFCURVE",
"211 638 CURVE SMOOTH",
"255 638 OFFCURVE",
"289 601 OFFCURVE",
"336 601 CURVE SMOOTH",
"407 601 OFFCURVE",
"451 668 OFFCURVE",
"451 723 CURVE",
"386 723 LINE",
"378 695 OFFCURVE",
"363 686 OFFCURVE",
"342 686 CURVE SMOOTH",
"298 686 OFFCURVE",
"264 723 OFFCURVE",
"216 723 CURVE SMOOTH",
"146 723 OFFCURVE",
"103 654 OFFCURVE",
"103 601 CURVE"
);
},
{
closed = 1;
nodes = (
"122 538 OFFCURVE",
"22 428 OFFCURVE",
"22 174 CURVE SMOOTH",
"22 50 OFFCURVE",
"75 -12 OFFCURVE",
"164 -12 CURVE SMOOTH",
"200 -12 OFFCURVE",
"244 9 OFFCURVE",
"270 58 CURVE",
"280 14 OFFCURVE",
"309 -12 OFFCURVE",
"353 -12 CURVE SMOOTH",
"381 -12 OFFCURVE",
"400 -3 OFFCURVE",
"412 4 CURVE",
"424 89 LINE",
"406 89 LINE SMOOTH",
"392 89 OFFCURVE",
"382 97 OFFCURVE",
"382 117 CURVE SMOOTH",
"382 128 OFFCURVE",
"444 526 OFFCURVE",
"444 526 CURVE",
"351 526 LINE",
"331 463 LINE",
"312 510 OFFCURVE",
"276 538 OFFCURVE",
"221 538 CURVE SMOOTH"
);
},
{
closed = 1;
nodes = (
"157 91 OFFCURVE",
"141 126 OFFCURVE",
"141 190 CURVE SMOOTH",
"141 248 OFFCURVE",
"161 435 OFFCURVE",
"244 435 CURVE SMOOTH",
"285 435 OFFCURVE",
"297 399 OFFCURVE",
"297 338 CURVE SMOOTH",
"297 263 OFFCURVE",
"279 91 OFFCURVE",
"195 91 CURVE SMOOTH"
);
}
);
width = 456;
}
);
unicode = 00E3;
},
{
glyphname = ae;
lastChange = "2015-02-05 02:37:04 +0000";
layers = (
{
anchors = (
{
name = top;
position = "{405, 526}";
}
);
layerId = UUID0;
name = "Regular Italic";
paths = (
{
closed = 1;
nodes = (
"19 13 OFFCURVE",
"101 -12 OFFCURVE",
"162 -12 CURVE SMOOTH",
"231 -12 OFFCURVE",
"280 16 OFFCURVE",
"321 57 CURVE",
"348 10 OFFCURVE",
"396 -12 OFFCURVE",
"467 -12 CURVE SMOOTH",
"591 -12 OFFCURVE",
"647 77 OFFCURVE",
"671 182 CURVE",
"548 182 LINE",
"537 130 OFFCURVE",
"512 85 OFFCURVE",
"472 85 CURVE SMOOTH",
"432 85 OFFCURVE",
"417 119 OFFCURVE",
"417 187 CURVE SMOOTH",
"417 194 OFFCURVE",
"417 212 OFFCURVE",
"419 233 CURVE",
"682 233 LINE",
"690 275 OFFCURVE",
"693 320 OFFCURVE",
"693 359 CURVE SMOOTH",
"693 479 OFFCURVE",
"638 538 OFFCURVE",
"530 538 CURVE SMOOTH",
"475 538 OFFCURVE",
"433 521 OFFCURVE",
"400 494 CURVE",
"375 522 OFFCURVE",
"334 538 OFFCURVE",
"279 538 CURVE SMOOTH",
"160 538 OFFCURVE",
"81 472 OFFCURVE",
"81 370 CURVE",
"197 370 LINE",
"202 410 OFFCURVE",
"219 440 OFFCURVE",
"268 440 CURVE SMOOTH",
"304 440 OFFCURVE",
"314 421 OFFCURVE",
"314 395 CURVE SMOOTH",
"314 389 OFFCURVE",
"314 382 OFFCURVE",
"313 375 CURVE SMOOTH",
"307 320 LINE",
"158 320 OFFCURVE",
"19 276 OFFCURVE",
"19 129 CURVE SMOOTH"
);
},
{
closed = 1;
nodes = (
"432 320 LINE",
"446 382 OFFCURVE",
"473 441 OFFCURVE",
"523 441 CURVE SMOOTH",
"559 441 OFFCURVE",
"572 412 OFFCURVE",
"572 359 CURVE SMOOTH",
"572 354 OFFCURVE",
"572 349 OFFCURVE",
"570 320 CURVE"
);
},
{
closed = 1;
nodes = (
"144 213 OFFCURVE",
"222 233 OFFCURVE",
"294 233 CURVE",
"290 203 LINE SMOOTH",
"282 141 OFFCURVE",
"251 88 OFFCURVE",
"196 88 CURVE SMOOTH",
"160 88 OFFCURVE",
"144 105 OFFCURVE",
"144 134 CURVE SMOOTH"
);
}
);
width = 729;
}
);
unicode = 00E6;
},
{
glyphname = aeacute;
lastChange = "2015-02-05 02:37:04 +0000";
layers = (
{
layerId = UUID0;
name = "Regular Italic";
paths = (
{
closed = 1;
nodes = (
"19 13 OFFCURVE",
"101 -12 OFFCURVE",
"162 -12 CURVE SMOOTH",
"231 -12 OFFCURVE",
"280 16 OFFCURVE",
"321 57 CURVE",
"348 10 OFFCURVE",
"396 -12 OFFCURVE",
"467 -12 CURVE SMOOTH",
"591 -12 OFFCURVE",
"647 77 OFFCURVE",
"671 182 CURVE",
"548 182 LINE",
"537 130 OFFCURVE",
"512 85 OFFCURVE",
"472 85 CURVE SMOOTH",
"432 85 OFFCURVE",
"417 119 OFFCURVE",
"417 187 CURVE SMOOTH",
"417 194 OFFCURVE",
"417 212 OFFCURVE",
"419 233 CURVE",
"682 233 LINE",
"690 275 OFFCURVE",
"693 320 OFFCURVE",
"693 359 CURVE SMOOTH",
"693 479 OFFCURVE",
"638 538 OFFCURVE",
"530 538 CURVE SMOOTH",
"475 538 OFFCURVE",
"433 521 OFFCURVE",
"400 494 CURVE",
"375 522 OFFCURVE",
"334 538 OFFCURVE",
"279 538 CURVE SMOOTH",
"160 538 OFFCURVE",
"81 472 OFFCURVE",
"81 370 CURVE",
"197 370 LINE",
"202 410 OFFCURVE",
"219 440 OFFCURVE",
"268 440 CURVE SMOOTH",
"304 440 OFFCURVE",
"314 421 OFFCURVE",
"314 395 CURVE SMOOTH",
"314 389 OFFCURVE",
"314 382 OFFCURVE",
"313 375 CURVE SMOOTH",
"307 320 LINE",
"158 320 OFFCURVE",
"19 276 OFFCURVE",
"19 129 CURVE SMOOTH"
);
},
{
closed = 1;
nodes = (
"432 320 LINE",
"446 382 OFFCURVE",
"473 441 OFFCURVE",
"523 441 CURVE SMOOTH",
"559 441 OFFCURVE",
"572 412 OFFCURVE",
"572 359 CURVE SMOOTH",
"572 354 OFFCURVE",
"572 349 OFFCURVE",
"570 320 CURVE"
);
},
{
closed = 1;
nodes = (
"144 213 OFFCURVE",
"222 233 OFFCURVE",
"294 233 CURVE",
"290 203 LINE SMOOTH",
"282 141 OFFCURVE",
"251 88 OFFCURVE",
"196 88 CURVE SMOOTH",
"160 88 OFFCURVE",
"144 105 OFFCURVE",
"144 134 CURVE SMOOTH"
);
},
{
closed = 1;
nodes = (
"437 723 LINE",
"351 591 LINE",
"450 591 LINE",
"558 720 LINE",
"557 723 LINE"
);
}
);
width = 729;
}
);
unicode = 01FD;
},
{
color = (31,255,0,1);
glyphname = b;
lastChange = "2015-02-05 02:37:04 +0000";
layers = (
{
background = {
paths = (
{
closed = 1;
nodes = (
"123 723 LINE",
"23 0 LINE",
"96 0 LINE",
"140 70 LINE",
"162 12 OFFCURVE",
"206 -12 OFFCURVE",
"262 -12 CURVE SMOOTH",
"421 -12 OFFCURVE",
"467 214 OFFCURVE",
"467 349 CURVE SMOOTH",
"467 480 OFFCURVE",
"412 538 OFFCURVE",
"332 538 CURVE SMOOTH",
"282 538 OFFCURVE",
"236 513 OFFCURVE",
"207 474 CURVE",
"242 723 LINE"
);
},
{
closed = 1;
nodes = (
"170 262 OFFCURVE",
"189 429 OFFCURVE",
"283 429 CURVE SMOOTH",
"328 429 OFFCURVE",
"345 398 OFFCURVE",
"345 340 CURVE SMOOTH",
"345 269 OFFCURVE",
"331 97 OFFCURVE",
"235 97 CURVE SMOOTH",
"189 97 OFFCURVE",
"170 130 OFFCURVE",
"170 188 CURVE SMOOTH"
);
}
);
};
layerId = UUID0;
name = "Regular Italic";
paths = (
{
closed = 1;
nodes = (
"421 -12 OFFCURVE",
"467 214 OFFCURVE",
"467 349 CURVE SMOOTH",
"467 480 OFFCURVE",
"412 538 OFFCURVE",
"332 538 CURVE SMOOTH",
"282 538 OFFCURVE",
"236 513 OFFCURVE",
"207 474 CURVE",
"242 723 LINE",
"123 723 LINE",
"23 0 LINE",
"116 0 LINE",
"140 70 LINE",
"162 12 OFFCURVE",
"206 -12 OFFCURVE",
"262 -12 CURVE SMOOTH"
);
},
{
closed = 1;
nodes = (
"328 429 OFFCURVE",
"345 398 OFFCURVE",
"345 340 CURVE SMOOTH",
"345 269 OFFCURVE",
"331 97 OFFCURVE",
"235 97 CURVE SMOOTH",
"189 97 OFFCURVE",
"170 130 OFFCURVE",
"170 188 CURVE SMOOTH",
"170 262 OFFCURVE",
"189 429 OFFCURVE",
"283 429 CURVE SMOOTH"
);
}
);
width = 501;
}
);
unicode = 0062;
},
{
glyphname = c;
lastChange = "2015-02-05 02:37:04 +0000";
layers = (
{
anchors = (
{
name = bottom;
position = "{197, 0}";
},
{
name = top;
position = "{271, 526}";
}
);
layerId = UUID0;
name = "Regular Italic";
paths = (
{
closed = 1;
nodes = (
"36 47 OFFCURVE",
"92 -12 OFFCURVE",
"203 -12 CURVE SMOOTH",
"336 -12 OFFCURVE",
"388 84 OFFCURVE",
"413 195 CURVE",
"294 195 LINE",
"282 138 OFFCURVE",
"255 89 OFFCURVE",
"212 89 CURVE SMOOTH",
"169 89 OFFCURVE",
"158 124 OFFCURVE",
"158 191 CURVE SMOOTH",
"158 228 OFFCURVE",
"174 437 OFFCURVE",
"260 437 CURVE SMOOTH",
"299 437 OFFCURVE",
"310 404 OFFCURVE",
"310 343 CURVE SMOOTH",
"310 328 LINE",
"432 328 LINE",
"432 343 LINE SMOOTH",
"432 474 OFFCURVE",
"384 538 OFFCURVE",
"269 538 CURVE SMOOTH",
"76 538 OFFCURVE",
"36 337 OFFCURVE",
"36 172 CURVE SMOOTH"
);
}
);
width = 456;
}
);
unicode = 0063;
},
{
glyphname = cacute;
lastChange = "2015-02-05 02:37:04 +0000";
layers = (
{
layerId = UUID0;
name = "Regular Italic";
paths = (
{
closed = 1;
nodes = (
"36 47 OFFCURVE",
"92 -12 OFFCURVE",
"203 -12 CURVE SMOOTH",
"336 -12 OFFCURVE",
"388 84 OFFCURVE",
"413 195 CURVE",
"294 195 LINE",
"282 138 OFFCURVE",
"255 89 OFFCURVE",
"212 89 CURVE SMOOTH",
"169 89 OFFCURVE",
"158 124 OFFCURVE",
"158 191 CURVE SMOOTH",
"158 228 OFFCURVE",
"174 437 OFFCURVE",
"260 437 CURVE SMOOTH",
"299 437 OFFCURVE",
"310 404 OFFCURVE",
"310 343 CURVE SMOOTH",
"310 328 LINE",
"432 328 LINE",
"432 343 LINE SMOOTH",
"432 474 OFFCURVE",
"384 538 OFFCURVE",
"269 538 CURVE SMOOTH",
"76 538 OFFCURVE",
"36 337 OFFCURVE",
"36 172 CURVE SMOOTH"
);
},
{
closed = 1;
nodes = (
"304 723 LINE",
"218 591 LINE",
"317 591 LINE",
"425 720 LINE",
"424 723 LINE"
);
}
);
width = 456;
}
);
unicode = 0107;
},
{
glyphname = ccaron;
lastChange = "2015-02-05 02:37:04 +0000";
layers = (
{
layerId = UUID0;
name = "Regular Italic";
paths = (
{
closed = 1;
nodes = (
"36 47 OFFCURVE",
"92 -12 OFFCURVE",
"203 -12 CURVE SMOOTH",
"336 -12 OFFCURVE",
"388 84 OFFCURVE",
"413 195 CURVE",
"294 195 LINE",
"282 138 OFFCURVE",
"255 89 OFFCURVE",
"212 89 CURVE SMOOTH",
"169 89 OFFCURVE",
"158 124 OFFCURVE",
"158 191 CURVE SMOOTH",
"158 228 OFFCURVE",
"174 437 OFFCURVE",
"260 437 CURVE SMOOTH",
"299 437 OFFCURVE",
"310 404 OFFCURVE",
"310 343 CURVE SMOOTH",
"310 328 LINE",
"432 328 LINE",
"432 343 LINE SMOOTH",
"432 474 OFFCURVE",
"384 538 OFFCURVE",
"269 538 CURVE SMOOTH",
"76 538 OFFCURVE",
"36 337 OFFCURVE",
"36 172 CURVE SMOOTH"
);
},
{
closed = 1;
nodes = (
"163 723 LINE",
"230 588 LINE",
"328 588 LINE",
"432 723 LINE",
"338 723 LINE",
"288 654 LINE",
"253 723 LINE"
);
}
);
width = 456;
}
);
unicode = 010D;
},
{
glyphname = ccedilla;
lastChange = "2015-02-05 02:37:04 +0000";
layers = (
{
layerId = UUID0;
name = "Regular Italic";
paths = (
{
closed = 1;
nodes = (
"36 65 OFFCURVE",
"77 6 OFFCURVE",
"158 -8 CURVE",
"141 -77 LINE",
"173 -77 LINE SMOOTH",
"195 -77 OFFCURVE",
"205 -83 OFFCURVE",
"205 -95 CURVE SMOOTH",
"205 -119 OFFCURVE",
"188 -125 OFFCURVE",
"165 -125 CURVE SMOOTH",
"93 -125 LINE",
"86 -174 LINE",
"109 -179 OFFCURVE",
"142 -182 OFFCURVE",
"169 -182 CURVE SMOOTH",
"225 -182 OFFCURVE",
"291 -166 OFFCURVE",
"291 -90 CURVE SMOOTH",
"291 -52 OFFCURVE",
"258 -36 OFFCURVE",
"221 -33 CURVE",
"226 -11 LINE",
"342 0 OFFCURVE",
"390 90 OFFCURVE",
"413 195 CURVE",
"294 195 LINE",
"282 138 OFFCURVE",
"255 89 OFFCURVE",
"212 89 CURVE SMOOTH",
"169 89 OFFCURVE",
"158 124 OFFCURVE",
"158 191 CURVE SMOOTH",
"158 228 OFFCURVE",
"174 437 OFFCURVE",
"260 437 CURVE SMOOTH",
"299 437 OFFCURVE",
"310 404 OFFCURVE",
"310 343 CURVE SMOOTH",
"310 328 LINE",
"432 328 LINE",
"432 343 LINE SMOOTH",
"432 474 OFFCURVE",
"384 538 OFFCURVE",
"269 538 CURVE SMOOTH",
"76 538 OFFCURVE",
"36 337 OFFCURVE",
"36 172 CURVE SMOOTH"
);
}
);
width = 456;
}
);
unicode = 00E7;
},
{
glyphname = ccircumflex;
lastChange = "2015-02-05 02:37:04 +0000";
layers = (
{
layerId = UUID0;
name = "Regular Italic";
paths = (
{
closed = 1;
nodes = (
"36 47 OFFCURVE",
"92 -12 OFFCURVE",
"203 -12 CURVE SMOOTH",
"336 -12 OFFCURVE",
"388 84 OFFCURVE",
"413 195 CURVE",
"294 195 LINE",
"282 138 OFFCURVE",
"255 89 OFFCURVE",
"212 89 CURVE SMOOTH",
"169 89 OFFCURVE",
"158 124 OFFCURVE",
"158 191 CURVE SMOOTH",
"158 228 OFFCURVE",
"174 437 OFFCURVE",
"260 437 CURVE SMOOTH",
"299 437 OFFCURVE",
"310 404 OFFCURVE",
"310 343 CURVE SMOOTH",
"310 328 LINE",
"432 328 LINE",
"432 343 LINE SMOOTH",
"432 474 OFFCURVE",
"384 538 OFFCURVE",
"269 538 CURVE SMOOTH",
"76 538 OFFCURVE",
"36 337 OFFCURVE",
"36 172 CURVE SMOOTH"
);
},
{
closed = 1;
nodes = (
"250 723 LINE",
"146 588 LINE",
"239 588 LINE",
"290 657 LINE",
"324 588 LINE",
"414 588 LINE",
"348 723 LINE"
);
}
);
width = 456;
}
);
unicode = 0109;
},
{
glyphname = cdotaccent;
lastChange = "2015-02-05 02:37:04 +0000";
layers = (
{
layerId = UUID0;
name = "Regular Italic";
paths = (
{
closed = 1;
nodes = (
"36 47 OFFCURVE",
"92 -12 OFFCURVE",
"203 -12 CURVE SMOOTH",
"336 -12 OFFCURVE",
"388 84 OFFCURVE",
"413 195 CURVE",
"294 195 LINE",
"282 138 OFFCURVE",
"255 89 OFFCURVE",
"212 89 CURVE SMOOTH",
"169 89 OFFCURVE",
"158 124 OFFCURVE",
"158 191 CURVE SMOOTH",
"158 228 OFFCURVE",
"174 437 OFFCURVE",
"260 437 CURVE SMOOTH",
"299 437 OFFCURVE",
"310 404 OFFCURVE",
"310 343 CURVE SMOOTH",
"310 328 LINE",
"432 328 LINE",
"432 343 LINE SMOOTH",
"432 474 OFFCURVE",
"384 538 OFFCURVE",
"269 538 CURVE SMOOTH",
"76 538 OFFCURVE",
"36 337 OFFCURVE",
"36 172 CURVE SMOOTH"
);
},
{
closed = 1;
nodes = (
"246 723 LINE",
"229 608 LINE",
"336 608 LINE",
"353 723 LINE"
);
}
);
width = 456;
}
);
unicode = 010B;
},
{
glyphname = d;
lastChange = "2015-02-05 02:37:04 +0000";
layers = (
{
anchors = (
{
name = center;
position = "{250, 263}";
}
);
layerId = UUID0;
name = "Regular Italic";
paths = (
{
closed = 1;
nodes = (
"36 51 OFFCURVE",
"89 -12 OFFCURVE",
"179 -12 CURVE SMOOTH",
"228 -12 OFFCURVE",
"274 13 OFFCURVE",
"311 76 CURVE",
"311 0 LINE",
"408 0 LINE",
"508 723 LINE",
"390 723 LINE",
"353 469 LINE",
"333 513 OFFCURVE",
"297 538 OFFCURVE",
"242 538 CURVE SMOOTH",
"139 538 OFFCURVE",
"36 428 OFFCURVE",
"36 174 CURVE SMOOTH"
);
},
{
closed = 1;
nodes = (
"174 97 OFFCURVE",
"157 128 OFFCURVE",
"157 186 CURVE SMOOTH",
"157 257 OFFCURVE",
"172 429 OFFCURVE",
"271 429 CURVE SMOOTH",
"315 429 OFFCURVE",
"332 396 OFFCURVE",
"332 338 CURVE SMOOTH",
"332 264 OFFCURVE",
"314 97 OFFCURVE",
"220 97 CURVE SMOOTH"
);
}
);
width = 501;
}
);
unicode = 0064;
},
{
glyphname = eth;
lastChange = "2015-02-05 02:37:04 +0000";
layers = (
{
layerId = UUID0;
name = "Regular Italic";
paths = (
{
closed = 1;
nodes = (
"33 49 OFFCURVE",
"96 -12 OFFCURVE",
"219 -12 CURVE SMOOTH",
"369 -12 OFFCURVE",
"463 106 OFFCURVE",
"463 367 CURVE SMOOTH",
"463 471 OFFCURVE",
"437 549 OFFCURVE",
"406 607 CURVE",
"482 614 LINE",
"492 687 LINE",
"361 675 LINE",
"345 695 OFFCURVE",
"330 711 OFFCURVE",
"318 723 CURVE",
"194 723 LINE",
"192 719 LINE",
"203 706 OFFCURVE",
"219 687 OFFCURVE",
"236 664 CURVE",
"161 657 LINE",
"151 584 LINE",
"280 595 LINE",
"291 575 OFFCURVE",
"302 553 OFFCURVE",
"309 534 CURVE",
"305 530 LINE",
"291 535 OFFCURVE",
"270 538 OFFCURVE",
"253 538 CURVE SMOOTH",
"136 538 OFFCURVE",
"33 415 OFFCURVE",
"33 182 CURVE SMOOTH"
);
},
{
closed = 1;
nodes = (
"176 89 OFFCURVE",
"156 121 OFFCURVE",
"156 183 CURVE SMOOTH",
"156 221 OFFCURVE",
"162 437 OFFCURVE",
"272 437 CURVE SMOOTH",
"319 437 OFFCURVE",
"339 404 OFFCURVE",
"339 343 CURVE SMOOTH",
"339 305 OFFCURVE",
"333 89 OFFCURVE",
"223 89 CURVE SMOOTH"
);
}
);
width = 501;
}
);
unicode = 00F0;
},
{
glyphname = dcaron;
lastChange = "2015-02-05 02:37:04 +0000";
layers = (
{
layerId = UUID0;
name = "Regular Italic";
paths = (
{
closed = 1;
nodes = (
"36 51 OFFCURVE",
"89 -12 OFFCURVE",
"179 -12 CURVE SMOOTH",
"228 -12 OFFCURVE",
"274 13 OFFCURVE",
"311 76 CURVE",
"311 0 LINE",
"408 0 LINE",
"508 723 LINE",
"390 723 LINE",
"353 469 LINE",
"333 513 OFFCURVE",
"297 538 OFFCURVE",
"242 538 CURVE SMOOTH",
"139 538 OFFCURVE",
"36 428 OFFCURVE",
"36 174 CURVE SMOOTH"
);
},
{
closed = 1;
nodes = (
"174 97 OFFCURVE",
"157 128 OFFCURVE",
"157 186 CURVE SMOOTH",
"157 257 OFFCURVE",
"172 429 OFFCURVE",
"271 429 CURVE SMOOTH",
"315 429 OFFCURVE",
"332 396 OFFCURVE",
"332 338 CURVE SMOOTH",
"332 264 OFFCURVE",
"314 97 OFFCURVE",
"220 97 CURVE SMOOTH"
);
},
{
closed = 1;
nodes = (
"592 549 LINE",
"519 393 LINE",
"591 393 LINE",
"681 561 LINE",
"698 686 LINE",
"560 686 LINE",
"541 549 LINE"
);
}
);
width = 607;
}
);
unicode = 010F;
},
{
glyphname = dcroat;
lastChange = "2015-02-05 02:37:04 +0000";
layers = (
{
layerId = UUID0;
name = "Regular Italic";
paths = (
{
closed = 1;
nodes = (
"36 51 OFFCURVE",
"89 -12 OFFCURVE",
"179 -12 CURVE SMOOTH",
"228 -12 OFFCURVE",
"274 13 OFFCURVE",
"311 76 CURVE",
"311 0 LINE",
"408 0 LINE",
"488 583 LINE",
"546 583 LINE",
"558 670 LINE",
"500 670 LINE",
"508 723 LINE",
"390 723 LINE",
"382 670 LINE",
"251 670 LINE",
"239 583 LINE",
"370 583 LINE",
"353 469 LINE",
"333 513 OFFCURVE",
"297 538 OFFCURVE",
"242 538 CURVE SMOOTH",
"139 538 OFFCURVE",
"36 428 OFFCURVE",
"36 174 CURVE SMOOTH"
);
},
{
closed = 1;
nodes = (
"174 97 OFFCURVE",
"157 128 OFFCURVE",
"157 186 CURVE SMOOTH",
"157 257 OFFCURVE",
"172 429 OFFCURVE",
"271 429 CURVE SMOOTH",
"315 429 OFFCURVE",
"332 396 OFFCURVE",
"332 338 CURVE SMOOTH",
"332 264 OFFCURVE",
"314 97 OFFCURVE",
"220 97 CURVE SMOOTH"
);
}
);
width = 501;
}
);
unicode = 0111;
},
{
glyphname = e;
lastChange = "2015-02-05 02:37:04 +0000";
layers = (
{
anchors = (
{
name = bottom;
position = "{191, 0}";
},
{
name = ogonek;
position = "{287, 5}";
},
{
name = top;
position = "{265, 526}";
}
);
layerId = UUID0;
name = "Regular Italic";
paths = (
{
closed = 1;
nodes = (
"33 47 OFFCURVE",
"89 -12 OFFCURVE",
"203 -12 CURVE SMOOTH",
"327 -12 OFFCURVE",
"383 77 OFFCURVE",
"407 182 CURVE",
"284 182 LINE",
"273 130 OFFCURVE",
"248 85 OFFCURVE",
"208 85 CURVE SMOOTH",
"168 85 OFFCURVE",
"153 119 OFFCURVE",
"153 187 CURVE SMOOTH",
"153 194 OFFCURVE",
"153 212 OFFCURVE",
"155 233 CURVE",
"418 233 LINE",
"426 275 OFFCURVE",
"429 320 OFFCURVE",
"429 359 CURVE SMOOTH",
"429 479 OFFCURVE",
"374 538 OFFCURVE",
"266 538 CURVE SMOOTH",
"78 538 OFFCURVE",
"33 345 OFFCURVE",
"33 172 CURVE SMOOTH"
);
},
{
closed = 1;
nodes = (
"168 320 LINE",
"182 382 OFFCURVE",
"209 441 OFFCURVE",
"259 441 CURVE SMOOTH",
"295 441 OFFCURVE",
"308 412 OFFCURVE",
"308 359 CURVE SMOOTH",
"308 354 OFFCURVE",
"308 349 OFFCURVE",
"306 320 CURVE"
);
}
);
width = 456;
}
);
unicode = 0065;
},
{
glyphname = eacute;
lastChange = "2015-02-05 02:37:04 +0000";
layers = (
{
layerId = UUID0;
name = "Regular Italic";
paths = (
{
closed = 1;
nodes = (
"33 47 OFFCURVE",
"89 -12 OFFCURVE",
"203 -12 CURVE SMOOTH",
"327 -12 OFFCURVE",
"383 77 OFFCURVE",
"407 182 CURVE",
"284 182 LINE",
"273 130 OFFCURVE",
"248 85 OFFCURVE",
"208 85 CURVE SMOOTH",
"168 85 OFFCURVE",
"153 119 OFFCURVE",
"153 187 CURVE SMOOTH",
"153 194 OFFCURVE",
"153 212 OFFCURVE",
"155 233 CURVE",
"418 233 LINE",
"426 275 OFFCURVE",
"429 320 OFFCURVE",
"429 359 CURVE SMOOTH",
"429 479 OFFCURVE",
"374 538 OFFCURVE",
"266 538 CURVE SMOOTH",
"78 538 OFFCURVE",
"33 345 OFFCURVE",
"33 172 CURVE SMOOTH"
);
},
{
closed = 1;
nodes = (
"168 320 LINE",
"182 382 OFFCURVE",
"209 441 OFFCURVE",
"259 441 CURVE SMOOTH",
"295 441 OFFCURVE",
"308 412 OFFCURVE",
"308 359 CURVE SMOOTH",
"308 354 OFFCURVE",
"308 349 OFFCURVE",
"306 320 CURVE"
);
},
{
closed = 1;
nodes = (
"298 723 LINE",
"212 591 LINE",
"311 591 LINE",
"419 720 LINE",
"418 723 LINE"
);
}
);
width = 456;
}
);
unicode = 00E9;
},
{
glyphname = ebreve;
lastChange = "2015-02-05 02:37:04 +0000";
layers = (
{
layerId = UUID0;
name = "Regular Italic";
paths = (
{
closed = 1;
nodes = (
"33 47 OFFCURVE",
"89 -12 OFFCURVE",
"203 -12 CURVE SMOOTH",
"327 -12 OFFCURVE",
"383 77 OFFCURVE",
"407 182 CURVE",
"284 182 LINE",
"273 130 OFFCURVE",
"248 85 OFFCURVE",
"208 85 CURVE SMOOTH",
"168 85 OFFCURVE",
"153 119 OFFCURVE",
"153 187 CURVE SMOOTH",
"153 194 OFFCURVE",
"153 212 OFFCURVE",
"155 233 CURVE",
"418 233 LINE",
"426 275 OFFCURVE",
"429 320 OFFCURVE",
"429 359 CURVE SMOOTH",
"429 479 OFFCURVE",
"374 538 OFFCURVE",
"266 538 CURVE SMOOTH",
"78 538 OFFCURVE",
"33 345 OFFCURVE",
"33 172 CURVE SMOOTH"
);
},
{
closed = 1;
nodes = (
"168 320 LINE",
"182 382 OFFCURVE",
"209 441 OFFCURVE",
"259 441 CURVE SMOOTH",
"295 441 OFFCURVE",
"308 412 OFFCURVE",
"308 359 CURVE SMOOTH",
"308 354 OFFCURVE",
"308 349 OFFCURVE",
"306 320 CURVE"
);
},
{
closed = 1;
nodes = (
"363 616 OFFCURVE",
"420 673 OFFCURVE",
"427 723 CURVE",
"353 723 LINE",
"349 709 OFFCURVE",
"322 690 OFFCURVE",
"288 690 CURVE SMOOTH",
"255 690 OFFCURVE",
"235 709 OFFCURVE",
"234 723 CURVE",
"160 723 LINE",
"159 719 OFFCURVE",
"159 716 OFFCURVE",
"159 712 CURVE SMOOTH",
"159 665 OFFCURVE",
"204 616 OFFCURVE",
"283 616 CURVE SMOOTH"
);
}
);
width = 456;
}
);
unicode = 0115;
},
{
glyphname = ecaron;
lastChange = "2015-02-05 02:37:04 +0000";
layers = (
{
layerId = UUID0;
name = "Regular Italic";
paths = (
{
closed = 1;
nodes = (
"33 47 OFFCURVE",
"89 -12 OFFCURVE",
"203 -12 CURVE SMOOTH",
"327 -12 OFFCURVE",
"383 77 OFFCURVE",
"407 182 CURVE",
"284 182 LINE",
"273 130 OFFCURVE",
"248 85 OFFCURVE",
"208 85 CURVE SMOOTH",
"168 85 OFFCURVE",
"153 119 OFFCURVE",
"153 187 CURVE SMOOTH",
"153 194 OFFCURVE",
"153 212 OFFCURVE",
"155 233 CURVE",
"418 233 LINE",
"426 275 OFFCURVE",
"429 320 OFFCURVE",
"429 359 CURVE SMOOTH",
"429 479 OFFCURVE",
"374 538 OFFCURVE",
"266 538 CURVE SMOOTH",
"78 538 OFFCURVE",
"33 345 OFFCURVE",
"33 172 CURVE SMOOTH"
);
},
{
closed = 1;
nodes = (
"168 320 LINE",
"182 382 OFFCURVE",
"209 441 OFFCURVE",
"259 441 CURVE SMOOTH",
"295 441 OFFCURVE",
"308 412 OFFCURVE",
"308 359 CURVE SMOOTH",
"308 354 OFFCURVE",
"308 349 OFFCURVE",
"306 320 CURVE"
);
},
{
closed = 1;
nodes = (
"157 723 LINE",
"224 588 LINE",
"322 588 LINE",
"426 723 LINE",
"332 723 LINE",
"282 654 LINE",
"247 723 LINE"
);
}
);
width = 456;
}
);
unicode = 011B;
},
{
glyphname = ecircumflex;
lastChange = "2015-02-05 02:37:04 +0000";
layers = (
{
layerId = UUID0;
name = "Regular Italic";
paths = (
{
closed = 1;
nodes = (
"33 47 OFFCURVE",
"89 -12 OFFCURVE",
"203 -12 CURVE SMOOTH",
"327 -12 OFFCURVE",
"383 77 OFFCURVE",
"407 182 CURVE",
"284 182 LINE",
"273 130 OFFCURVE",
"248 85 OFFCURVE",
"208 85 CURVE SMOOTH",
"168 85 OFFCURVE",
"153 119 OFFCURVE",
"153 187 CURVE SMOOTH",
"153 194 OFFCURVE",
"153 212 OFFCURVE",
"155 233 CURVE",
"418 233 LINE",
"426 275 OFFCURVE",
"429 320 OFFCURVE",
"429 359 CURVE SMOOTH",
"429 479 OFFCURVE",
"374 538 OFFCURVE",
"266 538 CURVE SMOOTH",
"78 538 OFFCURVE",
"33 345 OFFCURVE",
"33 172 CURVE SMOOTH"
);
},
{
closed = 1;
nodes = (
"168 320 LINE",
"182 382 OFFCURVE",
"209 441 OFFCURVE",
"259 441 CURVE SMOOTH",
"295 441 OFFCURVE",
"308 412 OFFCURVE",
"308 359 CURVE SMOOTH",
"308 354 OFFCURVE",
"308 349 OFFCURVE",
"306 320 CURVE"
);
},
{
closed = 1;
nodes = (
"244 723 LINE",
"140 588 LINE",
"233 588 LINE",
"284 657 LINE",
"318 588 LINE",
"408 588 LINE",
"342 723 LINE"
);
}
);
width = 456;
}
);
unicode = 00EA;
},
{
glyphname = edieresis;
lastChange = "2015-02-05 02:37:04 +0000";
layers = (
{
layerId = UUID0;
name = "Regular Italic";
paths = (
{
closed = 1;
nodes = (
"33 47 OFFCURVE",
"89 -12 OFFCURVE",
"203 -12 CURVE SMOOTH",
"327 -12 OFFCURVE",
"383 77 OFFCURVE",
"407 182 CURVE",
"284 182 LINE",
"273 130 OFFCURVE",
"248 85 OFFCURVE",
"208 85 CURVE SMOOTH",
"168 85 OFFCURVE",
"153 119 OFFCURVE",
"153 187 CURVE SMOOTH",
"153 194 OFFCURVE",
"153 212 OFFCURVE",
"155 233 CURVE",
"418 233 LINE",
"426 275 OFFCURVE",
"429 320 OFFCURVE",
"429 359 CURVE SMOOTH",
"429 479 OFFCURVE",
"374 538 OFFCURVE",
"266 538 CURVE SMOOTH",
"78 538 OFFCURVE",
"33 345 OFFCURVE",
"33 172 CURVE SMOOTH"
);
},
{
closed = 1;
nodes = (
"168 320 LINE",
"182 382 OFFCURVE",
"209 441 OFFCURVE",
"259 441 CURVE SMOOTH",
"295 441 OFFCURVE",
"308 412 OFFCURVE",
"308 359 CURVE SMOOTH",
"308 354 OFFCURVE",
"308 349 OFFCURVE",
"306 320 CURVE"
);
},
{
closed = 1;
nodes = (
"331 723 LINE",
"316 614 LINE",
"416 614 LINE",
"431 723 LINE"
);
},
{
closed = 1;
nodes = (
"156 723 LINE",
"142 614 LINE",
"241 614 LINE",
"256 723 LINE"
);
}
);
width = 456;
}
);
unicode = 00EB;
},
{
glyphname = edotaccent;
lastChange = "2015-02-05 02:37:04 +0000";
layers = (
{
layerId = UUID0;
name = "Regular Italic";
paths = (
{
closed = 1;
nodes = (
"33 47 OFFCURVE",
"89 -12 OFFCURVE",
"203 -12 CURVE SMOOTH",
"327 -12 OFFCURVE",
"383 77 OFFCURVE",
"407 182 CURVE",
"284 182 LINE",
"273 130 OFFCURVE",
"248 85 OFFCURVE",
"208 85 CURVE SMOOTH",
"168 85 OFFCURVE",
"153 119 OFFCURVE",
"153 187 CURVE SMOOTH",
"153 194 OFFCURVE",
"153 212 OFFCURVE",
"155 233 CURVE",
"418 233 LINE",
"426 275 OFFCURVE",
"429 320 OFFCURVE",
"429 359 CURVE SMOOTH",
"429 479 OFFCURVE",
"374 538 OFFCURVE",
"266 538 CURVE SMOOTH",
"78 538 OFFCURVE",
"33 345 OFFCURVE",
"33 172 CURVE SMOOTH"
);
},
{
closed = 1;
nodes = (
"168 320 LINE",
"182 382 OFFCURVE",
"209 441 OFFCURVE",
"259 441 CURVE SMOOTH",
"295 441 OFFCURVE",
"308 412 OFFCURVE",
"308 359 CURVE SMOOTH",
"308 354 OFFCURVE",
"308 349 OFFCURVE",
"306 320 CURVE"
);
},
{
closed = 1;
nodes = (
"240 723 LINE",
"223 608 LINE",
"330 608 LINE",
"347 723 LINE"
);
}
);
width = 456;
}
);
unicode = 0117;
},
{
glyphname = egrave;
lastChange = "2015-02-05 02:37:04 +0000";
layers = (
{
layerId = UUID0;
name = "Regular Italic";
paths = (
{
closed = 1;
nodes = (
"33 47 OFFCURVE",
"89 -12 OFFCURVE",
"203 -12 CURVE SMOOTH",
"327 -12 OFFCURVE",
"383 77 OFFCURVE",
"407 182 CURVE",
"284 182 LINE",
"273 130 OFFCURVE",
"248 85 OFFCURVE",
"208 85 CURVE SMOOTH",
"168 85 OFFCURVE",
"153 119 OFFCURVE",
"153 187 CURVE SMOOTH",
"153 194 OFFCURVE",
"153 212 OFFCURVE",
"155 233 CURVE",
"418 233 LINE",
"426 275 OFFCURVE",
"429 320 OFFCURVE",
"429 359 CURVE SMOOTH",
"429 479 OFFCURVE",
"374 538 OFFCURVE",
"266 538 CURVE SMOOTH",
"78 538 OFFCURVE",
"33 345 OFFCURVE",
"33 172 CURVE SMOOTH"
);
},
{
closed = 1;
nodes = (
"168 320 LINE",
"182 382 OFFCURVE",
"209 441 OFFCURVE",
"259 441 CURVE SMOOTH",
"295 441 OFFCURVE",
"308 412 OFFCURVE",
"308 359 CURVE SMOOTH",
"308 354 OFFCURVE",
"308 349 OFFCURVE",
"306 320 CURVE"
);
},
{
closed = 1;
nodes = (
"154 720 LINE",
"244 591 LINE",
"343 591 LINE",
"276 723 LINE",
"156 723 LINE"
);
}
);
width = 456;
}
);
unicode = 00E8;
},
{
glyphname = emacron;
lastChange = "2015-02-05 02:37:04 +0000";
layers = (
{
layerId = UUID0;
name = "Regular Italic";
paths = (
{
closed = 1;
nodes = (
"33 47 OFFCURVE",
"89 -12 OFFCURVE",
"203 -12 CURVE SMOOTH",
"327 -12 OFFCURVE",
"383 77 OFFCURVE",
"407 182 CURVE",
"284 182 LINE",
"273 130 OFFCURVE",
"248 85 OFFCURVE",
"208 85 CURVE SMOOTH",
"168 85 OFFCURVE",
"153 119 OFFCURVE",
"153 187 CURVE SMOOTH",
"153 194 OFFCURVE",
"153 212 OFFCURVE",
"155 233 CURVE",
"418 233 LINE",
"426 275 OFFCURVE",
"429 320 OFFCURVE",
"429 359 CURVE SMOOTH",
"429 479 OFFCURVE",
"374 538 OFFCURVE",
"266 538 CURVE SMOOTH",
"78 538 OFFCURVE",
"33 345 OFFCURVE",
"33 172 CURVE SMOOTH"
);
},
{
closed = 1;
nodes = (
"168 320 LINE",
"182 382 OFFCURVE",
"209 441 OFFCURVE",
"259 441 CURVE SMOOTH",
"295 441 OFFCURVE",
"308 412 OFFCURVE",
"308 359 CURVE SMOOTH",
"308 354 OFFCURVE",
"308 349 OFFCURVE",
"306 320 CURVE"
);
},
{
closed = 1;
nodes = (
"160 686 LINE",
"147 599 LINE",
"402 599 LINE",
"415 686 LINE"
);
}
);
width = 456;
}
);
unicode = 0113;
},
{
glyphname = eogonek;
lastChange = "2015-02-05 02:37:04 +0000";
layers = (
{
layerId = UUID0;
name = "Regular Italic";
paths = (
{
closed = 1;
nodes = (
"144 -167 OFFCURVE",
"189 -185 OFFCURVE",
"231 -185 CURVE SMOOTH",
"253 -185 OFFCURVE",
"275 -180 OFFCURVE",
"299 -171 CURVE",
"307 -116 LINE",
"285 -116 LINE SMOOTH",
"257 -116 OFFCURVE",
"246 -98 OFFCURVE",
"246 -76 CURVE SMOOTH",
"246 -44 OFFCURVE",
"271 -11 OFFCURVE",
"287 5 CURVE",
"354 36 OFFCURVE",
"389 104 OFFCURVE",
"407 182 CURVE",
"284 182 LINE",
"273 130 OFFCURVE",
"248 85 OFFCURVE",
"208 85 CURVE SMOOTH",
"168 85 OFFCURVE",
"153 119 OFFCURVE",
"153 187 CURVE SMOOTH",
"153 194 OFFCURVE",
"153 212 OFFCURVE",
"155 233 CURVE",
"418 233 LINE",
"426 275 OFFCURVE",
"429 320 OFFCURVE",
"429 359 CURVE SMOOTH",
"429 479 OFFCURVE",
"374 538 OFFCURVE",
"266 538 CURVE SMOOTH",
"78 538 OFFCURVE",
"33 345 OFFCURVE",
"33 172 CURVE SMOOTH",
"33 54 OFFCURVE",
"83 -5 OFFCURVE",
"185 -12 CURVE",
"162 -36 OFFCURVE",
"144 -65 OFFCURVE",
"144 -108 CURVE SMOOTH"
);
},
{
closed = 1;
nodes = (
"168 320 LINE",
"182 382 OFFCURVE",
"209 441 OFFCURVE",
"259 441 CURVE SMOOTH",
"295 441 OFFCURVE",
"308 412 OFFCURVE",
"308 359 CURVE SMOOTH",
"308 354 OFFCURVE",
"308 349 OFFCURVE",
"306 320 CURVE"
);
}
);
width = 456;
}
);
unicode = 0119;
},
{
glyphname = f;
lastChange = "2015-02-05 02:37:04 +0000";
layers = (
{
layerId = UUID0;
name = "Regular Italic";
paths = (
{
closed = 1;
nodes = (
"83 425 LINE",
"23 -33 LINE",
"19 -64 OFFCURVE",
"2 -81 OFFCURVE",
"-28 -81 CURVE SMOOTH",
"-72 -81 LINE",
"-85 -170 LINE",
"-65 -176 OFFCURVE",
"-28 -182 OFFCURVE",
"1 -182 CURVE SMOOTH",
"94 -182 OFFCURVE",
"131 -111 OFFCURVE",
"140 -41 CURVE SMOOTH",
"202 425 LINE",
"292 425 LINE",
"306 526 LINE",
"216 526 LINE",
"224 587 LINE SMOOTH",
"228 615 OFFCURVE",
"245 630 OFFCURVE",
"272 630 CURVE SMOOTH",
"320 630 LINE",
"333 719 LINE",
"314 725 OFFCURVE",
"276 731 OFFCURVE",
"249 731 CURVE SMOOTH",
"154 731 OFFCURVE",
"116 660 OFFCURVE",
"106 590 CURVE SMOOTH",
"97 526 LINE",
"45 526 LINE",
"31 425 LINE"
);
}
);
width = 273;
}
);
unicode = 0066;
},
{
color = (31,255,0,1);
glyphname = g;
lastChange = "2015-02-05 02:37:04 +0000";
layers = (
{
anchors = (
{
name = top;
position = "{283, 526}";
}
);
background = {
paths = (
{
closed = 1;
nodes = (
"7 -24 LINE",
"7 -108 OFFCURVE",
"64 -182 OFFCURVE",
"184 -182 CURVE SMOOTH",
"313 -182 OFFCURVE",
"390 -115 OFFCURVE",
"413 49 CURVE SMOOTH",
"480 526 LINE",
"406 526 LINE",
"363 456 LINE",
"340 513 OFFCURVE",
"295 538 OFFCURVE",
"241 538 CURVE SMOOTH",
"82 538 OFFCURVE",
"36 318 OFFCURVE",
"36 187 CURVE SMOOTH",
"36 66 OFFCURVE",
"101 14 OFFCURVE",
"181 14 CURVE SMOOTH",
"228 14 OFFCURVE",
"272 41 OFFCURVE",
"300 79 CURVE",
"292 25 LINE SMOOTH",
"281 -46 OFFCURVE",
"247 -81 OFFCURVE",
"192 -81 CURVE SMOOTH",
"148 -81 OFFCURVE",
"129 -60 OFFCURVE",
"129 -24 CURVE"
);
},
{
closed = 1;
nodes = (
"158 264 OFFCURVE",
"172 429 OFFCURVE",
"268 429 CURVE SMOOTH",
"314 429 OFFCURVE",
"333 396 OFFCURVE",
"333 338 CURVE SMOOTH",
"333 270 OFFCURVE",
"313 117 OFFCURVE",
"223 117 CURVE SMOOTH",
"181 117 OFFCURVE",
"158 144 OFFCURVE",
"158 196 CURVE SMOOTH"
);
}
);
};
layerId = UUID0;
name = "Regular Italic";
paths = (
{
closed = 1;
nodes = (
"82 538 OFFCURVE",
"36 318 OFFCURVE",
"36 187 CURVE SMOOTH",
"36 66 OFFCURVE",
"101 14 OFFCURVE",
"181 14 CURVE SMOOTH",
"228 14 OFFCURVE",
"272 41 OFFCURVE",
"300 79 CURVE",
"292 25 LINE SMOOTH",
"281 -46 OFFCURVE",
"247 -81 OFFCURVE",
"192 -81 CURVE SMOOTH",
"148 -81 OFFCURVE",
"129 -60 OFFCURVE",
"129 -24 CURVE",
"7 -24 LINE",
"7 -108 OFFCURVE",
"64 -182 OFFCURVE",
"184 -182 CURVE SMOOTH",
"313 -182 OFFCURVE",
"390 -115 OFFCURVE",
"413 49 CURVE SMOOTH",
"480 526 LINE",
"386 526 LINE",
"363 456 LINE",
"340 513 OFFCURVE",
"295 538 OFFCURVE",
"241 538 CURVE SMOOTH"
);
},
{
closed = 1;
nodes = (
"181 117 OFFCURVE",
"158 144 OFFCURVE",
"158 196 CURVE SMOOTH",
"158 264 OFFCURVE",
"172 429 OFFCURVE",
"268 429 CURVE SMOOTH",
"314 429 OFFCURVE",
"333 396 OFFCURVE",
"333 338 CURVE SMOOTH",
"333 270 OFFCURVE",
"313 117 OFFCURVE",
"223 117 CURVE SMOOTH"
);
}
);
width = 501;
}
);
unicode = 0067;
},
{
color = (31,255,0,1);
glyphname = gbreve;
lastChange = "2015-02-05 02:37:04 +0000";
layers = (
{
background = {
paths = (
{
closed = 1;
nodes = (
"7 -24 LINE",
"7 -108 OFFCURVE",
"64 -182 OFFCURVE",
"184 -182 CURVE SMOOTH",
"313 -182 OFFCURVE",
"390 -115 OFFCURVE",
"413 49 CURVE SMOOTH",
"480 526 LINE",
"406 526 LINE",
"363 456 LINE",
"340 513 OFFCURVE",
"295 538 OFFCURVE",
"241 538 CURVE SMOOTH",
"82 538 OFFCURVE",
"36 318 OFFCURVE",
"36 187 CURVE SMOOTH",
"36 66 OFFCURVE",
"101 14 OFFCURVE",
"181 14 CURVE SMOOTH",
"228 14 OFFCURVE",
"272 41 OFFCURVE",
"300 79 CURVE",
"292 25 LINE SMOOTH",
"281 -46 OFFCURVE",
"247 -81 OFFCURVE",
"192 -81 CURVE SMOOTH",
"148 -81 OFFCURVE",
"129 -60 OFFCURVE",
"129 -24 CURVE"
);
},
{
closed = 1;
nodes = (
"158 264 OFFCURVE",
"172 429 OFFCURVE",
"268 429 CURVE SMOOTH",
"314 429 OFFCURVE",
"333 396 OFFCURVE",
"333 338 CURVE SMOOTH",
"333 270 OFFCURVE",
"313 117 OFFCURVE",
"223 117 CURVE SMOOTH",
"181 117 OFFCURVE",
"158 144 OFFCURVE",
"158 196 CURVE SMOOTH"
);
}
);
};
layerId = UUID0;
name = "Regular Italic";
paths = (
{
closed = 1;
nodes = (
"381 616 OFFCURVE",
"438 673 OFFCURVE",
"445 723 CURVE",
"371 723 LINE",
"367 709 OFFCURVE",
"340 690 OFFCURVE",
"306 690 CURVE SMOOTH",
"273 690 OFFCURVE",
"253 709 OFFCURVE",
"252 723 CURVE",
"178 723 LINE",
"177 719 OFFCURVE",
"177 716 OFFCURVE",
"177 712 CURVE SMOOTH",
"177 665 OFFCURVE",
"222 616 OFFCURVE",
"301 616 CURVE SMOOTH"
);
},
{
closed = 1;
nodes = (
"82 538 OFFCURVE",
"36 318 OFFCURVE",
"36 187 CURVE SMOOTH",
"36 66 OFFCURVE",
"101 14 OFFCURVE",
"181 14 CURVE SMOOTH",
"228 14 OFFCURVE",
"272 41 OFFCURVE",
"300 79 CURVE",
"292 25 LINE SMOOTH",
"281 -46 OFFCURVE",
"247 -81 OFFCURVE",
"192 -81 CURVE SMOOTH",
"148 -81 OFFCURVE",
"129 -60 OFFCURVE",
"129 -24 CURVE",
"7 -24 LINE",
"7 -108 OFFCURVE",
"64 -182 OFFCURVE",
"184 -182 CURVE SMOOTH",
"313 -182 OFFCURVE",
"390 -115 OFFCURVE",
"413 49 CURVE SMOOTH",
"480 526 LINE",
"386 526 LINE",
"363 456 LINE",
"340 513 OFFCURVE",
"295 538 OFFCURVE",
"241 538 CURVE SMOOTH"
);
},
{
closed = 1;
nodes = (
"181 117 OFFCURVE",
"158 144 OFFCURVE",
"158 196 CURVE SMOOTH",
"158 264 OFFCURVE",
"172 429 OFFCURVE",
"268 429 CURVE SMOOTH",
"314 429 OFFCURVE",
"333 396 OFFCURVE",
"333 338 CURVE SMOOTH",
"333 270 OFFCURVE",
"313 117 OFFCURVE",
"223 117 CURVE SMOOTH"
);
}
);
width = 501;
}
);
unicode = 011F;
},
{
color = (31,255,0,1);
glyphname = gcircumflex;
lastChange = "2015-02-05 02:37:04 +0000";
layers = (
{
background = {
paths = (
{
closed = 1;
nodes = (
"7 -24 LINE",
"7 -108 OFFCURVE",
"64 -182 OFFCURVE",
"184 -182 CURVE SMOOTH",
"313 -182 OFFCURVE",
"390 -115 OFFCURVE",
"413 49 CURVE SMOOTH",
"480 526 LINE",
"406 526 LINE",
"363 456 LINE",
"340 513 OFFCURVE",
"295 538 OFFCURVE",
"241 538 CURVE SMOOTH",
"82 538 OFFCURVE",
"36 318 OFFCURVE",
"36 187 CURVE SMOOTH",
"36 66 OFFCURVE",
"101 14 OFFCURVE",
"181 14 CURVE SMOOTH",
"228 14 OFFCURVE",
"272 41 OFFCURVE",
"300 79 CURVE",
"292 25 LINE SMOOTH",
"281 -46 OFFCURVE",
"247 -81 OFFCURVE",
"192 -81 CURVE SMOOTH",
"148 -81 OFFCURVE",
"129 -60 OFFCURVE",
"129 -24 CURVE"
);
},
{
closed = 1;
nodes = (
"158 264 OFFCURVE",
"172 429 OFFCURVE",
"268 429 CURVE SMOOTH",
"314 429 OFFCURVE",
"333 396 OFFCURVE",
"333 338 CURVE SMOOTH",
"333 270 OFFCURVE",
"313 117 OFFCURVE",
"223 117 CURVE SMOOTH",
"181 117 OFFCURVE",
"158 144 OFFCURVE",
"158 196 CURVE SMOOTH"
);
}
);
};
layerId = UUID0;
name = "Regular Italic";
paths = (
{
closed = 1;
nodes = (
"262 723 LINE",
"158 588 LINE",
"251 588 LINE",
"302 657 LINE",
"336 588 LINE",
"426 588 LINE",
"360 723 LINE"
);
},
{
closed = 1;
nodes = (
"82 538 OFFCURVE",
"36 318 OFFCURVE",
"36 187 CURVE SMOOTH",
"36 66 OFFCURVE",
"101 14 OFFCURVE",
"181 14 CURVE SMOOTH",
"228 14 OFFCURVE",
"272 41 OFFCURVE",
"300 79 CURVE",
"292 25 LINE SMOOTH",
"281 -46 OFFCURVE",
"247 -81 OFFCURVE",
"192 -81 CURVE SMOOTH",
"148 -81 OFFCURVE",
"129 -60 OFFCURVE",
"129 -24 CURVE",
"7 -24 LINE",
"7 -108 OFFCURVE",
"64 -182 OFFCURVE",
"184 -182 CURVE SMOOTH",
"313 -182 OFFCURVE",
"390 -115 OFFCURVE",
"413 49 CURVE SMOOTH",
"480 526 LINE",
"386 526 LINE",
"363 456 LINE",
"340 513 OFFCURVE",
"295 538 OFFCURVE",
"241 538 CURVE SMOOTH"
);
},
{
closed = 1;
nodes = (
"181 117 OFFCURVE",
"158 144 OFFCURVE",
"158 196 CURVE SMOOTH",
"158 264 OFFCURVE",
"172 429 OFFCURVE",
"268 429 CURVE SMOOTH",
"314 429 OFFCURVE",
"333 396 OFFCURVE",
"333 338 CURVE SMOOTH",
"333 270 OFFCURVE",
"313 117 OFFCURVE",
"223 117 CURVE SMOOTH"
);
}
);
width = 501;
}
);
unicode = 011D;
},
{
color = (31,255,0,1);
glyphname = gcommaaccent;
lastChange = "2015-02-05 02:37:04 +0000";
layers = (
{
background = {
paths = (
{
closed = 1;
nodes = (
"7 -24 LINE",
"7 -108 OFFCURVE",
"64 -182 OFFCURVE",
"184 -182 CURVE SMOOTH",
"313 -182 OFFCURVE",
"390 -115 OFFCURVE",
"413 49 CURVE SMOOTH",
"480 526 LINE",
"406 526 LINE",
"363 456 LINE",
"340 513 OFFCURVE",
"295 538 OFFCURVE",
"241 538 CURVE SMOOTH",
"82 538 OFFCURVE",
"36 318 OFFCURVE",
"36 187 CURVE SMOOTH",
"36 66 OFFCURVE",
"101 14 OFFCURVE",
"181 14 CURVE SMOOTH",
"228 14 OFFCURVE",
"272 41 OFFCURVE",
"300 79 CURVE",
"292 25 LINE SMOOTH",
"281 -46 OFFCURVE",
"247 -81 OFFCURVE",
"192 -81 CURVE SMOOTH",
"148 -81 OFFCURVE",
"129 -60 OFFCURVE",
"129 -24 CURVE"
);
},
{
closed = 1;
nodes = (
"158 264 OFFCURVE",
"172 429 OFFCURVE",
"268 429 CURVE SMOOTH",
"314 429 OFFCURVE",
"333 396 OFFCURVE",
"333 338 CURVE SMOOTH",
"333 270 OFFCURVE",
"313 117 OFFCURVE",
"223 117 CURVE SMOOTH",
"181 117 OFFCURVE",
"158 144 OFFCURVE",
"158 196 CURVE SMOOTH"
);
}
);
};
layerId = UUID0;
name = "Regular Italic";
paths = (
{
closed = 1;
nodes = (
"225 590 LINE",
"349 590 LINE",
"366 713 LINE",
"321 713 LINE",
"367 798 LINE",
"302 798 LINE",
"241 702 LINE"
);
},
{
closed = 1;
nodes = (
"82 538 OFFCURVE",
"36 318 OFFCURVE",
"36 187 CURVE SMOOTH",
"36 66 OFFCURVE",
"101 14 OFFCURVE",
"181 14 CURVE SMOOTH",
"228 14 OFFCURVE",
"272 41 OFFCURVE",
"300 79 CURVE",
"292 25 LINE SMOOTH",
"281 -46 OFFCURVE",
"247 -81 OFFCURVE",
"192 -81 CURVE SMOOTH",
"148 -81 OFFCURVE",
"129 -60 OFFCURVE",
"129 -24 CURVE",
"7 -24 LINE",
"7 -108 OFFCURVE",
"64 -182 OFFCURVE",
"184 -182 CURVE SMOOTH",
"313 -182 OFFCURVE",
"390 -115 OFFCURVE",
"413 49 CURVE SMOOTH",
"480 526 LINE",
"386 526 LINE",
"363 456 LINE",
"340 513 OFFCURVE",
"295 538 OFFCURVE",
"241 538 CURVE SMOOTH"
);
},
{
closed = 1;
nodes = (
"181 117 OFFCURVE",
"158 144 OFFCURVE",
"158 196 CURVE SMOOTH",
"158 264 OFFCURVE",
"172 429 OFFCURVE",
"268 429 CURVE SMOOTH",
"314 429 OFFCURVE",
"333 396 OFFCURVE",
"333 338 CURVE SMOOTH",
"333 270 OFFCURVE",
"313 117 OFFCURVE",
"223 117 CURVE SMOOTH"
);
}
);
width = 501;
}
);
unicode = 0123;
},
{
color = (31,255,0,1);
glyphname = gdotaccent;
lastChange = "2015-02-05 02:37:04 +0000";
layers = (
{
background = {
paths = (
{
closed = 1;
nodes = (
"7 -24 LINE",
"7 -108 OFFCURVE",
"64 -182 OFFCURVE",
"184 -182 CURVE SMOOTH",
"313 -182 OFFCURVE",
"390 -115 OFFCURVE",
"413 49 CURVE SMOOTH",
"480 526 LINE",
"406 526 LINE",
"363 456 LINE",
"340 513 OFFCURVE",
"295 538 OFFCURVE",
"241 538 CURVE SMOOTH",
"82 538 OFFCURVE",
"36 318 OFFCURVE",
"36 187 CURVE SMOOTH",
"36 66 OFFCURVE",
"101 14 OFFCURVE",
"181 14 CURVE SMOOTH",
"228 14 OFFCURVE",
"272 41 OFFCURVE",
"300 79 CURVE",
"292 25 LINE SMOOTH",
"281 -46 OFFCURVE",
"247 -81 OFFCURVE",
"192 -81 CURVE SMOOTH",
"148 -81 OFFCURVE",
"129 -60 OFFCURVE",
"129 -24 CURVE"
);
},
{
closed = 1;
nodes = (
"158 264 OFFCURVE",
"172 429 OFFCURVE",
"268 429 CURVE SMOOTH",
"314 429 OFFCURVE",
"333 396 OFFCURVE",
"333 338 CURVE SMOOTH",
"333 270 OFFCURVE",
"313 117 OFFCURVE",
"223 117 CURVE SMOOTH",
"181 117 OFFCURVE",
"158 144 OFFCURVE",
"158 196 CURVE SMOOTH"
);
}
);
};
layerId = UUID0;
name = "Regular Italic";
paths = (
{
closed = 1;
nodes = (
"258 723 LINE",
"241 608 LINE",
"348 608 LINE",
"365 723 LINE"
);
},
{
closed = 1;
nodes = (
"82 538 OFFCURVE",
"36 318 OFFCURVE",
"36 187 CURVE SMOOTH",
"36 66 OFFCURVE",
"101 14 OFFCURVE",
"181 14 CURVE SMOOTH",
"228 14 OFFCURVE",
"272 41 OFFCURVE",
"300 79 CURVE",
"292 25 LINE SMOOTH",
"281 -46 OFFCURVE",
"247 -81 OFFCURVE",
"192 -81 CURVE SMOOTH",
"148 -81 OFFCURVE",
"129 -60 OFFCURVE",
"129 -24 CURVE",
"7 -24 LINE",
"7 -108 OFFCURVE",
"64 -182 OFFCURVE",
"184 -182 CURVE SMOOTH",
"313 -182 OFFCURVE",
"390 -115 OFFCURVE",
"413 49 CURVE SMOOTH",
"480 526 LINE",
"386 526 LINE",
"363 456 LINE",
"340 513 OFFCURVE",
"295 538 OFFCURVE",
"241 538 CURVE SMOOTH"
);
},
{
closed = 1;
nodes = (
"181 117 OFFCURVE",
"158 144 OFFCURVE",
"158 196 CURVE SMOOTH",
"158 264 OFFCURVE",
"172 429 OFFCURVE",
"268 429 CURVE SMOOTH",
"314 429 OFFCURVE",
"333 396 OFFCURVE",
"333 338 CURVE SMOOTH",
"333 270 OFFCURVE",
"313 117 OFFCURVE",
"223 117 CURVE SMOOTH"
);
}
);
width = 501;
}
);
unicode = 0121;
},
{
glyphname = h;
lastChange = "2015-02-05 02:37:04 +0000";
layers = (
{
anchors = (
{
name = center;
position = "{250, 263}";
},
{
name = top;
position = "{176, 686}";
}
);
layerId = UUID0;
name = "Regular Italic";
paths = (
{
closed = 1;
nodes = (
"123 723 LINE",
"23 0 LINE",
"142 0 LINE",
"186 316 LINE SMOOTH",
"196 389 OFFCURVE",
"237 429 OFFCURVE",
"283 429 CURVE SMOOTH",
"324 429 OFFCURVE",
"341 409 OFFCURVE",
"341 363 CURVE SMOOTH",
"341 355 OFFCURVE",
"340 346 OFFCURVE",
"292 0 CURVE",
"410 0 LINE",
"460 372 OFFCURVE",
"463 376 OFFCURVE",
"463 403 CURVE SMOOTH",
"463 487 OFFCURVE",
"420 538 OFFCURVE",
"336 538 CURVE SMOOTH",
"277 538 OFFCURVE",
"237 509 OFFCURVE",
"206 471 CURVE",
"242 723 LINE"
);
}
);
width = 501;
}
);
unicode = 0068;
},
{
glyphname = hbar;
lastChange = "2015-02-05 02:37:04 +0000";
layers = (
{
layerId = UUID0;
name = "Regular Italic";
paths = (
{
closed = 1;
nodes = (
"123 723 LINE",
"116 670 LINE",
"58 670 LINE",
"45 583 LINE",
"104 583 LINE",
"23 0 LINE",
"142 0 LINE",
"186 316 LINE",
"196 389 OFFCURVE",
"237 429 OFFCURVE",
"283 429 CURVE SMOOTH",
"324 429 OFFCURVE",
"341 409 OFFCURVE",
"341 363 CURVE SMOOTH",
"341 355 OFFCURVE",
"340 346 OFFCURVE",
"292 0 CURVE",
"410 0 LINE",
"460 372 OFFCURVE",
"463 376 OFFCURVE",
"463 403 CURVE SMOOTH",
"463 487 OFFCURVE",
"420 538 OFFCURVE",
"336 538 CURVE SMOOTH",
"277 538 OFFCURVE",
"237 509 OFFCURVE",
"206 471 CURVE",
"222 583 LINE",
"352 583 LINE",
"364 670 LINE",
"234 670 LINE",
"242 723 LINE"
);
}
);
width = 501;
}
);
unicode = 0127;
},
{
glyphname = hcircumflex;
lastChange = "2015-02-05 02:37:04 +0000";
layers = (
{
layerId = UUID0;
name = "Regular Italic";
paths = (
{
closed = 1;
nodes = (
"123 723 LINE",
"23 0 LINE",
"142 0 LINE",
"186 316 LINE SMOOTH",
"196 389 OFFCURVE",
"237 429 OFFCURVE",
"283 429 CURVE SMOOTH",
"324 429 OFFCURVE",
"341 409 OFFCURVE",
"341 363 CURVE SMOOTH",
"341 355 OFFCURVE",
"340 346 OFFCURVE",
"292 0 CURVE",
"410 0 LINE",
"460 372 OFFCURVE",
"463 376 OFFCURVE",
"463 403 CURVE SMOOTH",
"463 487 OFFCURVE",
"420 538 OFFCURVE",
"336 538 CURVE SMOOTH",
"277 538 OFFCURVE",
"237 509 OFFCURVE",
"206 471 CURVE",
"242 723 LINE"
);
},
{
closed = 1;
nodes = (
"154 883 LINE",
"50 748 LINE",
"143 748 LINE",
"194 817 LINE",
"228 748 LINE",
"318 748 LINE",
"252 883 LINE"
);
}
);
width = 501;
}
);
unicode = 0125;
},
{
glyphname = i;
lastChange = "2015-02-05 02:37:04 +0000";
layers = (
{
layerId = UUID0;
name = "Regular Italic";
paths = (
{
closed = 1;
nodes = (
"123 723 LINE",
"108 614 LINE",
"227 614 LINE",
"242 723 LINE"
);
},
{
closed = 1;
nodes = (
"96 526 LINE",
"23 0 LINE",
"142 0 LINE",
"215 526 LINE"
);
}
);
width = 228;
}
);
unicode = 0069;
},
{
glyphname = dotlessi;
lastChange = "2015-02-05 02:37:04 +0000";
layers = (
{
anchors = (
{
name = ogonek;
position = "{142, 0}";
},
{
name = top;
position = "{154, 526}";
}
);
layerId = UUID0;
name = "Regular Italic";
paths = (
{
closed = 1;
nodes = (
"96 526 LINE",
"23 0 LINE",
"142 0 LINE",
"215 526 LINE"
);
}
);
width = 228;
}
);
unicode = 0131;
},
{
glyphname = iacute;
lastChange = "2015-02-05 02:37:04 +0000";
layers = (
{
layerId = UUID0;
name = "Regular Italic";
paths = (
{
closed = 1;
nodes = (
"96 526 LINE",
"23 0 LINE",
"142 0 LINE",
"215 526 LINE"
);
},
{
closed = 1;
nodes = (
"187 723 LINE",
"101 591 LINE",
"200 591 LINE",
"308 720 LINE",
"307 723 LINE"
);
}
);
width = 228;
}
);
unicode = 00ED;
},
{
glyphname = ibreve;
lastChange = "2015-02-05 02:37:04 +0000";
layers = (
{
layerId = UUID0;
name = "Regular Italic";
paths = (
{
closed = 1;
nodes = (
"96 526 LINE",
"23 0 LINE",
"142 0 LINE",
"215 526 LINE"
);
},
{
closed = 1;
nodes = (
"252 616 OFFCURVE",
"309 673 OFFCURVE",
"316 723 CURVE",
"242 723 LINE",
"238 709 OFFCURVE",
"211 690 OFFCURVE",
"177 690 CURVE SMOOTH",
"144 690 OFFCURVE",
"124 709 OFFCURVE",
"123 723 CURVE",
"49 723 LINE",
"48 719 OFFCURVE",
"48 716 OFFCURVE",
"48 712 CURVE SMOOTH",
"48 665 OFFCURVE",
"93 616 OFFCURVE",
"172 616 CURVE SMOOTH"
);
}
);
width = 228;
}
);
unicode = 012D;
},
{
glyphname = icircumflex;
lastChange = "2015-02-05 02:37:04 +0000";
layers = (
{
layerId = UUID0;
name = "Regular Italic";
paths = (
{
closed = 1;
nodes = (
"96 526 LINE",
"23 0 LINE",
"142 0 LINE",
"215 526 LINE"
);
},
{
closed = 1;
nodes = (
"133 723 LINE",
"29 588 LINE",
"122 588 LINE",
"173 657 LINE",
"207 588 LINE",
"297 588 LINE",
"231 723 LINE"
);
}
);
width = 228;
}
);
unicode = 00EE;
},
{
glyphname = idieresis;
lastChange = "2015-02-05 02:37:04 +0000";
layers = (
{
layerId = UUID0;
name = "Regular Italic";
paths = (
{
closed = 1;
nodes = (
"96 526 LINE",
"23 0 LINE",
"142 0 LINE",
"215 526 LINE"
);
},
{
closed = 1;
nodes = (
"220 723 LINE",
"205 614 LINE",
"305 614 LINE",
"320 723 LINE"
);
},
{
closed = 1;
nodes = (
"45 723 LINE",
"31 614 LINE",
"130 614 LINE",
"145 723 LINE"
);
}
);
width = 228;
}
);
unicode = 00EF;
},
{
glyphname = igrave;
lastChange = "2015-02-05 02:37:04 +0000";
layers = (
{
layerId = UUID0;
name = "Regular Italic";
paths = (
{
closed = 1;
nodes = (
"96 526 LINE",
"23 0 LINE",
"142 0 LINE",
"215 526 LINE"
);
},
{
closed = 1;
nodes = (
"44 720 LINE",
"134 591 LINE",
"233 591 LINE",
"166 723 LINE",
"46 723 LINE"
);
}
);
width = 228;
}
);
unicode = 00EC;
},
{
glyphname = ij;
lastChange = "2015-02-05 02:37:04 +0000";
layers = (
{
layerId = UUID0;
name = "Regular Italic";
paths = (
{
closed = 1;
nodes = (
"123 723 LINE",
"108 614 LINE",
"227 614 LINE",
"242 723 LINE"
);
},
{
closed = 1;
nodes = (
"96 526 LINE",
"23 0 LINE",
"142 0 LINE",
"215 526 LINE"
);
},
{
closed = 1;
nodes = (
"351 723 LINE",
"336 614 LINE",
"454 614 LINE",
"469 723 LINE"
);
},
{
closed = 1;
nodes = (
"323 526 LINE",
"246 -33 LINE",
"241 -64 OFFCURVE",
"224 -81 OFFCURVE",
"193 -81 CURVE SMOOTH",
"150 -81 LINE",
"138 -170 LINE",
"157 -176 OFFCURVE",
"194 -182 OFFCURVE",
"224 -182 CURVE SMOOTH",
"318 -182 OFFCURVE",
"353 -111 OFFCURVE",
"363 -41 CURVE SMOOTH",
"442 526 LINE"
);
}
);
width = 456;
}
);
unicode = 0133;
},
{
glyphname = imacron;
lastChange = "2015-02-05 02:37:04 +0000";
layers = (
{
layerId = UUID0;
name = "Regular Italic";
paths = (
{
closed = 1;
nodes = (
"96 526 LINE",
"23 0 LINE",
"142 0 LINE",
"215 526 LINE"
);
},
{
closed = 1;
nodes = (
"49 686 LINE",
"36 599 LINE",
"291 599 LINE",
"304 686 LINE"
);
}
);
width = 228;
}
);
unicode = 012B;
},
{
glyphname = iogonek;
lastChange = "2015-02-05 02:37:04 +0000";
layers = (
{
layerId = UUID0;
name = "Regular Italic";
paths = (
{
closed = 1;
nodes = (
"-1 -172 OFFCURVE",
"44 -190 OFFCURVE",
"86 -190 CURVE SMOOTH",
"108 -190 OFFCURVE",
"130 -185 OFFCURVE",
"154 -176 CURVE",
"162 -121 LINE",
"140 -121 LINE SMOOTH",
"112 -121 OFFCURVE",
"101 -103 OFFCURVE",
"101 -81 CURVE SMOOTH",
"101 -49 OFFCURVE",
"126 -16 OFFCURVE",
"142 0 CURVE",
"215 526 LINE",
"96 526 LINE",
"23 0 LINE",
"57 0 LINE",
"26 -26 OFFCURVE",
"-1 -60 OFFCURVE",
"-1 -113 CURVE SMOOTH"
);
},
{
closed = 1;
nodes = (
"129 723 LINE",
"112 608 LINE",
"219 608 LINE",
"236 723 LINE"
);
}
);
width = 228;
}
);
unicode = 012F;
},
{
glyphname = itilde;
lastChange = "2015-02-05 02:37:04 +0000";
layers = (
{
layerId = UUID0;
name = "Regular Italic";
paths = (
{
closed = 1;
nodes = (
"96 526 LINE",
"23 0 LINE",
"142 0 LINE",
"215 526 LINE"
);
},
{
closed = 1;
nodes = (
"67 601 LINE",
"75 628 OFFCURVE",
"90 638 OFFCURVE",
"111 638 CURVE SMOOTH",
"155 638 OFFCURVE",
"189 601 OFFCURVE",
"236 601 CURVE SMOOTH",
"307 601 OFFCURVE",
"351 668 OFFCURVE",
"351 723 CURVE",
"286 723 LINE",
"278 695 OFFCURVE",
"263 686 OFFCURVE",
"242 686 CURVE SMOOTH",
"198 686 OFFCURVE",
"164 723 OFFCURVE",
"116 723 CURVE SMOOTH",
"46 723 OFFCURVE",
"3 654 OFFCURVE",
"3 601 CURVE"
);
}
);
width = 228;
}
);
unicode = 0129;
},
{
glyphname = j;
lastChange = "2015-02-05 02:37:04 +0000";
layers = (
{
layerId = UUID0;
name = "Regular Italic";
paths = (
{
closed = 1;
nodes = (
"123 723 LINE",
"108 614 LINE",
"226 614 LINE",
"241 723 LINE"
);
},
{
closed = 1;
nodes = (
"95 526 LINE",
"18 -33 LINE",
"13 -64 OFFCURVE",
"-4 -81 OFFCURVE",
"-35 -81 CURVE SMOOTH",
"-78 -81 LINE",
"-90 -170 LINE",
"-71 -176 OFFCURVE",
"-34 -182 OFFCURVE",
"-4 -182 CURVE SMOOTH",
"90 -182 OFFCURVE",
"125 -111 OFFCURVE",
"135 -41 CURVE SMOOTH",
"214 526 LINE"
);
}
);
width = 228;
}
);
unicode = 006A;
},
{
glyphname = jcircumflex;
lastChange = "2015-02-05 02:37:04 +0000";
layers = (
{
layerId = UUID0;
name = "Regular Italic";
paths = (
{
closed = 1;
nodes = (
"95 526 LINE",
"18 -33 LINE",
"13 -64 OFFCURVE",
"-4 -81 OFFCURVE",
"-35 -81 CURVE SMOOTH",
"-78 -81 LINE",
"-90 -170 LINE",
"-71 -176 OFFCURVE",
"-34 -182 OFFCURVE",
"-4 -182 CURVE SMOOTH",
"90 -182 OFFCURVE",
"125 -111 OFFCURVE",
"135 -41 CURVE SMOOTH",
"214 526 LINE"
);
},
{
closed = 1;
nodes = (
"131 723 LINE",
"27 588 LINE",
"120 588 LINE",
"171 657 LINE",
"205 588 LINE",
"295 588 LINE",
"229 723 LINE"
);
}
);
width = 228;
}
);
unicode = 0135;
},
{
glyphname = k;
lastChange = "2015-02-05 02:37:04 +0000";
layers = (
{
anchors = (
{
name = bottom;
position = "{203, 0}";
}
);
layerId = UUID0;
name = "Regular Italic";
paths = (
{
closed = 1;
nodes = (
"123 723 LINE",
"23 0 LINE",
"142 0 LINE",
"164 160 LINE",
"220 215 LINE",
"296 0 LINE",
"422 0 LINE",
"304 310 LINE",
"488 526 LINE",
"353 526 LINE",
"187 329 LINE",
"242 723 LINE"
);
}
);
width = 456;
}
);
unicode = 006B;
},
{
glyphname = kcommaaccent;
lastChange = "2015-02-05 02:37:04 +0000";
layers = (
{
layerId = UUID0;
name = "Regular Italic";
paths = (
{
closed = 1;
nodes = (
"123 723 LINE",
"23 0 LINE",
"142 0 LINE",
"164 160 LINE",
"220 215 LINE",
"296 0 LINE",
"422 0 LINE",
"304 310 LINE",
"488 526 LINE",
"353 526 LINE",
"187 329 LINE",
"242 723 LINE"
);
},
{
closed = 1;
nodes = (
"258 -55 LINE",
"134 -55 LINE",
"117 -178 LINE",
"162 -178 LINE",
"116 -263 LINE",
"181 -263 LINE",
"242 -167 LINE"
);
}
);
width = 456;
}
);
unicode = 0137;
},
{
glyphname = kgreenlandic;
lastChange = "2015-02-05 02:37:04 +0000";
layers = (
{
layerId = UUID0;
name = "Regular Italic";
paths = (
{
closed = 1;
nodes = (
"96 525 LINE",
"23 0 LINE",
"142 0 LINE",
"164 160 LINE",
"220 215 LINE",
"296 0 LINE",
"422 0 LINE",
"304 310 LINE",
"488 526 LINE",
"353 526 LINE",
"187 329 LINE",
"214 525 LINE"
);
}
);
width = 464;
}
);
unicode = 0138;
},
{
glyphname = l;
lastChange = "2015-02-05 02:37:04 +0000";
layers = (
{
anchors = (
{
name = bottom;
position = "{81, 0}";
},
{
name = top;
position = "{177, 686}";
},
{
name = topright;
position = "{299, 526}";
}
);
layerId = UUID0;
name = "Regular Italic";
paths = (
{
closed = 1;
nodes = (
"122 723 LINE",
"22 0 LINE",
"141 0 LINE",
"241 723 LINE"
);
}
);
width = 228;
}
);
unicode = 006C;
},
{
glyphname = lacute;
lastChange = "2015-02-05 02:37:04 +0000";
layers = (
{
layerId = UUID0;
name = "Regular Italic";
paths = (
{
closed = 1;
nodes = (
"122 723 LINE",
"22 0 LINE",
"141 0 LINE",
"241 723 LINE"
);
},
{
closed = 1;
nodes = (
"209 883 LINE",
"123 751 LINE",
"222 751 LINE",
"330 880 LINE",
"329 883 LINE"
);
}
);
width = 228;
}
);
unicode = 013A;
},
{
glyphname = lcaron;
lastChange = "2015-02-05 02:37:04 +0000";
layers = (
{
layerId = UUID0;
name = "Regular Italic";
paths = (
{
closed = 1;
nodes = (
"122 723 LINE",
"22 0 LINE",
"141 0 LINE",
"241 723 LINE"
);
},
{
closed = 1;
nodes = (
"321 549 LINE",
"248 393 LINE",
"320 393 LINE",
"410 561 LINE",
"427 686 LINE",
"289 686 LINE",
"270 549 LINE"
);
}
);
width = 325;
}
);
unicode = 013E;
},
{
glyphname = lcommaaccent;
lastChange = "2015-02-05 02:37:04 +0000";
layers = (
{
layerId = UUID0;
name = "Regular Italic";
paths = (
{
closed = 1;
nodes = (
"122 723 LINE",
"22 0 LINE",
"141 0 LINE",
"241 723 LINE"
);
},
{
closed = 1;
nodes = (
"135 -55 LINE",
"11 -55 LINE",
"-6 -178 LINE",
"39 -178 LINE",
"-7 -263 LINE",
"58 -263 LINE",
"119 -167 LINE"
);
}
);
width = 228;
}
);
unicode = 013C;
},
{
glyphname = ldot;
lastChange = "2015-02-05 02:37:04 +0000";
layers = (
{
layerId = UUID0;
name = "Regular Italic";
paths = (
{
closed = 1;
nodes = (
"122 723 LINE",
"22 0 LINE",
"141 0 LINE",
"241 723 LINE"
);
},
{
closed = 1;
nodes = (
"246 409 LINE",
"227 278 LINE",
"348 278 LINE",
"367 409 LINE"
);
}
);
width = 334;
}
);
unicode = 0140;
},
{
glyphname = lslash;
lastChange = "2015-02-05 02:37:04 +0000";
layers = (
{
layerId = UUID0;
name = "Regular Italic";
paths = (
{
closed = 1;
nodes = (
"122 723 LINE",
"69 339 LINE",
"-9 278 LINE",
"-22 172 LINE",
"54 232 LINE",
"22 0 LINE",
"141 0 LINE",
"187 336 LINE",
"277 407 LINE",
"291 514 LINE",
"203 444 LINE",
"241 723 LINE"
);
}
);
width = 228;
}
);
unicode = 0142;
},
{
glyphname = m;
lastChange = "2015-02-05 02:37:04 +0000";
layers = (
{
layerId = UUID0;
name = "Regular Italic";
paths = (
{
closed = 1;
nodes = (
"98 526 LINE",
"24 0 LINE",
"143 0 LINE",
"186 316 LINE SMOOTH",
"196 390 OFFCURVE",
"233 429 OFFCURVE",
"274 429 CURVE SMOOTH",
"309 429 OFFCURVE",
"322 406 OFFCURVE",
"322 371 CURVE SMOOTH",
"322 351 OFFCURVE",
"320 346 OFFCURVE",
"273 0 CURVE",
"392 0 LINE",
"434 316 LINE SMOOTH",
"444 390 OFFCURVE",
"482 429 OFFCURVE",
"522 429 CURVE SMOOTH",
"557 429 OFFCURVE",
"571 406 OFFCURVE",
"571 371 CURVE SMOOTH",
"571 351 OFFCURVE",
"569 346 OFFCURVE",
"521 0 CURVE",
"640 0 LINE",
"691 372 OFFCURVE",
"693 376 OFFCURVE",
"693 403 CURVE SMOOTH",
"693 487 OFFCURVE",
"653 538 OFFCURVE",
"576 538 CURVE SMOOTH",
"510 538 OFFCURVE",
"469 500 OFFCURVE",
"438 452 CURVE",
"425 506 OFFCURVE",
"388 538 OFFCURVE",
"327 538 CURVE SMOOTH",
"265 538 OFFCURVE",
"224 503 OFFCURVE",
"195 458 CURVE",
"195 526 LINE"
);
}
);
width = 729;
}
);
unicode = 006D;
},
{
glyphname = n;
lastChange = "2015-02-05 02:37:04 +0000";
layers = (
{
anchors = (
{
name = bottom;
position = "{219, 0}";
},
{
name = top;
position = "{292, 526}";
}
);
layerId = UUID0;
name = "Regular Italic";
paths = (
{
closed = 1;
nodes = (
"96 526 LINE",
"23 0 LINE",
"142 0 LINE",
"185 316 LINE SMOOTH",
"195 389 OFFCURVE",
"237 429 OFFCURVE",
"283 429 CURVE SMOOTH",
"324 429 OFFCURVE",
"341 409 OFFCURVE",
"341 363 CURVE SMOOTH",
"341 355 OFFCURVE",
"339 346 OFFCURVE",
"292 0 CURVE",
"410 0 LINE",
"460 372 OFFCURVE",
"463 376 OFFCURVE",
"463 403 CURVE SMOOTH",
"463 487 OFFCURVE",
"420 538 OFFCURVE",
"336 538 CURVE SMOOTH",
"268 538 OFFCURVE",
"224 502 OFFCURVE",
"193 456 CURVE",
"193 526 LINE"
);
}
);
width = 501;
}
);
unicode = 006E;
},
{
glyphname = nacute;
lastChange = "2015-02-05 02:37:04 +0000";
layers = (
{
layerId = UUID0;
name = "Regular Italic";
paths = (
{
closed = 1;
nodes = (
"96 526 LINE",
"23 0 LINE",
"142 0 LINE",
"185 316 LINE SMOOTH",
"195 389 OFFCURVE",
"237 429 OFFCURVE",
"283 429 CURVE SMOOTH",
"324 429 OFFCURVE",
"341 409 OFFCURVE",
"341 363 CURVE SMOOTH",
"341 355 OFFCURVE",
"339 346 OFFCURVE",
"292 0 CURVE",
"410 0 LINE",
"460 372 OFFCURVE",
"463 376 OFFCURVE",
"463 403 CURVE SMOOTH",
"463 487 OFFCURVE",
"420 538 OFFCURVE",
"336 538 CURVE SMOOTH",
"268 538 OFFCURVE",
"224 502 OFFCURVE",
"193 456 CURVE",
"193 526 LINE"
);
},
{
closed = 1;
nodes = (
"325 723 LINE",
"239 591 LINE",
"338 591 LINE",
"446 720 LINE",
"445 723 LINE"
);
}
);
width = 501;
}
);
unicode = 0144;
},
{
glyphname = napostrophe;
lastChange = "2015-02-05 02:37:04 +0000";
layers = (
{
layerId = UUID0;
name = "Regular Italic";
paths = (
{
closed = 1;
nodes = (
"257 686 LINE",
"133 686 LINE",
"116 563 LINE",
"162 563 LINE",
"116 479 LINE",
"181 479 LINE",
"241 574 LINE"
);
},
{
closed = 1;
nodes = (
"294 526 LINE",
"221 0 LINE",
"340 0 LINE",
"383 316 LINE SMOOTH",
"393 389 OFFCURVE",
"435 429 OFFCURVE",
"481 429 CURVE SMOOTH",
"522 429 OFFCURVE",
"539 409 OFFCURVE",
"539 363 CURVE SMOOTH",
"539 355 OFFCURVE",
"537 346 OFFCURVE",
"490 0 CURVE",
"608 0 LINE",
"658 372 OFFCURVE",
"661 376 OFFCURVE",
"661 403 CURVE SMOOTH",
"661 487 OFFCURVE",
"618 538 OFFCURVE",
"534 538 CURVE SMOOTH",
"466 538 OFFCURVE",
"422 502 OFFCURVE",
"391 456 CURVE",
"391 526 LINE"
);
}
);
width = 700;
}
);
unicode = 0149;
},
{
glyphname = ncaron;
lastChange = "2015-02-05 02:37:04 +0000";
layers = (
{
layerId = UUID0;
name = "Regular Italic";
paths = (
{
closed = 1;
nodes = (
"96 526 LINE",
"23 0 LINE",
"142 0 LINE",
"185 316 LINE SMOOTH",
"195 389 OFFCURVE",
"237 429 OFFCURVE",
"283 429 CURVE SMOOTH",
"324 429 OFFCURVE",
"341 409 OFFCURVE",
"341 363 CURVE SMOOTH",
"341 355 OFFCURVE",
"339 346 OFFCURVE",
"292 0 CURVE",
"410 0 LINE",
"460 372 OFFCURVE",
"463 376 OFFCURVE",
"463 403 CURVE SMOOTH",
"463 487 OFFCURVE",
"420 538 OFFCURVE",
"336 538 CURVE SMOOTH",
"268 538 OFFCURVE",
"224 502 OFFCURVE",
"193 456 CURVE",
"193 526 LINE"
);
},
{
closed = 1;
nodes = (
"184 723 LINE",
"251 588 LINE",
"349 588 LINE",
"453 723 LINE",
"359 723 LINE",
"309 654 LINE",
"274 723 LINE"
);
}
);
width = 501;
}
);
unicode = 0148;
},
{
glyphname = ncommaaccent;
lastChange = "2015-02-05 02:37:04 +0000";
layers = (
{
layerId = UUID0;
name = "Regular Italic";
paths = (
{
closed = 1;
nodes = (
"96 526 LINE",
"23 0 LINE",
"142 0 LINE",
"185 316 LINE SMOOTH",
"195 389 OFFCURVE",
"237 429 OFFCURVE",
"283 429 CURVE SMOOTH",
"324 429 OFFCURVE",
"341 409 OFFCURVE",
"341 363 CURVE SMOOTH",
"341 355 OFFCURVE",
"339 346 OFFCURVE",
"292 0 CURVE",
"410 0 LINE",
"460 372 OFFCURVE",
"463 376 OFFCURVE",
"463 403 CURVE SMOOTH",
"463 487 OFFCURVE",
"420 538 OFFCURVE",
"336 538 CURVE SMOOTH",
"268 538 OFFCURVE",
"224 502 OFFCURVE",
"193 456 CURVE",
"193 526 LINE"
);
},
{
closed = 1;
nodes = (
"274 -55 LINE",
"150 -55 LINE",
"133 -178 LINE",
"178 -178 LINE",
"132 -263 LINE",
"197 -263 LINE",
"258 -167 LINE"
);
}
);
width = 501;
}
);
unicode = 0146;
},
{
glyphname = eng;
lastChange = "2015-02-05 02:37:04 +0000";
layers = (
{
layerId = UUID0;
name = "Regular Italic";
paths = (
{
closed = 1;
nodes = (
"96 526 LINE",
"23 0 LINE",
"142 0 LINE",
"185 316 LINE SMOOTH",
"195 389 OFFCURVE",
"237 429 OFFCURVE",
"283 429 CURVE SMOOTH",
"324 429 OFFCURVE",
"341 409 OFFCURVE",
"341 363 CURVE SMOOTH",
"341 355 OFFCURVE",
"338 312 OFFCURVE",
"287 -33 CURVE SMOOTH",
"282 -64 OFFCURVE",
"265 -81 OFFCURVE",
"234 -81 CURVE SMOOTH",
"191 -81 LINE",
"179 -170 LINE",
"198 -176 OFFCURVE",
"235 -182 OFFCURVE",
"265 -182 CURVE SMOOTH",
"359 -182 OFFCURVE",
"395 -111 OFFCURVE",
"405 -41 CURVE SMOOTH",
"458 331 OFFCURVE",
"463 376 OFFCURVE",
"463 403 CURVE SMOOTH",
"463 487 OFFCURVE",
"420 538 OFFCURVE",
"336 538 CURVE SMOOTH",
"268 538 OFFCURVE",
"224 502 OFFCURVE",
"193 456 CURVE",
"193 526 LINE"
);
}
);
width = 501;
}
);
unicode = 014B;
},
